{"glyphs":{"0":{"ha":775,"x_min":56,"x_max":706,"o":"m 324 -22 q 170 33 229 -22 q 83 178 111 89 q 56 368 56 267 q 81 587 56 478 q 169 772 107 696 q 292 899 213 815 q 443 944 336 944 q 561 909 511 944 q 643 813 611 874 q 690 680 675 753 q 706 532 706 607 q 681 328 706 429 q 597 156 656 226 q 551 108 579 138 q 483 39 522 79 q 324 -22 433 -22 m 393 60 q 493 99 453 60 q 557 203 533 139 q 591 341 581 267 q 601 485 601 415 q 594 591 601 542 q 571 682 586 640 q 487 806 542 758 q 365 853 432 853 q 266 813 306 853 q 203 708 226 772 q 169 570 179 644 q 160 426 160 496 q 174 293 160 358 q 218 175 189 228 q 291 91 247 122 q 393 60 335 60 z "},"1":{"ha":517,"x_min":-6,"x_max":475,"o":"m 451 -11 q 364 1 413 -3 q 263 4 315 4 q 117 -1 189 4 q -6 -10 44 -6 l 11 29 q 26 28 18 28 q 42 28 33 28 q 129 45 88 28 q 182 96 171 63 q 198 194 190 128 q 214 370 206 260 q 233 644 222 481 q 238 729 238 694 q 211 799 238 799 q 132 749 189 799 q 101 720 118 736 q 65 685 85 704 q 69 728 68 708 q 69 757 69 747 l 72 761 q 126 799 92 775 q 211 860 161 824 q 285 915 251 890 q 344 958 318 940 q 367 967 356 967 q 382 947 382 967 q 378 914 382 942 q 368 844 375 886 q 348 693 358 778 q 328 518 338 608 q 314 342 319 428 q 308 186 308 256 q 313 96 308 133 q 355 47 315 65 q 447 28 394 28 q 461 28 454 28 q 475 29 468 28 l 451 -11 z "},"2":{"ha":710,"x_min":6,"x_max":646,"o":"m 10 -17 l 6 -7 q 133 138 67 61 q 268 301 199 214 q 365 424 326 374 q 424 504 404 475 q 524 739 524 654 q 481 842 524 803 q 353 886 432 886 q 228 854 268 886 q 192 807 207 838 q 181 776 185 792 q 176 749 178 761 q 176 695 175 718 q 179 665 178 672 l 178 660 l 129 628 q 132 665 132 643 q 132 718 132 688 q 131 738 131 728 q 131 760 131 749 q 125 861 129 846 q 124 871 124 863 q 156 910 125 894 q 220 928 181 921 q 313 936 260 935 l 360 939 q 524 917 461 943 q 643 731 643 867 q 629 642 643 688 q 581 547 615 596 q 383 326 522 461 l 169 121 q 144 89 144 99 q 165 83 143 85 q 244 78 206 81 q 317 76 282 76 q 519 107 474 76 q 575 169 546 125 q 602 213 593 193 q 613 244 611 232 l 646 236 q 616 169 629 206 q 592 88 603 132 q 494 -6 572 -6 l 482 -6 q 390 -1 433 -3 q 311 1 347 1 q 269 1 289 1 q 231 -1 249 0 q 208 -3 224 -1 q 168 -6 192 -4 q 101 -10 140 -7 q 10 -17 61 -14 z "},"3":{"ha":668,"x_min":10,"x_max":604,"o":"m 253 -25 q 167 -21 215 -25 q 91 -10 121 -17 q 43 7 61 -3 q 11 50 10 24 l 11 56 q 24 186 24 100 q 23 208 24 197 q 22 232 22 219 l 69 251 l 76 244 q 73 216 75 239 q 69 164 71 193 q 86 106 69 139 q 118 60 100 74 q 235 26 163 26 q 432 110 365 26 q 477 194 461 147 q 493 300 493 242 q 397 454 493 413 q 172 485 326 485 q 177 496 175 490 q 182 507 179 501 q 188 519 185 513 q 193 531 190 525 q 199 531 196 531 q 207 532 203 532 q 219 535 213 533 q 233 538 225 536 q 482 739 482 589 q 439 842 482 803 q 311 886 392 886 q 239 878 271 886 q 186 854 207 871 q 151 807 165 838 q 135 749 138 776 q 135 695 133 718 q 138 665 136 672 l 136 660 l 89 628 q 90 655 90 639 q 90 690 90 671 q 90 723 90 706 q 89 760 90 740 q 83 861 88 846 q 82 871 82 863 q 114 910 85 894 q 178 928 139 921 q 271 936 218 935 l 318 939 q 482 917 419 943 q 592 761 592 871 q 392 528 592 603 q 382 524 389 526 q 372 519 375 521 q 388 517 376 519 q 406 514 400 515 q 578 425 526 501 q 597 376 590 404 q 604 313 604 349 q 594 205 604 251 q 564 126 583 158 q 292 -24 489 -7 q 273 -25 282 -25 q 253 -25 264 -25 z "},"4":{"ha":776,"x_min":-19,"x_max":760,"o":"m 661 -11 q 594 1 646 -4 q 456 7 542 6 q 206 -10 426 7 l 222 29 q 235 27 229 28 q 249 26 240 26 q 290 30 269 26 q 333 42 311 33 q 393 96 381 60 q 405 159 399 114 q 417 269 411 204 q 352 269 381 269 q 301 268 324 269 q 199 264 269 267 q 22 256 129 261 q 13 254 17 254 q 7 254 10 254 q -19 267 -19 254 q 3 290 -17 275 q 139 469 25 306 l 322 731 q 349 771 332 743 q 393 842 367 799 q 442 897 421 889 q 458 905 447 900 q 486 918 469 910 q 500 924 493 921 q 514 932 507 928 q 575 956 561 956 q 590 938 592 956 l 590 932 q 563 770 575 872 q 539 524 550 668 l 533 419 l 529 353 q 624 375 596 361 q 653 401 638 385 q 685 439 668 417 q 724 514 721 489 l 760 503 q 703 357 721 433 q 593 263 682 263 l 594 271 q 570 267 588 269 q 524 267 553 265 l 524 254 q 522 195 522 222 q 521 147 521 168 q 522 118 521 131 q 524 96 522 106 q 581 40 526 57 q 665 26 614 26 q 676 28 675 26 l 682 19 l 661 -11 m 338 346 q 381 346 360 346 q 424 347 401 346 l 444 644 q 449 732 449 697 q 439 806 449 792 q 339 675 417 785 q 138 381 261 565 q 129 364 132 374 q 153 353 129 354 q 245 348 199 350 q 338 346 292 346 z "},"5":{"ha":658,"x_min":10,"x_max":636,"o":"m 253 -25 q 167 -21 215 -25 q 91 -10 121 -17 q 43 7 61 -3 q 11 50 10 24 l 11 56 q 24 186 24 100 q 23 208 24 197 q 22 232 22 219 l 69 251 l 76 244 q 73 216 75 239 q 69 164 71 193 q 86 106 69 139 q 118 60 100 74 q 235 26 163 26 q 343 46 294 26 q 426 107 392 65 q 493 304 493 186 q 438 454 493 401 q 296 503 385 503 q 106 472 185 503 q 96 469 97 469 q 92 467 93 468 q 89 467 90 467 q 78 479 78 467 l 81 489 q 84 501 82 493 q 88 518 86 508 q 106 608 94 546 q 133 768 117 669 q 147 853 142 819 q 153 903 151 886 q 179 931 158 931 q 186 931 182 931 q 199 929 190 931 q 210 927 204 928 q 219 926 215 926 q 510 930 410 929 q 618 929 610 931 q 636 906 636 929 q 624 847 636 889 q 613 815 617 826 q 608 796 608 803 q 599 747 606 776 q 585 676 593 717 l 542 686 q 557 728 550 704 q 569 786 564 751 q 571 793 571 789 q 571 800 571 797 q 499 842 575 842 q 256 838 308 842 q 215 813 222 836 q 190 713 207 782 q 147 538 174 644 q 325 571 217 571 q 615 324 615 571 q 590 176 615 240 q 517 67 565 113 q 405 -1 471 24 q 253 -25 339 -25 z "},"6":{"ha":754,"x_min":56,"x_max":679,"o":"m 335 -14 q 100 125 167 -14 q 56 349 56 218 q 56 379 56 364 q 58 411 57 394 q 63 453 58 432 q 103 641 74 556 q 182 793 133 726 q 493 954 297 954 q 636 928 583 954 q 664 892 665 917 l 664 888 q 650 733 650 840 l 613 713 l 606 719 q 609 742 607 724 q 611 796 611 760 q 572 879 611 846 q 485 904 535 904 q 300 811 382 904 q 203 619 229 728 q 188 545 193 578 q 182 488 183 513 q 204 503 192 494 q 231 521 217 513 q 266 542 251 533 q 283 554 281 551 q 422 582 321 582 q 624 489 551 582 q 679 317 679 414 q 585 96 679 169 q 542 68 568 86 q 482 24 517 50 q 335 -14 436 -14 m 397 51 q 483 75 444 51 q 569 260 569 129 q 562 328 569 296 q 539 392 554 361 q 469 479 515 446 q 367 513 419 513 q 328 508 349 513 q 289 493 308 504 q 190 365 211 457 q 181 304 183 338 q 185 224 179 263 q 210 154 192 186 q 332 61 251 83 q 366 54 350 57 q 397 51 382 51 z "},"7":{"ha":617,"x_min":46,"x_max":665,"o":"m 185 -6 q 162 -1 174 -3 q 136 0 150 0 q 124 -1 131 0 q 107 -1 117 -1 q 99 -3 104 -3 q 82 -4 89 -4 q 72 -4 75 -4 q 57 0 61 -4 l 56 3 q 110 110 54 14 q 283 401 165 207 q 504 811 504 767 q 467 838 504 836 q 219 842 417 842 q 119 793 135 842 q 103 735 108 760 q 96 694 97 711 l 46 685 q 60 731 51 703 q 81 797 69 758 l 97 876 q 138 929 113 928 q 260 930 150 931 q 579 926 371 929 q 614 931 589 926 q 634 935 625 933 q 649 936 643 936 q 665 924 665 936 q 663 919 664 922 q 658 913 661 915 q 527 696 594 811 q 386 450 460 581 q 235 150 283 261 q 192 1 188 39 l 185 -6 z "},"8":{"ha":658,"x_min":29,"x_max":607,"o":"m 265 -25 q 100 22 165 -25 q 29 153 29 72 q 246 460 29 314 q 183 504 210 482 q 142 550 157 526 q 113 607 124 576 q 103 675 103 638 q 199 883 103 796 q 389 958 286 958 q 543 910 486 958 q 599 760 607 857 q 413 507 590 639 q 537 402 489 456 q 585 267 585 349 q 558 144 585 199 q 479 49 531 90 q 265 -25 386 -25 m 367 536 q 467 638 422 579 q 524 778 524 711 q 486 874 524 835 q 383 915 449 915 q 267 869 313 915 q 217 733 217 819 q 260 621 217 669 q 301 581 275 603 q 367 536 328 560 m 261 26 q 396 72 340 26 q 460 215 460 131 q 415 339 460 286 q 368 381 399 358 q 294 431 338 404 q 126 172 126 310 q 157 72 126 111 q 261 26 193 26 z "},"9":{"ha":714,"x_min":17,"x_max":640,"o":"m 201 -14 q 58 13 117 -14 q 32 49 31 28 l 32 53 q 44 208 46 104 l 83 228 l 90 221 q 87 199 89 217 q 85 144 85 181 q 124 63 85 92 q 211 38 157 38 q 394 131 315 38 q 492 322 464 207 q 508 397 503 364 q 514 454 513 431 q 492 438 504 446 q 464 419 479 429 q 454 414 458 417 q 446 408 450 411 q 423 394 432 399 q 411 388 414 389 q 272 358 374 358 q 72 451 142 358 q 17 624 17 526 q 41 753 17 697 q 110 844 65 808 q 183 896 135 860 q 198 906 190 901 q 214 917 206 911 q 361 954 260 954 q 597 815 526 954 q 629 717 618 772 q 640 594 640 661 q 640 563 640 579 q 638 529 639 546 l 633 489 q 514 147 610 283 q 201 -14 394 -14 m 332 431 q 443 471 397 431 q 506 576 489 508 q 514 636 511 607 q 515 650 514 643 q 515 663 515 657 q 508 729 515 699 q 485 786 500 760 q 364 879 447 854 q 330 886 346 883 q 299 889 314 889 q 132 743 169 889 q 122 681 125 713 q 154 528 117 592 q 282 436 194 458 q 332 431 303 431 z "},"\r":{"ha":458,"x_min":0,"x_max":0,"o":""}," ":{"ha":389,"x_min":0,"x_max":0,"o":""}," ":{"ha":389,"x_min":0,"x_max":0,"o":""},"A":{"ha":956,"x_min":-47,"x_max":946,"o":"m -47 -11 l -26 31 q 72 53 50 40 q 103 82 88 63 q 132 132 118 101 l 417 739 q 444 826 444 797 q 443 840 444 833 q 442 853 442 846 q 447 865 442 860 q 458 876 453 871 q 540 938 499 911 l 549 935 q 580 819 560 894 q 626 653 600 744 q 681 467 653 561 q 733 291 708 374 q 776 153 758 208 q 800 86 794 99 q 838 49 813 60 q 903 33 863 39 q 924 32 914 32 q 946 32 935 32 l 924 -10 q 798 -4 843 -6 q 742 -3 753 -3 q 706 -3 732 -3 q 639 -6 679 -3 l 549 -10 l 543 -3 l 558 31 q 661 71 661 31 q 649 132 661 82 q 610 292 636 182 q 597 306 606 306 l 286 306 q 274 299 278 306 q 222 188 243 235 q 188 110 200 140 q 176 83 182 96 q 171 63 171 69 q 288 32 171 31 l 265 -10 q 199 -4 238 -6 q 113 -3 161 -3 q 24 -4 63 -3 q -47 -11 -15 -6 m 307 363 l 585 363 q 588 367 590 363 q 533 553 561 460 q 478 733 506 647 q 432 642 454 688 q 381 531 410 596 q 304 367 351 467 q 307 363 303 363 z "},"Æ":{"ha":1253,"x_min":-43,"x_max":1222,"o":"m 1093 -15 q 1085 -15 1089 -15 q 1075 -14 1081 -15 q 832 3 919 -3 q 724 8 744 8 q 685 8 704 8 q 647 6 665 7 q 575 1 629 4 q 431 -11 521 -3 l 449 32 q 460 29 453 31 q 474 28 467 28 q 551 43 514 28 q 607 93 596 60 q 621 174 614 114 q 635 322 628 233 l 358 322 q 347 314 356 322 q 246 156 283 221 q 203 71 208 92 q 202 69 203 69 q 201 67 201 68 l 200 64 q 317 32 200 31 l 294 -10 q 230 -4 268 -6 q 142 -3 192 -3 q 38 -4 93 -3 q -43 -11 -17 -6 l -22 31 q 76 53 54 40 q 115 90 92 63 q 157 146 138 117 q 346 433 267 314 q 478 633 425 553 q 563 762 531 713 q 614 838 596 811 q 640 876 632 864 q 602 893 625 888 q 554 899 579 899 q 540 899 547 899 q 525 897 532 899 l 546 936 q 629 926 582 931 q 736 924 676 922 l 1132 928 q 1149 907 1149 926 q 1147 888 1149 899 q 1138 856 1144 876 l 1101 722 l 1064 732 q 1087 791 1081 772 q 1093 815 1093 810 q 1018 863 1093 853 q 989 865 1006 864 q 949 865 972 865 q 806 861 847 865 q 761 511 779 782 l 1050 514 q 1068 492 1068 514 q 1065 476 1067 486 q 1058 451 1063 467 q 1051 426 1054 438 q 1049 408 1049 415 q 1047 371 1047 404 l 1014 363 l 1008 369 l 1017 399 q 942 454 1024 451 q 808 458 863 458 q 781 458 794 458 q 757 457 768 458 q 744 164 744 260 q 745 122 744 140 q 747 93 746 104 q 768 63 751 69 q 799 56 776 60 q 853 47 822 51 q 919 43 885 43 q 1106 75 1058 43 q 1130 98 1117 83 q 1157 135 1143 113 q 1192 206 1189 182 l 1222 194 q 1194 131 1207 164 q 1174 58 1182 97 q 1150 3 1163 15 q 1093 -15 1131 -15 m 396 385 l 639 385 l 640 406 l 657 642 q 658 660 658 650 q 660 679 658 669 q 663 744 661 711 q 661 804 664 778 l 399 388 l 396 385 z "},"Ǽ":{"ha":1253,"x_min":-43,"x_max":1222,"o":"m 1093 -15 q 1085 -15 1089 -15 q 1075 -14 1081 -15 q 832 3 919 -3 q 724 8 744 8 q 685 8 704 8 q 647 6 665 7 q 575 1 629 4 q 431 -11 521 -3 l 449 32 q 460 29 453 31 q 474 28 467 28 q 551 43 514 28 q 607 93 596 60 q 621 174 614 114 q 635 322 628 233 l 358 322 q 347 314 356 322 q 246 156 283 221 q 203 71 208 92 q 202 69 203 69 q 201 67 201 68 l 200 64 q 317 32 200 31 l 294 -10 q 230 -4 268 -6 q 142 -3 192 -3 q 38 -4 93 -3 q -43 -11 -17 -6 l -22 31 q 76 53 54 40 q 115 90 92 63 q 157 146 138 117 q 346 433 267 314 q 478 633 425 553 q 563 762 531 713 q 614 838 596 811 q 640 876 632 864 q 602 893 625 888 q 554 899 579 899 q 540 899 547 899 q 525 897 532 899 l 546 936 q 629 926 582 931 q 736 924 676 922 l 1132 928 q 1149 907 1149 926 q 1147 888 1149 899 q 1138 856 1144 876 l 1101 722 l 1064 732 q 1087 791 1081 772 q 1093 815 1093 810 q 1018 863 1093 853 q 989 865 1006 864 q 949 865 972 865 q 806 861 847 865 q 761 511 779 782 l 1050 514 q 1068 492 1068 514 q 1065 476 1067 486 q 1058 451 1063 467 q 1051 426 1054 438 q 1049 408 1049 415 q 1047 371 1047 404 l 1014 363 l 1008 369 l 1017 399 q 942 454 1024 451 q 808 458 863 458 q 781 458 794 458 q 757 457 768 458 q 744 164 744 260 q 745 122 744 140 q 747 93 746 104 q 768 63 751 69 q 799 56 776 60 q 853 47 822 51 q 919 43 885 43 q 1106 75 1058 43 q 1130 98 1117 83 q 1157 135 1143 113 q 1192 206 1189 182 l 1222 194 q 1194 131 1207 164 q 1174 58 1182 97 q 1150 3 1163 15 q 1093 -15 1131 -15 m 396 385 l 639 385 l 640 406 l 657 642 q 658 660 658 650 q 660 679 658 669 q 663 744 661 711 q 661 804 664 778 l 399 388 l 396 385 m 771 1021 q 747 1033 747 1029 q 750 1036 747 1033 q 833 1074 794 1051 q 883 1107 872 1097 q 967 1174 964 1169 q 1017 1150 996 1157 q 1043 1138 1043 1140 q 1028 1122 1043 1133 q 986 1097 1010 1111 q 897 1053 963 1082 q 822 1028 858 1035 q 771 1021 786 1021 z "},"Á":{"ha":956,"x_min":-47,"x_max":946,"o":"m -47 -11 l -26 31 q 72 53 50 40 q 103 82 88 63 q 132 132 118 101 l 417 739 q 444 826 444 797 q 443 840 444 833 q 442 853 442 846 q 447 865 442 860 q 458 876 453 871 q 540 938 499 911 l 549 935 q 580 819 560 894 q 626 653 600 744 q 681 467 653 561 q 733 291 708 374 q 776 153 758 208 q 800 86 794 99 q 838 49 813 60 q 903 33 863 39 q 924 32 914 32 q 946 32 935 32 l 924 -10 q 798 -4 843 -6 q 742 -3 753 -3 q 706 -3 732 -3 q 639 -6 679 -3 l 549 -10 l 543 -3 l 558 31 q 661 71 661 31 q 649 132 661 82 q 610 292 636 182 q 597 306 606 306 l 286 306 q 274 299 278 306 q 222 188 243 235 q 188 110 200 140 q 176 83 182 96 q 171 63 171 69 q 288 32 171 31 l 265 -10 q 199 -4 238 -6 q 113 -3 161 -3 q 24 -4 63 -3 q -47 -11 -15 -6 m 307 363 l 585 363 q 588 367 590 363 q 533 553 561 460 q 478 733 506 647 q 432 642 454 688 q 381 531 410 596 q 304 367 351 467 q 307 363 303 363 m 421 1021 q 397 1033 397 1029 q 400 1036 397 1033 q 483 1074 444 1051 q 533 1107 522 1097 q 617 1174 614 1169 q 667 1150 646 1157 q 693 1138 693 1140 q 678 1122 693 1133 q 636 1097 660 1111 q 547 1053 613 1082 q 472 1028 508 1035 q 421 1021 436 1021 z "},"Ă":{"ha":956,"x_min":-47,"x_max":946,"o":"m -47 -11 l -26 31 q 72 53 50 40 q 103 82 88 63 q 132 132 118 101 l 417 739 q 444 826 444 797 q 443 840 444 833 q 442 853 442 846 q 447 865 442 860 q 458 876 453 871 q 540 938 499 911 l 549 935 q 580 819 560 894 q 626 653 600 744 q 681 467 653 561 q 733 291 708 374 q 776 153 758 208 q 800 86 794 99 q 838 49 813 60 q 903 33 863 39 q 924 32 914 32 q 946 32 935 32 l 924 -10 q 798 -4 843 -6 q 742 -3 753 -3 q 706 -3 732 -3 q 639 -6 679 -3 l 549 -10 l 543 -3 l 558 31 q 661 71 661 31 q 649 132 661 82 q 610 292 636 182 q 597 306 606 306 l 286 306 q 274 299 278 306 q 222 188 243 235 q 188 110 200 140 q 176 83 182 96 q 171 63 171 69 q 288 32 171 31 l 265 -10 q 199 -4 238 -6 q 113 -3 161 -3 q 24 -4 63 -3 q -47 -11 -15 -6 m 307 363 l 585 363 q 588 367 590 363 q 533 553 561 460 q 478 733 506 647 q 432 642 454 688 q 381 531 410 596 q 304 367 351 467 q 307 363 303 363 m 510 1021 q 372 1051 417 1021 q 321 1144 326 1081 l 399 1164 q 426 1103 404 1126 q 514 1081 447 1081 q 608 1094 571 1081 q 649 1154 644 1108 l 717 1172 q 697 1117 717 1138 q 650 1074 676 1097 q 599 1036 628 1051 q 510 1021 571 1021 z "},"Ắ":{"ha":956,"x_min":-47,"x_max":946,"o":"m -47 -11 l -26 31 q 72 53 50 40 q 103 82 88 63 q 132 132 118 101 l 417 739 q 444 826 444 797 q 443 840 444 833 q 442 853 442 846 q 447 865 442 860 q 458 876 453 871 q 540 938 499 911 l 549 935 q 580 819 560 894 q 626 653 600 744 q 681 467 653 561 q 733 291 708 374 q 776 153 758 208 q 800 86 794 99 q 838 49 813 60 q 903 33 863 39 q 924 32 914 32 q 946 32 935 32 l 924 -10 q 798 -4 843 -6 q 742 -3 753 -3 q 706 -3 732 -3 q 639 -6 679 -3 l 549 -10 l 543 -3 l 558 31 q 661 71 661 31 q 649 132 661 82 q 610 292 636 182 q 597 306 606 306 l 286 306 q 274 299 278 306 q 222 188 243 235 q 188 110 200 140 q 176 83 182 96 q 171 63 171 69 q 288 32 171 31 l 265 -10 q 199 -4 238 -6 q 113 -3 161 -3 q 24 -4 63 -3 q -47 -11 -15 -6 m 307 363 l 585 363 q 588 367 590 363 q 533 553 561 460 q 478 733 506 647 q 432 642 454 688 q 381 531 410 596 q 304 367 351 467 q 307 363 303 363 m 510 1021 q 372 1051 417 1021 q 321 1144 326 1081 l 399 1164 q 426 1103 404 1126 q 514 1081 447 1081 q 608 1094 571 1081 q 649 1154 644 1108 l 717 1172 q 697 1117 717 1138 q 650 1074 676 1097 q 599 1036 628 1051 q 510 1021 571 1021 m 424 1217 q 400 1229 400 1225 q 403 1232 400 1229 q 486 1270 447 1247 q 536 1303 525 1293 q 619 1369 617 1365 q 669 1346 649 1353 q 696 1333 696 1336 q 681 1318 696 1329 q 639 1292 663 1307 q 550 1249 615 1278 q 475 1224 511 1231 q 424 1217 439 1217 z "},"Ặ":{"ha":956,"x_min":-47,"x_max":946,"o":"m -47 -11 l -26 31 q 72 53 50 40 q 103 82 88 63 q 132 132 118 101 l 417 739 q 444 826 444 797 q 443 840 444 833 q 442 853 442 846 q 447 865 442 860 q 458 876 453 871 q 540 938 499 911 l 549 935 q 580 819 560 894 q 626 653 600 744 q 681 467 653 561 q 733 291 708 374 q 776 153 758 208 q 800 86 794 99 q 838 49 813 60 q 903 33 863 39 q 924 32 914 32 q 946 32 935 32 l 924 -10 q 798 -4 843 -6 q 742 -3 753 -3 q 706 -3 732 -3 q 639 -6 679 -3 l 549 -10 l 543 -3 l 558 31 q 661 71 661 31 q 649 132 661 82 q 610 292 636 182 q 597 306 606 306 l 286 306 q 274 299 278 306 q 222 188 243 235 q 188 110 200 140 q 176 83 182 96 q 171 63 171 69 q 288 32 171 31 l 265 -10 q 199 -4 238 -6 q 113 -3 161 -3 q 24 -4 63 -3 q -47 -11 -15 -6 m 307 363 l 585 363 q 588 367 590 363 q 533 553 561 460 q 478 733 506 647 q 432 642 454 688 q 381 531 410 596 q 304 367 351 467 q 307 363 303 363 m 418 -208 q 379 -187 403 -208 q 357 -157 357 -169 q 393 -119 357 -149 q 426 -99 421 -99 q 440 -106 433 -99 q 453 -113 447 -110 q 464 -119 458 -117 q 504 -129 482 -129 q 511 -135 511 -129 q 508 -144 513 -140 l 472 -175 q 418 -208 433 -208 m 510 1021 q 372 1051 417 1021 q 321 1144 326 1081 l 399 1164 q 426 1103 404 1126 q 514 1081 447 1081 q 608 1094 571 1081 q 649 1154 644 1108 l 717 1172 q 697 1117 717 1138 q 650 1074 676 1097 q 599 1036 628 1051 q 510 1021 571 1021 z "},"Ằ":{"ha":956,"x_min":-47,"x_max":946,"o":"m -47 -11 l -26 31 q 72 53 50 40 q 103 82 88 63 q 132 132 118 101 l 417 739 q 444 826 444 797 q 443 840 444 833 q 442 853 442 846 q 447 865 442 860 q 458 876 453 871 q 540 938 499 911 l 549 935 q 580 819 560 894 q 626 653 600 744 q 681 467 653 561 q 733 291 708 374 q 776 153 758 208 q 800 86 794 99 q 838 49 813 60 q 903 33 863 39 q 924 32 914 32 q 946 32 935 32 l 924 -10 q 798 -4 843 -6 q 742 -3 753 -3 q 706 -3 732 -3 q 639 -6 679 -3 l 549 -10 l 543 -3 l 558 31 q 661 71 661 31 q 649 132 661 82 q 610 292 636 182 q 597 306 606 306 l 286 306 q 274 299 278 306 q 222 188 243 235 q 188 110 200 140 q 176 83 182 96 q 171 63 171 69 q 288 32 171 31 l 265 -10 q 199 -4 238 -6 q 113 -3 161 -3 q 24 -4 63 -3 q -47 -11 -15 -6 m 307 363 l 585 363 q 588 367 590 363 q 533 553 561 460 q 478 733 506 647 q 432 642 454 688 q 381 531 410 596 q 304 367 351 467 q 307 363 303 363 m 510 1021 q 372 1051 417 1021 q 321 1144 326 1081 l 399 1164 q 426 1103 404 1126 q 514 1081 447 1081 q 608 1094 571 1081 q 649 1154 644 1108 l 717 1172 q 697 1117 717 1138 q 650 1074 676 1097 q 599 1036 628 1051 q 510 1021 571 1021 m 603 1217 q 552 1224 588 1217 q 476 1249 517 1231 q 388 1292 413 1278 q 346 1318 364 1307 q 331 1333 331 1329 q 357 1346 331 1336 q 407 1369 378 1353 q 490 1303 410 1365 q 541 1270 501 1293 q 624 1232 581 1247 q 626 1229 626 1229 q 603 1217 626 1225 z "},"Ẳ":{"ha":956,"x_min":-47,"x_max":946,"o":"m -47 -11 l -26 31 q 72 53 50 40 q 103 82 88 63 q 132 132 118 101 l 417 739 q 444 826 444 797 q 443 840 444 833 q 442 853 442 846 q 447 865 442 860 q 458 876 453 871 q 540 938 499 911 l 549 935 q 580 819 560 894 q 626 653 600 744 q 681 467 653 561 q 733 291 708 374 q 776 153 758 208 q 800 86 794 99 q 838 49 813 60 q 903 33 863 39 q 924 32 914 32 q 946 32 935 32 l 924 -10 q 798 -4 843 -6 q 742 -3 753 -3 q 706 -3 732 -3 q 639 -6 679 -3 l 549 -10 l 543 -3 l 558 31 q 661 71 661 31 q 649 132 661 82 q 610 292 636 182 q 597 306 606 306 l 286 306 q 274 299 278 306 q 222 188 243 235 q 188 110 200 140 q 176 83 182 96 q 171 63 171 69 q 288 32 171 31 l 265 -10 q 199 -4 238 -6 q 113 -3 161 -3 q 24 -4 63 -3 q -47 -11 -15 -6 m 307 363 l 585 363 q 588 367 590 363 q 533 553 561 460 q 478 733 506 647 q 432 642 454 688 q 381 531 410 596 q 304 367 351 467 q 307 363 303 363 m 510 1021 q 372 1051 417 1021 q 321 1144 326 1081 l 399 1164 q 426 1103 404 1126 q 514 1081 447 1081 q 608 1094 571 1081 q 649 1154 644 1108 l 717 1172 q 697 1117 717 1138 q 650 1074 676 1097 q 599 1036 628 1051 q 510 1021 571 1021 m 504 1217 q 502 1228 503 1222 q 501 1239 501 1233 q 513 1274 501 1263 q 534 1299 524 1286 q 544 1338 544 1311 q 538 1360 544 1349 q 511 1371 531 1371 q 483 1362 493 1371 q 471 1340 472 1353 l 449 1336 q 440 1357 447 1340 q 433 1375 433 1374 q 440 1386 433 1383 q 528 1413 483 1413 q 593 1394 567 1413 q 619 1350 619 1376 q 608 1301 619 1318 q 580 1274 596 1285 q 552 1252 564 1264 q 540 1217 540 1240 l 504 1217 z "},"Ẵ":{"ha":956,"x_min":-47,"x_max":946,"o":"m -47 -11 l -26 31 q 72 53 50 40 q 103 82 88 63 q 132 132 118 101 l 417 739 q 444 826 444 797 q 443 840 444 833 q 442 853 442 846 q 447 865 442 860 q 458 876 453 871 q 540 938 499 911 l 549 935 q 580 819 560 894 q 626 653 600 744 q 681 467 653 561 q 733 291 708 374 q 776 153 758 208 q 800 86 794 99 q 838 49 813 60 q 903 33 863 39 q 924 32 914 32 q 946 32 935 32 l 924 -10 q 798 -4 843 -6 q 742 -3 753 -3 q 706 -3 732 -3 q 639 -6 679 -3 l 549 -10 l 543 -3 l 558 31 q 661 71 661 31 q 649 132 661 82 q 610 292 636 182 q 597 306 606 306 l 286 306 q 274 299 278 306 q 222 188 243 235 q 188 110 200 140 q 176 83 182 96 q 171 63 171 69 q 288 32 171 31 l 265 -10 q 199 -4 238 -6 q 113 -3 161 -3 q 24 -4 63 -3 q -47 -11 -15 -6 m 307 363 l 585 363 q 588 367 590 363 q 533 553 561 460 q 478 733 506 647 q 432 642 454 688 q 381 531 410 596 q 304 367 351 467 q 307 363 303 363 m 510 1021 q 372 1051 417 1021 q 321 1144 326 1081 l 399 1164 q 426 1103 404 1126 q 514 1081 447 1081 q 608 1094 571 1081 q 649 1154 644 1108 l 717 1172 q 697 1117 717 1138 q 650 1074 676 1097 q 599 1036 628 1051 q 510 1021 571 1021 m 613 1217 q 546 1235 581 1217 q 479 1272 511 1254 q 422 1290 447 1290 q 383 1270 399 1290 q 357 1222 368 1250 l 328 1222 q 346 1286 328 1257 q 392 1333 364 1315 q 450 1351 421 1351 q 515 1335 483 1351 q 574 1301 546 1318 q 628 1285 603 1285 q 668 1305 651 1285 q 692 1349 685 1325 l 718 1349 q 684 1251 718 1285 q 613 1217 650 1217 z "},"Ǎ":{"ha":956,"x_min":-47,"x_max":946,"o":"m 388 1183 q 419 1172 397 1183 q 464 1144 440 1161 q 519 1103 504 1118 q 544 1076 533 1089 q 553 1076 549 1071 q 637 1147 611 1124 q 688 1179 663 1169 q 698 1181 690 1181 q 715 1181 706 1181 q 741 1181 728 1181 q 756 1179 754 1181 q 701 1141 738 1164 q 625 1088 665 1118 q 550 1024 585 1058 q 521 1019 536 1021 q 494 1018 506 1018 q 483 1019 485 1018 l 406 1083 q 369 1115 385 1101 q 347 1132 353 1128 q 321 1141 338 1139 q 294 1143 304 1143 l 299 1157 q 338 1167 313 1160 q 378 1182 363 1175 q 388 1183 381 1183 m -47 -11 l -26 31 q 72 53 50 40 q 103 82 88 63 q 132 132 118 101 l 417 739 q 444 826 444 797 q 443 840 444 833 q 442 853 442 846 q 447 865 442 860 q 458 876 453 871 q 540 938 499 911 l 549 935 q 580 819 560 894 q 626 653 600 744 q 681 467 653 561 q 733 291 708 374 q 776 153 758 208 q 800 86 794 99 q 838 49 813 60 q 903 33 863 39 q 924 32 914 32 q 946 32 935 32 l 924 -10 q 798 -4 843 -6 q 742 -3 753 -3 q 706 -3 732 -3 q 639 -6 679 -3 l 549 -10 l 543 -3 l 558 31 q 661 71 661 31 q 649 132 661 82 q 610 292 636 182 q 597 306 606 306 l 286 306 q 274 299 278 306 q 222 188 243 235 q 188 110 200 140 q 176 83 182 96 q 171 63 171 69 q 288 32 171 31 l 265 -10 q 199 -4 238 -6 q 113 -3 161 -3 q 24 -4 63 -3 q -47 -11 -15 -6 m 307 363 l 585 363 q 588 367 590 363 q 533 553 561 460 q 478 733 506 647 q 432 642 454 688 q 381 531 410 596 q 304 367 351 467 q 307 363 303 363 z "},"Â":{"ha":956,"x_min":-47,"x_max":946,"o":"m -47 -11 l -26 31 q 72 53 50 40 q 103 82 88 63 q 132 132 118 101 l 417 739 q 444 826 444 797 q 443 840 444 833 q 442 853 442 846 q 447 865 442 860 q 458 876 453 871 q 540 938 499 911 l 549 935 q 580 819 560 894 q 626 653 600 744 q 681 467 653 561 q 733 291 708 374 q 776 153 758 208 q 800 86 794 99 q 838 49 813 60 q 903 33 863 39 q 924 32 914 32 q 946 32 935 32 l 924 -10 q 798 -4 843 -6 q 742 -3 753 -3 q 706 -3 732 -3 q 639 -6 679 -3 l 549 -10 l 543 -3 l 558 31 q 661 71 661 31 q 649 132 661 82 q 610 292 636 182 q 597 306 606 306 l 286 306 q 274 299 278 306 q 222 188 243 235 q 188 110 200 140 q 176 83 182 96 q 171 63 171 69 q 288 32 171 31 l 265 -10 q 199 -4 238 -6 q 113 -3 161 -3 q 24 -4 63 -3 q -47 -11 -15 -6 m 307 363 l 585 363 q 588 367 590 363 q 533 553 561 460 q 478 733 506 647 q 432 642 454 688 q 381 531 410 596 q 304 367 351 467 q 307 363 303 363 m 683 1019 q 652 1031 674 1019 q 607 1058 631 1042 q 553 1100 568 1086 q 526 1126 538 1114 q 518 1126 522 1133 q 434 1057 460 1079 q 383 1024 408 1035 q 373 1022 381 1022 q 356 1022 365 1022 q 331 1022 343 1022 q 315 1024 318 1022 q 370 1062 335 1039 q 446 1115 406 1085 q 521 1179 486 1144 q 550 1183 535 1182 q 576 1185 565 1185 q 588 1183 586 1185 l 665 1119 q 702 1088 686 1101 q 724 1071 718 1075 q 750 1062 733 1064 q 776 1060 767 1060 l 772 1046 q 733 1035 758 1043 q 693 1021 708 1028 q 683 1019 690 1019 z "},"Ấ":{"ha":956,"x_min":-47,"x_max":1024,"o":"m -47 -11 l -26 31 q 72 53 50 40 q 103 82 88 63 q 132 132 118 101 l 417 739 q 444 826 444 797 q 443 840 444 833 q 442 853 442 846 q 447 865 442 860 q 458 876 453 871 q 540 938 499 911 l 549 935 q 580 819 560 894 q 626 653 600 744 q 681 467 653 561 q 733 291 708 374 q 776 153 758 208 q 800 86 794 99 q 838 49 813 60 q 903 33 863 39 q 924 32 914 32 q 946 32 935 32 l 924 -10 q 798 -4 843 -6 q 742 -3 753 -3 q 706 -3 732 -3 q 639 -6 679 -3 l 549 -10 l 543 -3 l 558 31 q 661 71 661 31 q 649 132 661 82 q 610 292 636 182 q 597 306 606 306 l 286 306 q 274 299 278 306 q 222 188 243 235 q 188 110 200 140 q 176 83 182 96 q 171 63 171 69 q 288 32 171 31 l 265 -10 q 199 -4 238 -6 q 113 -3 161 -3 q 24 -4 63 -3 q -47 -11 -15 -6 m 307 363 l 585 363 q 588 367 590 363 q 533 553 561 460 q 478 733 506 647 q 432 642 454 688 q 381 531 410 596 q 304 367 351 467 q 307 363 303 363 m 683 1019 q 652 1031 674 1019 q 607 1058 631 1042 q 553 1100 568 1086 q 526 1126 538 1114 q 518 1126 522 1133 q 434 1057 460 1079 q 383 1024 408 1035 q 373 1022 381 1022 q 356 1022 365 1022 q 331 1022 343 1022 q 315 1024 318 1022 q 370 1062 335 1039 q 446 1115 406 1085 q 521 1179 486 1144 q 550 1183 535 1182 q 576 1185 565 1185 q 588 1183 586 1185 l 665 1119 q 702 1088 686 1101 q 724 1071 718 1075 q 750 1062 733 1064 q 776 1060 767 1060 l 772 1046 q 733 1035 758 1043 q 693 1021 708 1028 q 683 1019 690 1019 m 751 1165 q 728 1178 728 1174 q 731 1181 728 1178 q 814 1219 775 1196 q 864 1251 853 1242 q 947 1318 944 1314 q 997 1294 976 1301 q 1024 1282 1024 1285 q 1008 1267 1024 1278 q 967 1241 990 1256 q 878 1197 943 1226 q 803 1172 839 1179 q 751 1165 767 1165 z "},"Ậ":{"ha":956,"x_min":-47,"x_max":946,"o":"m -47 -11 l -26 31 q 72 53 50 40 q 103 82 88 63 q 132 132 118 101 l 417 739 q 444 826 444 797 q 443 840 444 833 q 442 853 442 846 q 447 865 442 860 q 458 876 453 871 q 540 938 499 911 l 549 935 q 580 819 560 894 q 626 653 600 744 q 681 467 653 561 q 733 291 708 374 q 776 153 758 208 q 800 86 794 99 q 838 49 813 60 q 903 33 863 39 q 924 32 914 32 q 946 32 935 32 l 924 -10 q 798 -4 843 -6 q 742 -3 753 -3 q 706 -3 732 -3 q 639 -6 679 -3 l 549 -10 l 543 -3 l 558 31 q 661 71 661 31 q 649 132 661 82 q 610 292 636 182 q 597 306 606 306 l 286 306 q 274 299 278 306 q 222 188 243 235 q 188 110 200 140 q 176 83 182 96 q 171 63 171 69 q 288 32 171 31 l 265 -10 q 199 -4 238 -6 q 113 -3 161 -3 q 24 -4 63 -3 q -47 -11 -15 -6 m 307 363 l 585 363 q 588 367 590 363 q 533 553 561 460 q 478 733 506 647 q 432 642 454 688 q 381 531 410 596 q 304 367 351 467 q 307 363 303 363 m 418 -208 q 379 -187 403 -208 q 357 -157 357 -169 q 393 -119 357 -149 q 426 -99 421 -99 q 440 -106 433 -99 q 453 -113 447 -110 q 464 -119 458 -117 q 504 -129 482 -129 q 511 -135 511 -129 q 508 -144 513 -140 l 472 -175 q 418 -208 433 -208 m 683 1019 q 652 1031 674 1019 q 607 1058 631 1042 q 553 1100 568 1086 q 526 1126 538 1114 q 518 1126 522 1133 q 434 1057 460 1079 q 383 1024 408 1035 q 373 1022 381 1022 q 356 1022 365 1022 q 331 1022 343 1022 q 315 1024 318 1022 q 370 1062 335 1039 q 446 1115 406 1085 q 521 1179 486 1144 q 550 1183 535 1182 q 576 1185 565 1185 q 588 1183 586 1185 l 665 1119 q 702 1088 686 1101 q 724 1071 718 1075 q 750 1062 733 1064 q 776 1060 767 1060 l 772 1046 q 733 1035 758 1043 q 693 1021 708 1028 q 683 1019 690 1019 z "},"Ầ":{"ha":956,"x_min":-47,"x_max":946,"o":"m -47 -11 l -26 31 q 72 53 50 40 q 103 82 88 63 q 132 132 118 101 l 417 739 q 444 826 444 797 q 443 840 444 833 q 442 853 442 846 q 447 865 442 860 q 458 876 453 871 q 540 938 499 911 l 549 935 q 580 819 560 894 q 626 653 600 744 q 681 467 653 561 q 733 291 708 374 q 776 153 758 208 q 800 86 794 99 q 838 49 813 60 q 903 33 863 39 q 924 32 914 32 q 946 32 935 32 l 924 -10 q 798 -4 843 -6 q 742 -3 753 -3 q 706 -3 732 -3 q 639 -6 679 -3 l 549 -10 l 543 -3 l 558 31 q 661 71 661 31 q 649 132 661 82 q 610 292 636 182 q 597 306 606 306 l 286 306 q 274 299 278 306 q 222 188 243 235 q 188 110 200 140 q 176 83 182 96 q 171 63 171 69 q 288 32 171 31 l 265 -10 q 199 -4 238 -6 q 113 -3 161 -3 q 24 -4 63 -3 q -47 -11 -15 -6 m 307 363 l 585 363 q 588 367 590 363 q 533 553 561 460 q 478 733 506 647 q 432 642 454 688 q 381 531 410 596 q 304 367 351 467 q 307 363 303 363 m 683 1019 q 652 1031 674 1019 q 607 1058 631 1042 q 553 1100 568 1086 q 526 1126 538 1114 q 518 1126 522 1133 q 434 1057 460 1079 q 383 1024 408 1035 q 373 1022 381 1022 q 356 1022 365 1022 q 331 1022 343 1022 q 315 1024 318 1022 q 370 1062 335 1039 q 446 1115 406 1085 q 521 1179 486 1144 q 550 1183 535 1182 q 576 1185 565 1185 q 588 1183 586 1185 l 665 1119 q 702 1088 686 1101 q 724 1071 718 1075 q 750 1062 733 1064 q 776 1060 767 1060 l 772 1046 q 733 1035 758 1043 q 693 1021 708 1028 q 683 1019 690 1019 m 718 1228 q 667 1235 703 1228 q 592 1260 632 1242 q 503 1303 528 1289 q 461 1329 479 1318 q 446 1344 446 1340 q 472 1357 446 1347 q 522 1381 493 1364 q 606 1314 525 1376 q 656 1281 617 1304 q 739 1243 696 1258 q 742 1240 742 1240 q 718 1228 742 1236 z "},"Ẩ":{"ha":956,"x_min":-47,"x_max":946,"o":"m -47 -11 l -26 31 q 72 53 50 40 q 103 82 88 63 q 132 132 118 101 l 417 739 q 444 826 444 797 q 443 840 444 833 q 442 853 442 846 q 447 865 442 860 q 458 876 453 871 q 540 938 499 911 l 549 935 q 580 819 560 894 q 626 653 600 744 q 681 467 653 561 q 733 291 708 374 q 776 153 758 208 q 800 86 794 99 q 838 49 813 60 q 903 33 863 39 q 924 32 914 32 q 946 32 935 32 l 924 -10 q 798 -4 843 -6 q 742 -3 753 -3 q 706 -3 732 -3 q 639 -6 679 -3 l 549 -10 l 543 -3 l 558 31 q 661 71 661 31 q 649 132 661 82 q 610 292 636 182 q 597 306 606 306 l 286 306 q 274 299 278 306 q 222 188 243 235 q 188 110 200 140 q 176 83 182 96 q 171 63 171 69 q 288 32 171 31 l 265 -10 q 199 -4 238 -6 q 113 -3 161 -3 q 24 -4 63 -3 q -47 -11 -15 -6 m 307 363 l 585 363 q 588 367 590 363 q 533 553 561 460 q 478 733 506 647 q 432 642 454 688 q 381 531 410 596 q 304 367 351 467 q 307 363 303 363 m 683 1019 q 652 1031 674 1019 q 607 1058 631 1042 q 553 1100 568 1086 q 526 1126 538 1114 q 518 1126 522 1133 q 434 1057 460 1079 q 383 1024 408 1035 q 373 1022 381 1022 q 356 1022 365 1022 q 331 1022 343 1022 q 315 1024 318 1022 q 370 1062 335 1039 q 446 1115 406 1085 q 521 1179 486 1144 q 550 1183 535 1182 q 576 1185 565 1185 q 588 1183 586 1185 l 665 1119 q 702 1088 686 1101 q 724 1071 718 1075 q 750 1062 733 1064 q 776 1060 767 1060 l 772 1046 q 733 1035 758 1043 q 693 1021 708 1028 q 683 1019 690 1019 m 729 1169 q 727 1181 728 1175 q 726 1192 726 1186 q 738 1227 726 1215 q 759 1251 749 1239 q 769 1290 769 1264 q 763 1313 769 1301 q 736 1324 756 1324 q 708 1315 718 1324 q 696 1293 697 1306 l 674 1289 q 665 1310 672 1293 q 658 1328 658 1326 q 665 1339 658 1336 q 753 1365 708 1365 q 818 1347 792 1365 q 844 1303 844 1329 q 833 1254 844 1271 q 805 1227 821 1238 q 777 1205 789 1217 q 765 1169 765 1193 l 729 1169 z "},"Ẫ":{"ha":956,"x_min":-47,"x_max":946,"o":"m -47 -11 l -26 31 q 72 53 50 40 q 103 82 88 63 q 132 132 118 101 l 417 739 q 444 826 444 797 q 443 840 444 833 q 442 853 442 846 q 447 865 442 860 q 458 876 453 871 q 540 938 499 911 l 549 935 q 580 819 560 894 q 626 653 600 744 q 681 467 653 561 q 733 291 708 374 q 776 153 758 208 q 800 86 794 99 q 838 49 813 60 q 903 33 863 39 q 924 32 914 32 q 946 32 935 32 l 924 -10 q 798 -4 843 -6 q 742 -3 753 -3 q 706 -3 732 -3 q 639 -6 679 -3 l 549 -10 l 543 -3 l 558 31 q 661 71 661 31 q 649 132 661 82 q 610 292 636 182 q 597 306 606 306 l 286 306 q 274 299 278 306 q 222 188 243 235 q 188 110 200 140 q 176 83 182 96 q 171 63 171 69 q 288 32 171 31 l 265 -10 q 199 -4 238 -6 q 113 -3 161 -3 q 24 -4 63 -3 q -47 -11 -15 -6 m 307 363 l 585 363 q 588 367 590 363 q 533 553 561 460 q 478 733 506 647 q 432 642 454 688 q 381 531 410 596 q 304 367 351 467 q 307 363 303 363 m 683 1019 q 652 1031 674 1019 q 607 1058 631 1042 q 553 1100 568 1086 q 526 1126 538 1114 q 518 1126 522 1133 q 434 1057 460 1079 q 383 1024 408 1035 q 373 1022 381 1022 q 356 1022 365 1022 q 331 1022 343 1022 q 315 1024 318 1022 q 370 1062 335 1039 q 446 1115 406 1085 q 521 1179 486 1144 q 550 1183 535 1182 q 576 1185 565 1185 q 588 1183 586 1185 l 665 1119 q 702 1088 686 1101 q 724 1071 718 1075 q 750 1062 733 1064 q 776 1060 767 1060 l 772 1046 q 733 1035 758 1043 q 693 1021 708 1028 q 683 1019 690 1019 m 674 1229 q 607 1248 642 1229 q 540 1285 572 1267 q 483 1303 508 1303 q 444 1283 460 1303 q 418 1235 429 1263 l 389 1235 q 407 1299 389 1269 q 453 1346 425 1328 q 511 1364 482 1364 q 576 1347 544 1364 q 635 1314 607 1331 q 689 1297 664 1297 q 729 1317 713 1297 q 753 1361 746 1338 l 779 1361 q 745 1263 779 1297 q 674 1229 711 1229 z "},"Ȁ":{"ha":956,"x_min":-47,"x_max":946,"o":"m -47 -11 l -26 31 q 72 53 50 40 q 103 82 88 63 q 132 132 118 101 l 417 739 q 444 826 444 797 q 443 840 444 833 q 442 853 442 846 q 447 865 442 860 q 458 876 453 871 q 540 938 499 911 l 549 935 q 580 819 560 894 q 626 653 600 744 q 681 467 653 561 q 733 291 708 374 q 776 153 758 208 q 800 86 794 99 q 838 49 813 60 q 903 33 863 39 q 924 32 914 32 q 946 32 935 32 l 924 -10 q 798 -4 843 -6 q 742 -3 753 -3 q 706 -3 732 -3 q 639 -6 679 -3 l 549 -10 l 543 -3 l 558 31 q 661 71 661 31 q 649 132 661 82 q 610 292 636 182 q 597 306 606 306 l 286 306 q 274 299 278 306 q 222 188 243 235 q 188 110 200 140 q 176 83 182 96 q 171 63 171 69 q 288 32 171 31 l 265 -10 q 199 -4 238 -6 q 113 -3 161 -3 q 24 -4 63 -3 q -47 -11 -15 -6 m 307 363 l 585 363 q 588 367 590 363 q 533 553 561 460 q 478 733 506 647 q 432 642 454 688 q 381 531 410 596 q 304 367 351 467 q 307 363 303 363 m 597 1024 q 489 1068 565 1028 q 376 1138 410 1107 q 363 1154 363 1147 q 390 1163 363 1156 q 443 1179 413 1167 q 458 1163 446 1176 q 497 1124 471 1149 q 544 1086 508 1115 q 619 1035 579 1057 q 622 1032 622 1032 q 597 1024 622 1028 m 458 1021 q 344 1050 426 1021 q 224 1103 261 1078 q 208 1118 208 1114 q 235 1131 208 1121 q 285 1154 256 1138 q 346 1107 289 1147 q 397 1076 357 1100 q 479 1036 436 1051 q 482 1033 482 1033 q 458 1021 482 1029 z "},"Ä":{"ha":956,"x_min":-47,"x_max":946,"o":"m -47 -11 l -26 31 q 72 53 50 40 q 103 82 88 63 q 132 132 118 101 l 417 739 q 444 826 444 797 q 443 840 444 833 q 442 853 442 846 q 447 865 442 860 q 458 876 453 871 q 540 938 499 911 l 549 935 q 580 819 560 894 q 626 653 600 744 q 681 467 653 561 q 733 291 708 374 q 776 153 758 208 q 800 86 794 99 q 838 49 813 60 q 903 33 863 39 q 924 32 914 32 q 946 32 935 32 l 924 -10 q 798 -4 843 -6 q 742 -3 753 -3 q 706 -3 732 -3 q 639 -6 679 -3 l 549 -10 l 543 -3 l 558 31 q 661 71 661 31 q 649 132 661 82 q 610 292 636 182 q 597 306 606 306 l 286 306 q 274 299 278 306 q 222 188 243 235 q 188 110 200 140 q 176 83 182 96 q 171 63 171 69 q 288 32 171 31 l 265 -10 q 199 -4 238 -6 q 113 -3 161 -3 q 24 -4 63 -3 q -47 -11 -15 -6 m 307 363 l 585 363 q 588 367 590 363 q 533 553 561 460 q 478 733 506 647 q 432 642 454 688 q 381 531 410 596 q 304 367 351 467 q 307 363 303 363 m 400 1021 q 361 1042 385 1021 q 339 1072 339 1060 q 375 1110 339 1081 q 408 1131 403 1131 q 422 1124 415 1131 q 435 1116 429 1119 q 446 1110 440 1113 q 486 1100 464 1100 q 493 1094 493 1100 q 490 1085 494 1089 l 454 1054 q 400 1021 415 1021 m 621 1021 q 582 1042 606 1021 q 561 1072 561 1061 q 596 1110 561 1081 q 631 1131 624 1131 q 643 1124 636 1131 q 656 1116 650 1119 q 667 1110 661 1113 q 707 1100 685 1100 q 715 1094 714 1100 q 711 1085 715 1089 q 699 1074 708 1082 q 675 1054 690 1067 q 621 1021 633 1021 z "},"Ạ":{"ha":956,"x_min":-47,"x_max":946,"o":"m -47 -11 l -26 31 q 72 53 50 40 q 103 82 88 63 q 132 132 118 101 l 417 739 q 444 826 444 797 q 443 840 444 833 q 442 853 442 846 q 447 865 442 860 q 458 876 453 871 q 540 938 499 911 l 549 935 q 580 819 560 894 q 626 653 600 744 q 681 467 653 561 q 733 291 708 374 q 776 153 758 208 q 800 86 794 99 q 838 49 813 60 q 903 33 863 39 q 924 32 914 32 q 946 32 935 32 l 924 -10 q 798 -4 843 -6 q 742 -3 753 -3 q 706 -3 732 -3 q 639 -6 679 -3 l 549 -10 l 543 -3 l 558 31 q 661 71 661 31 q 649 132 661 82 q 610 292 636 182 q 597 306 606 306 l 286 306 q 274 299 278 306 q 222 188 243 235 q 188 110 200 140 q 176 83 182 96 q 171 63 171 69 q 288 32 171 31 l 265 -10 q 199 -4 238 -6 q 113 -3 161 -3 q 24 -4 63 -3 q -47 -11 -15 -6 m 307 363 l 585 363 q 588 367 590 363 q 533 553 561 460 q 478 733 506 647 q 432 642 454 688 q 381 531 410 596 q 304 367 351 467 q 307 363 303 363 m 418 -208 q 379 -187 403 -208 q 357 -157 357 -169 q 393 -119 357 -149 q 426 -99 421 -99 q 440 -106 433 -99 q 453 -113 447 -110 q 464 -119 458 -117 q 504 -129 482 -129 q 511 -135 511 -129 q 508 -144 513 -140 l 472 -175 q 418 -208 433 -208 z "},"À":{"ha":956,"x_min":-47,"x_max":946,"o":"m -47 -11 l -26 31 q 72 53 50 40 q 103 82 88 63 q 132 132 118 101 l 417 739 q 444 826 444 797 q 443 840 444 833 q 442 853 442 846 q 447 865 442 860 q 458 876 453 871 q 540 938 499 911 l 549 935 q 580 819 560 894 q 626 653 600 744 q 681 467 653 561 q 733 291 708 374 q 776 153 758 208 q 800 86 794 99 q 838 49 813 60 q 903 33 863 39 q 924 32 914 32 q 946 32 935 32 l 924 -10 q 798 -4 843 -6 q 742 -3 753 -3 q 706 -3 732 -3 q 639 -6 679 -3 l 549 -10 l 543 -3 l 558 31 q 661 71 661 31 q 649 132 661 82 q 610 292 636 182 q 597 306 606 306 l 286 306 q 274 299 278 306 q 222 188 243 235 q 188 110 200 140 q 176 83 182 96 q 171 63 171 69 q 288 32 171 31 l 265 -10 q 199 -4 238 -6 q 113 -3 161 -3 q 24 -4 63 -3 q -47 -11 -15 -6 m 307 363 l 585 363 q 588 367 590 363 q 533 553 561 460 q 478 733 506 647 q 432 642 454 688 q 381 531 410 596 q 304 367 351 467 q 307 363 303 363 m 600 1021 q 549 1028 585 1021 q 474 1053 514 1035 q 385 1097 410 1082 q 343 1122 361 1111 q 328 1138 328 1133 q 354 1150 328 1140 q 404 1174 375 1157 q 488 1107 407 1169 q 538 1074 499 1097 q 621 1036 578 1051 q 624 1033 624 1033 q 600 1021 624 1029 z "},"Ả":{"ha":956,"x_min":-47,"x_max":946,"o":"m -47 -11 l -26 31 q 72 53 50 40 q 103 82 88 63 q 132 132 118 101 l 417 739 q 444 826 444 797 q 443 840 444 833 q 442 853 442 846 q 447 865 442 860 q 458 876 453 871 q 540 938 499 911 l 549 935 q 580 819 560 894 q 626 653 600 744 q 681 467 653 561 q 733 291 708 374 q 776 153 758 208 q 800 86 794 99 q 838 49 813 60 q 903 33 863 39 q 924 32 914 32 q 946 32 935 32 l 924 -10 q 798 -4 843 -6 q 742 -3 753 -3 q 706 -3 732 -3 q 639 -6 679 -3 l 549 -10 l 543 -3 l 558 31 q 661 71 661 31 q 649 132 661 82 q 610 292 636 182 q 597 306 606 306 l 286 306 q 274 299 278 306 q 222 188 243 235 q 188 110 200 140 q 176 83 182 96 q 171 63 171 69 q 288 32 171 31 l 265 -10 q 199 -4 238 -6 q 113 -3 161 -3 q 24 -4 63 -3 q -47 -11 -15 -6 m 307 363 l 585 363 q 588 367 590 363 q 533 553 561 460 q 478 733 506 647 q 432 642 454 688 q 381 531 410 596 q 304 367 351 467 q 307 363 303 363 m 501 1021 q 499 1032 500 1026 q 499 1043 499 1038 q 510 1078 499 1067 q 531 1103 521 1090 q 542 1142 542 1115 q 535 1164 542 1153 q 508 1175 528 1175 q 480 1166 490 1175 q 468 1144 469 1157 l 446 1140 q 438 1161 444 1144 q 431 1179 431 1178 q 438 1190 431 1188 q 525 1217 481 1217 q 590 1199 564 1217 q 617 1154 617 1181 q 605 1106 617 1122 q 577 1078 593 1089 q 549 1056 561 1068 q 538 1021 538 1044 l 501 1021 z "},"Ȃ":{"ha":956,"x_min":-47,"x_max":946,"o":"m 533 1163 q 672 1133 628 1163 q 722 1039 717 1103 l 644 1019 q 617 1080 639 1057 q 529 1103 596 1103 q 435 1089 472 1103 q 394 1029 399 1075 l 326 1011 q 347 1067 326 1047 q 393 1110 367 1086 q 445 1147 417 1132 q 533 1163 474 1163 m -47 -11 l -26 31 q 72 53 50 40 q 103 82 88 63 q 132 132 118 101 l 417 739 q 444 826 444 797 q 443 840 444 833 q 442 853 442 846 q 447 865 442 860 q 458 876 453 871 q 540 938 499 911 l 549 935 q 580 819 560 894 q 626 653 600 744 q 681 467 653 561 q 733 291 708 374 q 776 153 758 208 q 800 86 794 99 q 838 49 813 60 q 903 33 863 39 q 924 32 914 32 q 946 32 935 32 l 924 -10 q 798 -4 843 -6 q 742 -3 753 -3 q 706 -3 732 -3 q 639 -6 679 -3 l 549 -10 l 543 -3 l 558 31 q 661 71 661 31 q 649 132 661 82 q 610 292 636 182 q 597 306 606 306 l 286 306 q 274 299 278 306 q 222 188 243 235 q 188 110 200 140 q 176 83 182 96 q 171 63 171 69 q 288 32 171 31 l 265 -10 q 199 -4 238 -6 q 113 -3 161 -3 q 24 -4 63 -3 q -47 -11 -15 -6 m 307 363 l 585 363 q 588 367 590 363 q 533 553 561 460 q 478 733 506 647 q 432 642 454 688 q 381 531 410 596 q 304 367 351 467 q 307 363 303 363 z "},"Ā":{"ha":956,"x_min":-47,"x_max":946,"o":"m -47 -11 l -26 31 q 72 53 50 40 q 103 82 88 63 q 132 132 118 101 l 417 739 q 444 826 444 797 q 443 840 444 833 q 442 853 442 846 q 447 865 442 860 q 458 876 453 871 q 540 938 499 911 l 549 935 q 580 819 560 894 q 626 653 600 744 q 681 467 653 561 q 733 291 708 374 q 776 153 758 208 q 800 86 794 99 q 838 49 813 60 q 903 33 863 39 q 924 32 914 32 q 946 32 935 32 l 924 -10 q 798 -4 843 -6 q 742 -3 753 -3 q 706 -3 732 -3 q 639 -6 679 -3 l 549 -10 l 543 -3 l 558 31 q 661 71 661 31 q 649 132 661 82 q 610 292 636 182 q 597 306 606 306 l 286 306 q 274 299 278 306 q 222 188 243 235 q 188 110 200 140 q 176 83 182 96 q 171 63 171 69 q 288 32 171 31 l 265 -10 q 199 -4 238 -6 q 113 -3 161 -3 q 24 -4 63 -3 q -47 -11 -15 -6 m 307 363 l 585 363 q 588 367 590 363 q 533 553 561 460 q 478 733 506 647 q 432 642 454 688 q 381 531 410 596 q 304 367 351 467 q 307 363 303 363 m 683 1021 q 614 1032 663 1028 q 521 1036 565 1036 q 465 1035 500 1036 q 393 1031 431 1033 q 324 1024 356 1029 q 322 1026 322 1024 q 333 1071 322 1038 q 354 1100 346 1103 q 396 1092 368 1096 q 457 1088 424 1089 q 518 1085 490 1086 q 570 1086 538 1085 q 631 1090 603 1088 q 692 1096 674 1094 q 713 1097 710 1097 q 714 1094 714 1097 q 703 1051 714 1082 q 683 1021 690 1018 z "},"Ą":{"ha":956,"x_min":-47,"x_max":946,"o":"m -47 -11 l -26 31 q 72 53 50 40 q 103 82 88 63 q 132 132 118 101 l 417 739 q 444 826 444 797 q 443 840 444 833 q 442 853 442 846 q 447 865 442 860 q 458 876 453 871 q 540 938 499 911 l 549 935 q 580 819 560 894 q 626 653 600 744 q 681 467 653 561 q 733 291 708 374 q 776 153 758 208 q 800 86 794 99 q 838 49 813 60 q 903 33 863 39 q 924 32 914 32 q 946 32 935 32 l 924 -10 q 798 -4 843 -6 q 742 -3 753 -3 q 706 -3 732 -3 q 639 -6 679 -3 l 549 -10 l 543 -3 l 558 31 q 661 71 661 31 q 649 132 661 82 q 610 292 636 182 q 597 306 606 306 l 286 306 q 274 299 278 306 q 222 188 243 235 q 188 110 200 140 q 176 83 182 96 q 171 63 171 69 q 288 32 171 31 l 265 -10 q 199 -4 238 -6 q 113 -3 161 -3 q 24 -4 63 -3 q -47 -11 -15 -6 m 307 363 l 585 363 q 588 367 590 363 q 533 553 561 460 q 478 733 506 647 q 432 642 454 688 q 381 531 410 596 q 304 367 351 467 q 307 363 303 363 m 714 -258 q 637 -230 667 -258 q 607 -154 607 -201 q 634 -85 607 -118 q 699 -26 661 -51 q 767 14 736 0 l 811 14 q 774 -14 796 4 q 726 -56 751 -32 q 692 -103 703 -78 q 681 -151 681 -128 q 695 -195 681 -178 q 736 -212 710 -212 q 768 -207 753 -212 q 801 -191 789 -200 q 829 -172 813 -182 l 829 -210 q 781 -243 813 -228 q 714 -258 749 -258 z "},"Å":{"ha":956,"x_min":-47,"x_max":946,"o":"m -47 -11 l -26 31 q 72 53 50 40 q 103 82 88 63 q 132 132 118 101 l 417 739 q 444 826 444 797 q 443 840 444 833 q 442 853 442 846 q 447 865 442 860 q 458 876 453 871 q 540 938 499 911 l 549 935 q 580 819 560 894 q 626 653 600 744 q 681 467 653 561 q 733 291 708 374 q 776 153 758 208 q 800 86 794 99 q 838 49 813 60 q 903 33 863 39 q 924 32 914 32 q 946 32 935 32 l 924 -10 q 798 -4 843 -6 q 742 -3 753 -3 q 706 -3 732 -3 q 639 -6 679 -3 l 549 -10 l 543 -3 l 558 31 q 661 71 661 31 q 649 132 661 82 q 610 292 636 182 q 597 306 606 306 l 286 306 q 274 299 278 306 q 222 188 243 235 q 188 110 200 140 q 176 83 182 96 q 171 63 171 69 q 288 32 171 31 l 265 -10 q 199 -4 238 -6 q 113 -3 161 -3 q 24 -4 63 -3 q -47 -11 -15 -6 m 307 363 l 585 363 q 588 367 590 363 q 533 553 561 460 q 478 733 506 647 q 432 642 454 688 q 381 531 410 596 q 304 367 351 467 q 307 363 303 363 m 514 996 q 425 1026 454 996 q 396 1096 396 1057 q 429 1173 396 1138 q 526 1208 463 1208 q 612 1178 583 1208 q 640 1110 640 1147 q 608 1032 640 1068 q 514 996 575 996 m 518 1031 q 555 1053 540 1031 q 569 1106 569 1075 q 556 1153 569 1133 q 519 1174 542 1174 q 483 1153 497 1174 q 468 1100 468 1132 q 482 1051 468 1072 q 518 1031 496 1031 z "},"Ǻ":{"ha":956,"x_min":-47,"x_max":946,"o":"m -47 -11 l -26 31 q 72 53 50 40 q 103 82 88 63 q 132 132 118 101 l 417 739 q 444 826 444 797 q 443 840 444 833 q 442 853 442 846 q 447 865 442 860 q 458 876 453 871 q 540 938 499 911 l 549 935 q 580 819 560 894 q 626 653 600 744 q 681 467 653 561 q 733 291 708 374 q 776 153 758 208 q 800 86 794 99 q 838 49 813 60 q 903 33 863 39 q 924 32 914 32 q 946 32 935 32 l 924 -10 q 798 -4 843 -6 q 742 -3 753 -3 q 706 -3 732 -3 q 639 -6 679 -3 l 549 -10 l 543 -3 l 558 31 q 661 71 661 31 q 649 132 661 82 q 610 292 636 182 q 597 306 606 306 l 286 306 q 274 299 278 306 q 222 188 243 235 q 188 110 200 140 q 176 83 182 96 q 171 63 171 69 q 288 32 171 31 l 265 -10 q 199 -4 238 -6 q 113 -3 161 -3 q 24 -4 63 -3 q -47 -11 -15 -6 m 307 363 l 585 363 q 588 367 590 363 q 533 553 561 460 q 478 733 506 647 q 432 642 454 688 q 381 531 410 596 q 304 367 351 467 q 307 363 303 363 m 514 996 q 425 1026 454 996 q 396 1096 396 1057 q 429 1173 396 1138 q 526 1208 463 1208 q 612 1178 583 1208 q 640 1110 640 1147 q 608 1032 640 1068 q 514 996 575 996 m 518 1031 q 555 1053 540 1031 q 569 1106 569 1075 q 556 1153 569 1133 q 519 1174 542 1174 q 483 1153 497 1174 q 468 1100 468 1132 q 482 1051 468 1072 q 518 1031 496 1031 m 472 1240 q 449 1253 449 1249 q 451 1256 449 1253 q 535 1294 496 1271 q 585 1326 574 1317 q 668 1393 665 1389 q 718 1369 697 1376 q 744 1357 744 1360 q 729 1342 744 1353 q 688 1316 711 1331 q 599 1272 664 1301 q 524 1247 560 1254 q 472 1240 488 1240 z "},"Ã":{"ha":956,"x_min":-47,"x_max":946,"o":"m -47 -11 l -26 31 q 72 53 50 40 q 103 82 88 63 q 132 132 118 101 l 417 739 q 444 826 444 797 q 443 840 444 833 q 442 853 442 846 q 447 865 442 860 q 458 876 453 871 q 540 938 499 911 l 549 935 q 580 819 560 894 q 626 653 600 744 q 681 467 653 561 q 733 291 708 374 q 776 153 758 208 q 800 86 794 99 q 838 49 813 60 q 903 33 863 39 q 924 32 914 32 q 946 32 935 32 l 924 -10 q 798 -4 843 -6 q 742 -3 753 -3 q 706 -3 732 -3 q 639 -6 679 -3 l 549 -10 l 543 -3 l 558 31 q 661 71 661 31 q 649 132 661 82 q 610 292 636 182 q 597 306 606 306 l 286 306 q 274 299 278 306 q 222 188 243 235 q 188 110 200 140 q 176 83 182 96 q 171 63 171 69 q 288 32 171 31 l 265 -10 q 199 -4 238 -6 q 113 -3 161 -3 q 24 -4 63 -3 q -47 -11 -15 -6 m 307 363 l 585 363 q 588 367 590 363 q 533 553 561 460 q 478 733 506 647 q 432 642 454 688 q 381 531 410 596 q 304 367 351 467 q 307 363 303 363 m 610 1021 q 543 1040 578 1021 q 476 1076 508 1058 q 419 1094 444 1094 q 381 1074 396 1094 q 354 1026 365 1054 l 325 1026 q 343 1090 325 1061 q 390 1138 361 1119 q 447 1156 418 1156 q 512 1139 481 1156 q 572 1106 543 1122 q 625 1089 600 1089 q 665 1109 649 1089 q 689 1153 682 1129 l 715 1153 q 681 1055 715 1089 q 610 1021 647 1021 z "},"B":{"ha":936,"x_min":7,"x_max":846,"o":"m 7 -11 l 29 31 q 124 45 90 31 q 168 89 157 60 q 188 193 178 117 q 206 393 197 269 q 219 635 215 533 q 222 796 222 736 q 211 875 222 851 q 146 899 200 899 q 89 890 121 899 l 111 932 q 206 924 160 926 q 297 922 253 922 q 414 926 356 922 q 452 928 433 928 q 488 929 471 929 q 697 879 626 929 q 754 758 754 839 q 704 614 754 676 q 611 539 669 567 q 813 444 756 524 q 846 317 846 399 q 815 174 846 236 q 726 68 785 113 q 465 -6 624 -6 q 435 -5 458 -6 q 359 -2 413 -4 q 204 1 306 0 q 7 -11 144 1 m 463 35 q 646 101 574 35 q 728 303 728 175 q 675 444 728 394 q 522 500 621 500 l 397 500 l 426 542 l 454 542 q 551 568 500 542 q 629 635 604 593 q 654 725 654 676 q 606 834 654 794 q 485 874 557 874 q 400 869 417 874 q 357 836 363 861 q 328 560 340 747 l 314 360 q 308 250 311 313 q 306 139 306 188 q 306 111 306 124 q 307 89 306 99 q 356 39 308 51 q 463 35 375 35 z "},"C":{"ha":1010,"x_min":39,"x_max":992,"o":"m 547 -18 q 231 61 360 -18 q 115 169 157 106 q 56 307 74 233 q 39 454 39 381 q 87 669 39 586 q 213 813 135 751 q 399 907 296 879 q 618 935 503 935 q 992 868 821 935 l 982 849 q 936 772 964 858 q 911 656 915 703 q 910 639 911 650 l 879 646 q 883 665 882 657 q 885 682 883 674 q 865 771 888 739 q 775 832 844 803 q 567 868 692 868 q 293 783 394 868 q 201 645 226 728 q 175 472 175 563 q 264 186 175 300 q 547 54 367 54 q 722 76 629 54 q 918 143 815 97 l 915 107 q 822 54 857 74 q 775 29 788 35 q 547 -18 661 -18 z "},"Ć":{"ha":1010,"x_min":39,"x_max":992,"o":"m 547 -18 q 231 61 360 -18 q 115 169 157 106 q 56 307 74 233 q 39 454 39 381 q 87 669 39 586 q 213 813 135 751 q 399 907 296 879 q 618 935 503 935 q 992 868 821 935 l 982 849 q 936 772 964 858 q 911 656 915 703 q 910 639 911 650 l 879 646 q 883 665 882 657 q 885 682 883 674 q 865 771 888 739 q 775 832 844 803 q 567 868 692 868 q 293 783 394 868 q 201 645 226 728 q 175 472 175 563 q 264 186 175 300 q 547 54 367 54 q 722 76 629 54 q 918 143 815 97 l 915 107 q 822 54 857 74 q 775 29 788 35 q 547 -18 661 -18 m 497 1021 q 474 1033 474 1029 q 476 1036 474 1033 q 560 1074 521 1051 q 610 1107 599 1097 q 693 1174 690 1169 q 743 1150 722 1157 q 769 1138 769 1140 q 754 1122 769 1133 q 713 1097 736 1111 q 624 1053 689 1082 q 549 1028 585 1035 q 497 1021 513 1021 z "},"Č":{"ha":1010,"x_min":39,"x_max":992,"o":"m 464 1183 q 495 1172 474 1183 q 540 1144 517 1161 q 595 1103 581 1118 q 621 1076 610 1089 q 629 1076 625 1071 q 713 1147 688 1124 q 764 1179 739 1169 q 774 1181 767 1181 q 792 1181 782 1181 q 817 1181 804 1181 q 832 1179 831 1181 q 778 1141 814 1164 q 701 1088 742 1118 q 626 1024 661 1058 q 597 1019 613 1021 q 571 1018 582 1018 q 560 1019 561 1018 l 482 1083 q 445 1115 461 1101 q 424 1132 429 1128 q 397 1141 414 1139 q 371 1143 381 1143 l 375 1157 q 414 1167 389 1160 q 454 1182 439 1175 q 464 1183 457 1183 m 547 -18 q 231 61 360 -18 q 115 169 157 106 q 56 307 74 233 q 39 454 39 381 q 87 669 39 586 q 213 813 135 751 q 399 907 296 879 q 618 935 503 935 q 992 868 821 935 l 982 849 q 936 772 964 858 q 911 656 915 703 q 910 639 911 650 l 879 646 q 883 665 882 657 q 885 682 883 674 q 865 771 888 739 q 775 832 844 803 q 567 868 692 868 q 293 783 394 868 q 201 645 226 728 q 175 472 175 563 q 264 186 175 300 q 547 54 367 54 q 722 76 629 54 q 918 143 815 97 l 915 107 q 822 54 857 74 q 775 29 788 35 q 547 -18 661 -18 z "},"Ç":{"ha":1010,"x_min":39,"x_max":992,"o":"m 547 -18 q 231 61 360 -18 q 115 169 157 106 q 56 307 74 233 q 39 454 39 381 q 87 669 39 586 q 213 813 135 751 q 399 907 296 879 q 618 935 503 935 q 992 868 821 935 l 982 849 q 936 772 964 858 q 911 656 915 703 q 910 639 911 650 l 879 646 q 883 665 882 657 q 885 682 883 674 q 865 771 888 739 q 775 832 844 803 q 567 868 692 868 q 293 783 394 868 q 201 645 226 728 q 175 472 175 563 q 264 186 175 300 q 547 54 367 54 q 722 76 629 54 q 918 143 815 97 l 915 107 q 822 54 857 74 q 775 29 788 35 q 547 -18 661 -18 m 474 -297 q 429 -278 440 -297 q 422 -228 422 -267 l 450 -211 q 459 -248 444 -232 q 496 -264 474 -264 q 552 -240 535 -264 q 569 -172 569 -215 q 544 -123 569 -136 q 490 -110 519 -110 q 468 -111 479 -110 q 447 -115 457 -112 l 442 -94 q 476 -59 454 -83 q 517 -10 497 -35 q 542 28 536 15 l 582 28 q 557 -3 574 21 q 517 -71 540 -28 q 519 -76 517 -75 q 560 -69 543 -69 q 626 -96 600 -69 q 649 -154 649 -119 q 597 -256 649 -215 q 474 -297 546 -297 z "},"Ĉ":{"ha":1010,"x_min":39,"x_max":992,"o":"m 547 -18 q 231 61 360 -18 q 115 169 157 106 q 56 307 74 233 q 39 454 39 381 q 87 669 39 586 q 213 813 135 751 q 399 907 296 879 q 618 935 503 935 q 992 868 821 935 l 982 849 q 936 772 964 858 q 911 656 915 703 q 910 639 911 650 l 879 646 q 883 665 882 657 q 885 682 883 674 q 865 771 888 739 q 775 832 844 803 q 567 868 692 868 q 293 783 394 868 q 201 645 226 728 q 175 472 175 563 q 264 186 175 300 q 547 54 367 54 q 722 76 629 54 q 918 143 815 97 l 915 107 q 822 54 857 74 q 775 29 788 35 q 547 -18 661 -18 m 760 1019 q 728 1031 750 1019 q 683 1058 707 1042 q 629 1100 644 1086 q 603 1126 614 1114 q 594 1126 599 1133 q 510 1057 536 1079 q 460 1024 485 1035 q 449 1022 457 1022 q 432 1022 442 1022 q 407 1022 419 1022 q 392 1024 394 1022 q 447 1062 411 1039 q 522 1115 482 1085 q 597 1179 563 1144 q 626 1183 611 1182 q 653 1185 642 1185 q 664 1183 663 1185 l 742 1119 q 778 1088 763 1101 q 800 1071 794 1075 q 826 1062 810 1064 q 853 1060 843 1060 l 849 1046 q 810 1035 835 1043 q 769 1021 785 1028 q 760 1019 767 1019 z "},"Ċ":{"ha":1010,"x_min":39,"x_max":992,"o":"m 547 -18 q 231 61 360 -18 q 115 169 157 106 q 56 307 74 233 q 39 454 39 381 q 87 669 39 586 q 213 813 135 751 q 399 907 296 879 q 618 935 503 935 q 992 868 821 935 l 982 849 q 936 772 964 858 q 911 656 915 703 q 910 639 911 650 l 879 646 q 883 665 882 657 q 885 682 883 674 q 865 771 888 739 q 775 832 844 803 q 567 868 692 868 q 293 783 394 868 q 201 645 226 728 q 175 472 175 563 q 264 186 175 300 q 547 54 367 54 q 722 76 629 54 q 918 143 815 97 l 915 107 q 822 54 857 74 q 775 29 788 35 q 547 -18 661 -18 m 588 1021 q 549 1042 572 1021 q 526 1072 526 1060 q 563 1110 526 1081 q 596 1131 590 1131 q 610 1124 603 1131 q 622 1116 617 1119 q 633 1110 628 1113 q 674 1100 651 1100 q 681 1094 681 1100 q 678 1085 682 1089 l 642 1054 q 588 1021 603 1021 z "},"D":{"ha":1078,"x_min":0,"x_max":1028,"o":"m 0 -11 l 24 31 q 33 28 26 29 q 46 28 39 28 q 122 42 90 28 q 176 90 165 58 q 192 191 183 118 q 208 383 200 264 q 222 603 218 510 q 226 760 226 697 q 215 872 226 858 q 154 893 194 893 q 97 885 129 893 l 118 928 q 214 919 169 922 q 294 917 258 917 q 331 917 314 917 q 361 919 347 918 q 449 927 407 925 q 529 929 492 929 q 978 718 864 929 q 1028 508 1028 626 q 1012 377 1028 442 q 965 251 996 313 q 912 167 940 204 q 850 107 883 131 q 467 -7 690 -7 q 417 -6 443 -7 q 367 -1 392 -4 q 267 3 324 3 q 146 -1 213 3 q 0 -11 79 -4 m 483 39 q 540 43 514 39 q 665 76 610 54 q 758 133 719 99 q 888 478 876 239 q 801 751 896 639 q 581 874 714 854 q 537 878 558 876 q 494 881 515 881 q 374 863 389 881 q 326 450 346 810 q 317 294 321 379 q 311 107 314 208 q 483 39 338 39 z "},"Ǆ":{"ha":1901,"x_min":0,"x_max":1861,"o":"m 1411 1186 q 1442 1174 1421 1186 q 1483 1142 1463 1163 q 1519 1106 1507 1119 q 1543 1079 1532 1092 q 1551 1079 1547 1074 q 1616 1149 1593 1126 q 1664 1182 1639 1172 q 1674 1183 1667 1183 q 1692 1183 1682 1183 q 1717 1183 1704 1183 q 1732 1182 1731 1183 q 1679 1139 1714 1167 q 1608 1081 1644 1111 q 1549 1026 1572 1051 q 1519 1022 1535 1024 q 1493 1021 1504 1021 q 1482 1022 1482 1021 l 1426 1083 q 1392 1117 1408 1103 q 1371 1135 1376 1131 q 1344 1144 1361 1142 q 1318 1146 1328 1146 l 1322 1160 q 1361 1170 1336 1163 q 1401 1185 1386 1178 q 1411 1186 1404 1186 m 0 -11 l 24 31 q 33 28 26 29 q 46 28 39 28 q 122 42 90 28 q 176 90 165 58 q 192 191 183 118 q 208 383 200 264 q 222 603 218 510 q 226 760 226 697 q 215 872 226 858 q 154 893 194 893 q 97 885 129 893 l 118 928 q 214 919 169 922 q 294 917 258 917 q 331 917 314 917 q 361 919 347 918 q 449 927 407 925 q 529 929 492 929 q 978 718 864 929 q 1028 508 1028 626 q 1012 377 1028 442 q 965 251 996 313 q 912 167 940 204 q 850 107 883 131 q 467 -7 690 -7 q 417 -6 443 -7 q 367 -1 392 -4 q 267 3 324 3 q 146 -1 213 3 q 0 -11 79 -4 m 1128 -18 l 1110 -4 q 1131 46 1108 7 q 1194 143 1154 85 q 1281 271 1233 201 q 1380 415 1329 340 q 1475 558 1431 489 q 1574 720 1529 644 q 1650 857 1618 796 q 1653 867 1653 865 q 1638 871 1653 871 q 1498 869 1571 871 q 1366 865 1425 868 q 1283 856 1307 863 q 1240 829 1253 847 q 1224 781 1226 811 q 1219 714 1219 731 l 1175 688 q 1186 776 1181 721 q 1192 906 1192 832 l 1208 925 q 1511 917 1383 917 q 1603 917 1563 917 q 1694 920 1644 918 q 1822 925 1744 922 l 1831 896 q 1750 787 1800 856 q 1638 619 1700 718 q 1539 464 1583 533 q 1456 332 1494 394 q 1378 206 1417 269 q 1297 67 1339 142 q 1294 58 1294 61 q 1301 50 1294 53 q 1318 47 1308 47 l 1524 47 q 1652 50 1604 47 q 1732 72 1700 53 q 1793 139 1764 92 q 1819 185 1810 165 q 1831 218 1828 204 l 1861 207 q 1837 144 1850 182 q 1811 65 1824 106 q 1783 1 1797 21 q 1732 -15 1768 -18 q 1631 -7 1692 -11 q 1492 -3 1569 -3 l 1340 -3 q 1225 -5 1269 -3 q 1128 -18 1181 -7 m 483 39 q 540 43 514 39 q 665 76 610 54 q 758 133 719 99 q 888 478 876 239 q 801 751 896 639 q 581 874 714 854 q 537 878 558 876 q 494 881 515 881 q 374 863 389 881 q 326 450 346 810 q 317 294 321 379 q 311 107 314 208 q 483 39 338 39 z "},"Ď":{"ha":1078,"x_min":0,"x_max":1028,"o":"m 492 1193 q 522 1181 501 1193 q 564 1149 543 1169 q 600 1113 588 1126 q 624 1086 613 1099 q 632 1086 628 1081 q 697 1156 674 1133 q 744 1189 719 1179 q 755 1190 747 1190 q 772 1190 763 1190 q 798 1190 785 1190 q 813 1189 811 1190 q 760 1146 794 1174 q 689 1088 725 1118 q 629 1033 653 1058 q 600 1029 615 1031 q 574 1028 585 1028 q 563 1029 563 1028 l 507 1090 q 473 1124 489 1110 q 451 1142 457 1138 q 425 1151 442 1149 q 399 1153 408 1153 l 403 1167 q 442 1177 417 1169 q 482 1192 467 1185 q 492 1193 485 1193 m 0 -11 l 24 31 q 33 28 26 29 q 46 28 39 28 q 122 42 90 28 q 176 90 165 58 q 192 191 183 118 q 208 383 200 264 q 222 603 218 510 q 226 760 226 697 q 215 872 226 858 q 154 893 194 893 q 97 885 129 893 l 118 928 q 214 919 169 922 q 294 917 258 917 q 331 917 314 917 q 361 919 347 918 q 449 927 407 925 q 529 929 492 929 q 978 718 864 929 q 1028 508 1028 626 q 1012 377 1028 442 q 965 251 996 313 q 912 167 940 204 q 850 107 883 131 q 467 -7 690 -7 q 417 -6 443 -7 q 367 -1 392 -4 q 267 3 324 3 q 146 -1 213 3 q 0 -11 79 -4 m 483 39 q 540 43 514 39 q 665 76 610 54 q 758 133 719 99 q 888 478 876 239 q 801 751 896 639 q 581 874 714 854 q 537 878 558 876 q 494 881 515 881 q 374 863 389 881 q 326 450 346 810 q 317 294 321 379 q 311 107 314 208 q 483 39 338 39 z "},"Đ":{"ha":1076,"x_min":0,"x_max":1028,"o":"m 0 -11 l 24 31 q 33 28 26 29 q 46 28 39 28 q 122 42 90 28 q 176 90 165 58 q 192 191 183 118 q 208 383 200 264 q 222 603 218 510 q 226 760 226 697 q 215 872 226 858 q 154 893 194 893 q 97 885 129 893 l 118 928 q 214 919 169 922 q 294 917 258 917 q 331 917 314 917 q 361 919 347 918 q 449 927 407 925 q 529 929 492 929 q 978 718 864 929 q 1028 508 1028 626 q 1012 377 1028 442 q 965 251 996 313 q 912 167 940 204 q 850 107 883 131 q 467 -7 690 -7 q 417 -6 443 -7 q 367 -1 392 -4 q 267 3 324 3 q 146 -1 213 3 q 0 -11 79 -4 m 483 39 q 540 43 514 39 q 665 76 610 54 q 758 133 719 99 q 888 478 876 239 q 801 751 896 639 q 581 874 714 854 q 537 878 558 876 q 494 881 515 881 q 374 863 389 881 q 326 450 346 810 q 317 294 321 379 q 311 107 314 208 q 483 39 338 39 m 449 401 q 382 412 422 408 q 285 417 342 415 q 88 404 204 417 q 86 407 86 404 q 100 450 86 421 q 125 479 115 482 q 282 464 178 464 q 334 465 306 464 q 397 469 363 467 q 460 474 438 472 q 486 476 482 476 q 488 474 488 476 q 474 431 488 463 q 449 401 457 400 z "},"ǅ":{"ha":1736,"x_min":0,"x_max":1701,"o":"m 1369 936 q 1400 924 1379 936 q 1442 892 1421 913 q 1478 856 1465 869 q 1501 829 1490 842 q 1510 829 1506 824 q 1574 899 1551 876 q 1622 932 1597 922 q 1633 933 1625 933 q 1650 933 1640 933 q 1676 933 1663 933 q 1690 932 1689 933 q 1638 889 1672 917 q 1567 831 1603 861 q 1507 776 1531 801 q 1478 772 1493 774 q 1451 771 1463 771 q 1440 772 1440 771 l 1385 833 q 1351 867 1367 853 q 1329 885 1335 881 q 1303 894 1319 892 q 1276 896 1286 896 l 1281 910 q 1319 920 1294 913 q 1360 935 1344 928 q 1369 936 1363 936 m 0 -11 l 24 31 q 33 28 26 29 q 46 28 39 28 q 122 42 90 28 q 176 90 165 58 q 192 191 183 118 q 208 383 200 264 q 222 603 218 510 q 226 760 226 697 q 215 872 226 858 q 154 893 194 893 q 97 885 129 893 l 118 928 q 214 919 169 922 q 294 917 258 917 q 331 917 314 917 q 361 919 347 918 q 449 927 407 925 q 529 929 492 929 q 978 718 864 929 q 1028 508 1028 626 q 1012 377 1028 442 q 965 251 996 313 q 912 167 940 204 q 850 107 883 131 q 467 -7 690 -7 q 417 -6 443 -7 q 367 -1 392 -4 q 267 3 324 3 q 146 -1 213 3 q 0 -11 79 -4 m 483 39 q 540 43 514 39 q 665 76 610 54 q 758 133 719 99 q 888 478 876 239 q 801 751 896 639 q 581 874 714 854 q 537 878 558 876 q 494 881 515 881 q 374 863 389 881 q 326 450 346 810 q 317 294 321 379 q 311 107 314 208 q 483 39 338 39 m 1118 -6 q 1092 6 1092 -6 q 1102 27 1092 17 q 1122 47 1113 38 q 1167 96 1138 61 q 1234 173 1197 131 q 1305 256 1271 215 q 1360 321 1339 296 q 1489 489 1447 429 q 1531 558 1531 549 q 1501 582 1531 581 q 1453 584 1488 583 q 1383 585 1418 585 q 1332 585 1347 585 q 1277 574 1297 585 q 1251 544 1257 563 q 1238 490 1246 519 q 1229 444 1231 460 l 1185 435 q 1197 478 1189 450 q 1213 538 1206 506 l 1231 615 q 1267 669 1243 669 q 1332 669 1296 669 q 1402 669 1368 669 q 1460 667 1436 668 q 1488 667 1483 667 q 1594 670 1556 668 q 1653 674 1633 672 q 1686 676 1674 676 q 1701 665 1701 676 q 1674 617 1701 654 q 1603 528 1647 581 q 1508 414 1560 475 q 1407 294 1457 353 q 1308 167 1343 218 q 1271 100 1272 117 q 1318 97 1286 99 q 1397 94 1350 94 q 1529 99 1499 94 q 1622 150 1603 107 q 1633 176 1626 160 q 1646 208 1640 193 q 1651 226 1651 224 l 1699 233 q 1674 174 1690 214 q 1644 97 1658 135 q 1624 43 1629 60 q 1583 -6 1607 -3 q 1477 -1 1531 -3 q 1372 0 1424 0 q 1224 -2 1292 0 q 1118 -6 1156 -4 z "},"E":{"ha":821,"x_min":0,"x_max":793,"o":"m 665 -15 q 656 -15 661 -15 q 646 -14 651 -15 q 403 3 490 -3 q 296 8 315 8 q 256 8 275 8 q 219 6 236 7 q 147 1 201 4 q 0 -11 93 -3 l 21 32 q 80 36 46 31 q 142 56 114 42 q 179 93 171 69 q 195 193 188 121 q 211 383 203 265 l 229 642 q 232 699 232 672 q 232 749 232 726 q 217 875 232 860 q 138 900 196 900 q 118 899 128 900 q 97 897 108 899 l 118 936 q 201 926 154 931 q 308 924 249 922 l 703 928 q 721 906 721 926 q 716 878 721 899 q 697 818 711 858 q 683 763 689 789 q 674 722 676 738 l 635 732 q 664 815 664 799 q 642 849 664 839 q 586 863 619 860 q 519 865 553 865 q 433 865 468 865 q 376 860 399 864 q 353 732 364 821 q 333 511 343 643 l 622 514 q 638 508 632 514 q 640 492 643 503 q 635 471 639 486 q 628 444 631 456 q 622 410 625 428 q 619 371 619 392 l 586 363 l 581 369 q 586 406 586 388 q 569 442 586 431 q 514 454 553 453 q 381 458 435 458 q 353 458 367 458 q 329 457 340 458 q 324 358 326 413 q 319 249 321 303 q 317 156 317 196 q 317 117 317 133 q 319 93 318 101 q 340 63 321 69 q 372 56 349 60 q 425 47 394 51 q 492 43 454 43 q 676 75 629 43 q 701 98 688 83 q 729 135 714 113 q 753 178 744 158 q 761 207 763 197 l 793 194 q 765 130 776 164 q 746 58 754 96 q 735 25 742 40 q 721 3 729 10 q 665 -15 703 -15 z "},"É":{"ha":821,"x_min":0,"x_max":793,"o":"m 665 -15 q 656 -15 661 -15 q 646 -14 651 -15 q 403 3 490 -3 q 296 8 315 8 q 256 8 275 8 q 219 6 236 7 q 147 1 201 4 q 0 -11 93 -3 l 21 32 q 80 36 46 31 q 142 56 114 42 q 179 93 171 69 q 195 193 188 121 q 211 383 203 265 l 229 642 q 232 699 232 672 q 232 749 232 726 q 217 875 232 860 q 138 900 196 900 q 118 899 128 900 q 97 897 108 899 l 118 936 q 201 926 154 931 q 308 924 249 922 l 703 928 q 721 906 721 926 q 716 878 721 899 q 697 818 711 858 q 683 763 689 789 q 674 722 676 738 l 635 732 q 664 815 664 799 q 642 849 664 839 q 586 863 619 860 q 519 865 553 865 q 433 865 468 865 q 376 860 399 864 q 353 732 364 821 q 333 511 343 643 l 622 514 q 638 508 632 514 q 640 492 643 503 q 635 471 639 486 q 628 444 631 456 q 622 410 625 428 q 619 371 619 392 l 586 363 l 581 369 q 586 406 586 388 q 569 442 586 431 q 514 454 553 453 q 381 458 435 458 q 353 458 367 458 q 329 457 340 458 q 324 358 326 413 q 319 249 321 303 q 317 156 317 196 q 317 117 317 133 q 319 93 318 101 q 340 63 321 69 q 372 56 349 60 q 425 47 394 51 q 492 43 454 43 q 676 75 629 43 q 701 98 688 83 q 729 135 714 113 q 753 178 744 158 q 761 207 763 197 l 793 194 q 765 130 776 164 q 746 58 754 96 q 735 25 742 40 q 721 3 729 10 q 665 -15 703 -15 m 369 1021 q 346 1033 346 1029 q 349 1036 346 1033 q 432 1074 393 1051 q 482 1107 471 1097 q 565 1174 563 1169 q 615 1150 594 1157 q 642 1138 642 1140 q 626 1122 642 1133 q 585 1097 608 1111 q 496 1053 561 1082 q 421 1028 457 1035 q 369 1021 385 1021 z "},"Ĕ":{"ha":821,"x_min":0,"x_max":793,"o":"m 665 -15 q 656 -15 661 -15 q 646 -14 651 -15 q 403 3 490 -3 q 296 8 315 8 q 256 8 275 8 q 219 6 236 7 q 147 1 201 4 q 0 -11 93 -3 l 21 32 q 80 36 46 31 q 142 56 114 42 q 179 93 171 69 q 195 193 188 121 q 211 383 203 265 l 229 642 q 232 699 232 672 q 232 749 232 726 q 217 875 232 860 q 138 900 196 900 q 118 899 128 900 q 97 897 108 899 l 118 936 q 201 926 154 931 q 308 924 249 922 l 703 928 q 721 906 721 926 q 716 878 721 899 q 697 818 711 858 q 683 763 689 789 q 674 722 676 738 l 635 732 q 664 815 664 799 q 642 849 664 839 q 586 863 619 860 q 519 865 553 865 q 433 865 468 865 q 376 860 399 864 q 353 732 364 821 q 333 511 343 643 l 622 514 q 638 508 632 514 q 640 492 643 503 q 635 471 639 486 q 628 444 631 456 q 622 410 625 428 q 619 371 619 392 l 586 363 l 581 369 q 586 406 586 388 q 569 442 586 431 q 514 454 553 453 q 381 458 435 458 q 353 458 367 458 q 329 457 340 458 q 324 358 326 413 q 319 249 321 303 q 317 156 317 196 q 317 117 317 133 q 319 93 318 101 q 340 63 321 69 q 372 56 349 60 q 425 47 394 51 q 492 43 454 43 q 676 75 629 43 q 701 98 688 83 q 729 135 714 113 q 753 178 744 158 q 761 207 763 197 l 793 194 q 765 130 776 164 q 746 58 754 96 q 735 25 742 40 q 721 3 729 10 q 665 -15 703 -15 m 458 1021 q 320 1051 365 1021 q 269 1144 275 1081 l 347 1164 q 374 1103 353 1126 q 463 1081 396 1081 q 556 1094 519 1081 q 597 1154 593 1108 l 665 1172 q 645 1117 665 1138 q 599 1074 625 1097 q 548 1036 576 1051 q 458 1021 519 1021 z "},"Ě":{"ha":821,"x_min":0,"x_max":793,"o":"m 336 1183 q 367 1172 346 1183 q 413 1144 389 1161 q 467 1103 453 1118 q 493 1076 482 1089 q 501 1076 497 1071 q 585 1147 560 1124 q 636 1179 611 1169 q 647 1181 639 1181 q 664 1181 654 1181 q 690 1181 676 1181 q 704 1179 703 1181 q 650 1141 686 1164 q 574 1088 614 1118 q 499 1024 533 1058 q 469 1019 485 1021 q 443 1018 454 1018 q 432 1019 433 1018 l 354 1083 q 317 1115 333 1101 q 296 1132 301 1128 q 269 1141 286 1139 q 243 1143 253 1143 l 247 1157 q 286 1167 261 1160 q 326 1182 311 1175 q 336 1183 329 1183 m 665 -15 q 656 -15 661 -15 q 646 -14 651 -15 q 403 3 490 -3 q 296 8 315 8 q 256 8 275 8 q 219 6 236 7 q 147 1 201 4 q 0 -11 93 -3 l 21 32 q 80 36 46 31 q 142 56 114 42 q 179 93 171 69 q 195 193 188 121 q 211 383 203 265 l 229 642 q 232 699 232 672 q 232 749 232 726 q 217 875 232 860 q 138 900 196 900 q 118 899 128 900 q 97 897 108 899 l 118 936 q 201 926 154 931 q 308 924 249 922 l 703 928 q 721 906 721 926 q 716 878 721 899 q 697 818 711 858 q 683 763 689 789 q 674 722 676 738 l 635 732 q 664 815 664 799 q 642 849 664 839 q 586 863 619 860 q 519 865 553 865 q 433 865 468 865 q 376 860 399 864 q 353 732 364 821 q 333 511 343 643 l 622 514 q 638 508 632 514 q 640 492 643 503 q 635 471 639 486 q 628 444 631 456 q 622 410 625 428 q 619 371 619 392 l 586 363 l 581 369 q 586 406 586 388 q 569 442 586 431 q 514 454 553 453 q 381 458 435 458 q 353 458 367 458 q 329 457 340 458 q 324 358 326 413 q 319 249 321 303 q 317 156 317 196 q 317 117 317 133 q 319 93 318 101 q 340 63 321 69 q 372 56 349 60 q 425 47 394 51 q 492 43 454 43 q 676 75 629 43 q 701 98 688 83 q 729 135 714 113 q 753 178 744 158 q 761 207 763 197 l 793 194 q 765 130 776 164 q 746 58 754 96 q 735 25 742 40 q 721 3 729 10 q 665 -15 703 -15 z "},"Ê":{"ha":821,"x_min":0,"x_max":793,"o":"m 665 -15 q 656 -15 661 -15 q 646 -14 651 -15 q 403 3 490 -3 q 296 8 315 8 q 256 8 275 8 q 219 6 236 7 q 147 1 201 4 q 0 -11 93 -3 l 21 32 q 80 36 46 31 q 142 56 114 42 q 179 93 171 69 q 195 193 188 121 q 211 383 203 265 l 229 642 q 232 699 232 672 q 232 749 232 726 q 217 875 232 860 q 138 900 196 900 q 118 899 128 900 q 97 897 108 899 l 118 936 q 201 926 154 931 q 308 924 249 922 l 703 928 q 721 906 721 926 q 716 878 721 899 q 697 818 711 858 q 683 763 689 789 q 674 722 676 738 l 635 732 q 664 815 664 799 q 642 849 664 839 q 586 863 619 860 q 519 865 553 865 q 433 865 468 865 q 376 860 399 864 q 353 732 364 821 q 333 511 343 643 l 622 514 q 638 508 632 514 q 640 492 643 503 q 635 471 639 486 q 628 444 631 456 q 622 410 625 428 q 619 371 619 392 l 586 363 l 581 369 q 586 406 586 388 q 569 442 586 431 q 514 454 553 453 q 381 458 435 458 q 353 458 367 458 q 329 457 340 458 q 324 358 326 413 q 319 249 321 303 q 317 156 317 196 q 317 117 317 133 q 319 93 318 101 q 340 63 321 69 q 372 56 349 60 q 425 47 394 51 q 492 43 454 43 q 676 75 629 43 q 701 98 688 83 q 729 135 714 113 q 753 178 744 158 q 761 207 763 197 l 793 194 q 765 130 776 164 q 746 58 754 96 q 735 25 742 40 q 721 3 729 10 q 665 -15 703 -15 m 632 1019 q 601 1031 622 1019 q 556 1058 579 1042 q 501 1100 517 1086 q 475 1126 486 1114 q 467 1126 471 1133 q 383 1057 408 1079 q 332 1024 357 1035 q 322 1022 329 1022 q 304 1022 314 1022 q 279 1022 292 1022 q 264 1024 267 1022 q 319 1062 283 1039 q 394 1115 354 1085 q 469 1179 435 1144 q 499 1183 483 1182 q 525 1185 514 1185 q 536 1183 535 1185 l 614 1119 q 651 1088 635 1101 q 672 1071 667 1075 q 699 1062 682 1064 q 725 1060 715 1060 l 721 1046 q 682 1035 707 1043 q 642 1021 657 1028 q 632 1019 639 1019 z "},"Ế":{"ha":821,"x_min":0,"x_max":972,"o":"m 665 -15 q 656 -15 661 -15 q 646 -14 651 -15 q 403 3 490 -3 q 296 8 315 8 q 256 8 275 8 q 219 6 236 7 q 147 1 201 4 q 0 -11 93 -3 l 21 32 q 80 36 46 31 q 142 56 114 42 q 179 93 171 69 q 195 193 188 121 q 211 383 203 265 l 229 642 q 232 699 232 672 q 232 749 232 726 q 217 875 232 860 q 138 900 196 900 q 118 899 128 900 q 97 897 108 899 l 118 936 q 201 926 154 931 q 308 924 249 922 l 703 928 q 721 906 721 926 q 716 878 721 899 q 697 818 711 858 q 683 763 689 789 q 674 722 676 738 l 635 732 q 664 815 664 799 q 642 849 664 839 q 586 863 619 860 q 519 865 553 865 q 433 865 468 865 q 376 860 399 864 q 353 732 364 821 q 333 511 343 643 l 622 514 q 638 508 632 514 q 640 492 643 503 q 635 471 639 486 q 628 444 631 456 q 622 410 625 428 q 619 371 619 392 l 586 363 l 581 369 q 586 406 586 388 q 569 442 586 431 q 514 454 553 453 q 381 458 435 458 q 353 458 367 458 q 329 457 340 458 q 324 358 326 413 q 319 249 321 303 q 317 156 317 196 q 317 117 317 133 q 319 93 318 101 q 340 63 321 69 q 372 56 349 60 q 425 47 394 51 q 492 43 454 43 q 676 75 629 43 q 701 98 688 83 q 729 135 714 113 q 753 178 744 158 q 761 207 763 197 l 793 194 q 765 130 776 164 q 746 58 754 96 q 735 25 742 40 q 721 3 729 10 q 665 -15 703 -15 m 632 1019 q 601 1031 622 1019 q 556 1058 579 1042 q 501 1100 517 1086 q 475 1126 486 1114 q 467 1126 471 1133 q 383 1057 408 1079 q 332 1024 357 1035 q 322 1022 329 1022 q 304 1022 314 1022 q 279 1022 292 1022 q 264 1024 267 1022 q 319 1062 283 1039 q 394 1115 354 1085 q 469 1179 435 1144 q 499 1183 483 1182 q 525 1185 514 1185 q 536 1183 535 1185 l 614 1119 q 651 1088 635 1101 q 672 1071 667 1075 q 699 1062 682 1064 q 725 1060 715 1060 l 721 1046 q 682 1035 707 1043 q 642 1021 657 1028 q 632 1019 639 1019 m 700 1165 q 676 1178 676 1174 q 679 1181 676 1178 q 763 1219 724 1196 q 813 1251 801 1242 q 896 1318 893 1314 q 946 1294 925 1301 q 972 1282 972 1285 q 957 1267 972 1278 q 915 1241 939 1256 q 826 1197 892 1226 q 751 1172 788 1179 q 700 1165 715 1165 z "},"Ệ":{"ha":821,"x_min":0,"x_max":793,"o":"m 665 -15 q 656 -15 661 -15 q 646 -14 651 -15 q 403 3 490 -3 q 296 8 315 8 q 256 8 275 8 q 219 6 236 7 q 147 1 201 4 q 0 -11 93 -3 l 21 32 q 80 36 46 31 q 142 56 114 42 q 179 93 171 69 q 195 193 188 121 q 211 383 203 265 l 229 642 q 232 699 232 672 q 232 749 232 726 q 217 875 232 860 q 138 900 196 900 q 118 899 128 900 q 97 897 108 899 l 118 936 q 201 926 154 931 q 308 924 249 922 l 703 928 q 721 906 721 926 q 716 878 721 899 q 697 818 711 858 q 683 763 689 789 q 674 722 676 738 l 635 732 q 664 815 664 799 q 642 849 664 839 q 586 863 619 860 q 519 865 553 865 q 433 865 468 865 q 376 860 399 864 q 353 732 364 821 q 333 511 343 643 l 622 514 q 638 508 632 514 q 640 492 643 503 q 635 471 639 486 q 628 444 631 456 q 622 410 625 428 q 619 371 619 392 l 586 363 l 581 369 q 586 406 586 388 q 569 442 586 431 q 514 454 553 453 q 381 458 435 458 q 353 458 367 458 q 329 457 340 458 q 324 358 326 413 q 319 249 321 303 q 317 156 317 196 q 317 117 317 133 q 319 93 318 101 q 340 63 321 69 q 372 56 349 60 q 425 47 394 51 q 492 43 454 43 q 676 75 629 43 q 701 98 688 83 q 729 135 714 113 q 753 178 744 158 q 761 207 763 197 l 793 194 q 765 130 776 164 q 746 58 754 96 q 735 25 742 40 q 721 3 729 10 q 665 -15 703 -15 m 394 -208 q 356 -187 379 -208 q 333 -157 333 -169 q 369 -119 333 -149 q 403 -99 397 -99 q 417 -106 410 -99 q 429 -113 424 -110 q 440 -119 435 -117 q 481 -129 458 -129 q 488 -135 488 -129 q 485 -144 489 -140 l 449 -175 q 394 -208 410 -208 m 632 1019 q 601 1031 622 1019 q 556 1058 579 1042 q 501 1100 517 1086 q 475 1126 486 1114 q 467 1126 471 1133 q 383 1057 408 1079 q 332 1024 357 1035 q 322 1022 329 1022 q 304 1022 314 1022 q 279 1022 292 1022 q 264 1024 267 1022 q 319 1062 283 1039 q 394 1115 354 1085 q 469 1179 435 1144 q 499 1183 483 1182 q 525 1185 514 1185 q 536 1183 535 1185 l 614 1119 q 651 1088 635 1101 q 672 1071 667 1075 q 699 1062 682 1064 q 725 1060 715 1060 l 721 1046 q 682 1035 707 1043 q 642 1021 657 1028 q 632 1019 639 1019 z "},"Ề":{"ha":821,"x_min":0,"x_max":793,"o":"m 665 -15 q 656 -15 661 -15 q 646 -14 651 -15 q 403 3 490 -3 q 296 8 315 8 q 256 8 275 8 q 219 6 236 7 q 147 1 201 4 q 0 -11 93 -3 l 21 32 q 80 36 46 31 q 142 56 114 42 q 179 93 171 69 q 195 193 188 121 q 211 383 203 265 l 229 642 q 232 699 232 672 q 232 749 232 726 q 217 875 232 860 q 138 900 196 900 q 118 899 128 900 q 97 897 108 899 l 118 936 q 201 926 154 931 q 308 924 249 922 l 703 928 q 721 906 721 926 q 716 878 721 899 q 697 818 711 858 q 683 763 689 789 q 674 722 676 738 l 635 732 q 664 815 664 799 q 642 849 664 839 q 586 863 619 860 q 519 865 553 865 q 433 865 468 865 q 376 860 399 864 q 353 732 364 821 q 333 511 343 643 l 622 514 q 638 508 632 514 q 640 492 643 503 q 635 471 639 486 q 628 444 631 456 q 622 410 625 428 q 619 371 619 392 l 586 363 l 581 369 q 586 406 586 388 q 569 442 586 431 q 514 454 553 453 q 381 458 435 458 q 353 458 367 458 q 329 457 340 458 q 324 358 326 413 q 319 249 321 303 q 317 156 317 196 q 317 117 317 133 q 319 93 318 101 q 340 63 321 69 q 372 56 349 60 q 425 47 394 51 q 492 43 454 43 q 676 75 629 43 q 701 98 688 83 q 729 135 714 113 q 753 178 744 158 q 761 207 763 197 l 793 194 q 765 130 776 164 q 746 58 754 96 q 735 25 742 40 q 721 3 729 10 q 665 -15 703 -15 m 632 1019 q 601 1031 622 1019 q 556 1058 579 1042 q 501 1100 517 1086 q 475 1126 486 1114 q 467 1126 471 1133 q 383 1057 408 1079 q 332 1024 357 1035 q 322 1022 329 1022 q 304 1022 314 1022 q 279 1022 292 1022 q 264 1024 267 1022 q 319 1062 283 1039 q 394 1115 354 1085 q 469 1179 435 1144 q 499 1183 483 1182 q 525 1185 514 1185 q 536 1183 535 1185 l 614 1119 q 651 1088 635 1101 q 672 1071 667 1075 q 699 1062 682 1064 q 725 1060 715 1060 l 721 1046 q 682 1035 707 1043 q 642 1021 657 1028 q 632 1019 639 1019 m 667 1228 q 616 1235 651 1228 q 540 1260 581 1242 q 452 1303 476 1289 q 410 1329 428 1318 q 394 1344 394 1340 q 421 1357 394 1347 q 471 1381 442 1364 q 554 1314 474 1376 q 605 1281 565 1304 q 688 1243 644 1258 q 690 1240 690 1240 q 667 1228 690 1236 z "},"Ể":{"ha":821,"x_min":0,"x_max":793,"o":"m 665 -15 q 656 -15 661 -15 q 646 -14 651 -15 q 403 3 490 -3 q 296 8 315 8 q 256 8 275 8 q 219 6 236 7 q 147 1 201 4 q 0 -11 93 -3 l 21 32 q 80 36 46 31 q 142 56 114 42 q 179 93 171 69 q 195 193 188 121 q 211 383 203 265 l 229 642 q 232 699 232 672 q 232 749 232 726 q 217 875 232 860 q 138 900 196 900 q 118 899 128 900 q 97 897 108 899 l 118 936 q 201 926 154 931 q 308 924 249 922 l 703 928 q 721 906 721 926 q 716 878 721 899 q 697 818 711 858 q 683 763 689 789 q 674 722 676 738 l 635 732 q 664 815 664 799 q 642 849 664 839 q 586 863 619 860 q 519 865 553 865 q 433 865 468 865 q 376 860 399 864 q 353 732 364 821 q 333 511 343 643 l 622 514 q 638 508 632 514 q 640 492 643 503 q 635 471 639 486 q 628 444 631 456 q 622 410 625 428 q 619 371 619 392 l 586 363 l 581 369 q 586 406 586 388 q 569 442 586 431 q 514 454 553 453 q 381 458 435 458 q 353 458 367 458 q 329 457 340 458 q 324 358 326 413 q 319 249 321 303 q 317 156 317 196 q 317 117 317 133 q 319 93 318 101 q 340 63 321 69 q 372 56 349 60 q 425 47 394 51 q 492 43 454 43 q 676 75 629 43 q 701 98 688 83 q 729 135 714 113 q 753 178 744 158 q 761 207 763 197 l 793 194 q 765 130 776 164 q 746 58 754 96 q 735 25 742 40 q 721 3 729 10 q 665 -15 703 -15 m 632 1019 q 601 1031 622 1019 q 556 1058 579 1042 q 501 1100 517 1086 q 475 1126 486 1114 q 467 1126 471 1133 q 383 1057 408 1079 q 332 1024 357 1035 q 322 1022 329 1022 q 304 1022 314 1022 q 279 1022 292 1022 q 264 1024 267 1022 q 319 1062 283 1039 q 394 1115 354 1085 q 469 1179 435 1144 q 499 1183 483 1182 q 525 1185 514 1185 q 536 1183 535 1185 l 614 1119 q 651 1088 635 1101 q 672 1071 667 1075 q 699 1062 682 1064 q 725 1060 715 1060 l 721 1046 q 682 1035 707 1043 q 642 1021 657 1028 q 632 1019 639 1019 m 678 1169 q 676 1181 676 1175 q 675 1192 675 1186 q 686 1227 675 1215 q 708 1251 697 1239 q 718 1290 718 1264 q 711 1313 718 1301 q 685 1324 704 1324 q 656 1315 667 1324 q 644 1293 646 1306 l 622 1289 q 614 1310 621 1293 q 607 1328 607 1326 q 614 1339 607 1336 q 701 1365 657 1365 q 767 1347 740 1365 q 793 1303 793 1329 q 781 1254 793 1271 q 753 1227 769 1238 q 726 1205 738 1217 q 714 1169 714 1193 l 678 1169 z "},"Ễ":{"ha":821,"x_min":0,"x_max":793,"o":"m 665 -15 q 656 -15 661 -15 q 646 -14 651 -15 q 403 3 490 -3 q 296 8 315 8 q 256 8 275 8 q 219 6 236 7 q 147 1 201 4 q 0 -11 93 -3 l 21 32 q 80 36 46 31 q 142 56 114 42 q 179 93 171 69 q 195 193 188 121 q 211 383 203 265 l 229 642 q 232 699 232 672 q 232 749 232 726 q 217 875 232 860 q 138 900 196 900 q 118 899 128 900 q 97 897 108 899 l 118 936 q 201 926 154 931 q 308 924 249 922 l 703 928 q 721 906 721 926 q 716 878 721 899 q 697 818 711 858 q 683 763 689 789 q 674 722 676 738 l 635 732 q 664 815 664 799 q 642 849 664 839 q 586 863 619 860 q 519 865 553 865 q 433 865 468 865 q 376 860 399 864 q 353 732 364 821 q 333 511 343 643 l 622 514 q 638 508 632 514 q 640 492 643 503 q 635 471 639 486 q 628 444 631 456 q 622 410 625 428 q 619 371 619 392 l 586 363 l 581 369 q 586 406 586 388 q 569 442 586 431 q 514 454 553 453 q 381 458 435 458 q 353 458 367 458 q 329 457 340 458 q 324 358 326 413 q 319 249 321 303 q 317 156 317 196 q 317 117 317 133 q 319 93 318 101 q 340 63 321 69 q 372 56 349 60 q 425 47 394 51 q 492 43 454 43 q 676 75 629 43 q 701 98 688 83 q 729 135 714 113 q 753 178 744 158 q 761 207 763 197 l 793 194 q 765 130 776 164 q 746 58 754 96 q 735 25 742 40 q 721 3 729 10 q 665 -15 703 -15 m 632 1019 q 601 1031 622 1019 q 556 1058 579 1042 q 501 1100 517 1086 q 475 1126 486 1114 q 467 1126 471 1133 q 383 1057 408 1079 q 332 1024 357 1035 q 322 1022 329 1022 q 304 1022 314 1022 q 279 1022 292 1022 q 264 1024 267 1022 q 319 1062 283 1039 q 394 1115 354 1085 q 469 1179 435 1144 q 499 1183 483 1182 q 525 1185 514 1185 q 536 1183 535 1185 l 614 1119 q 651 1088 635 1101 q 672 1071 667 1075 q 699 1062 682 1064 q 725 1060 715 1060 l 721 1046 q 682 1035 707 1043 q 642 1021 657 1028 q 632 1019 639 1019 m 622 1229 q 556 1248 590 1229 q 489 1285 521 1267 q 432 1303 457 1303 q 393 1283 408 1303 q 367 1235 378 1263 l 338 1235 q 356 1299 338 1269 q 402 1346 374 1328 q 460 1364 431 1364 q 524 1347 493 1364 q 584 1314 556 1331 q 638 1297 613 1297 q 678 1317 661 1297 q 701 1361 694 1338 l 728 1361 q 694 1263 728 1297 q 622 1229 660 1229 z "},"Ȅ":{"ha":821,"x_min":0,"x_max":793,"o":"m 665 -15 q 656 -15 661 -15 q 646 -14 651 -15 q 403 3 490 -3 q 296 8 315 8 q 256 8 275 8 q 219 6 236 7 q 147 1 201 4 q 0 -11 93 -3 l 21 32 q 80 36 46 31 q 142 56 114 42 q 179 93 171 69 q 195 193 188 121 q 211 383 203 265 l 229 642 q 232 699 232 672 q 232 749 232 726 q 217 875 232 860 q 138 900 196 900 q 118 899 128 900 q 97 897 108 899 l 118 936 q 201 926 154 931 q 308 924 249 922 l 703 928 q 721 906 721 926 q 716 878 721 899 q 697 818 711 858 q 683 763 689 789 q 674 722 676 738 l 635 732 q 664 815 664 799 q 642 849 664 839 q 586 863 619 860 q 519 865 553 865 q 433 865 468 865 q 376 860 399 864 q 353 732 364 821 q 333 511 343 643 l 622 514 q 638 508 632 514 q 640 492 643 503 q 635 471 639 486 q 628 444 631 456 q 622 410 625 428 q 619 371 619 392 l 586 363 l 581 369 q 586 406 586 388 q 569 442 586 431 q 514 454 553 453 q 381 458 435 458 q 353 458 367 458 q 329 457 340 458 q 324 358 326 413 q 319 249 321 303 q 317 156 317 196 q 317 117 317 133 q 319 93 318 101 q 340 63 321 69 q 372 56 349 60 q 425 47 394 51 q 492 43 454 43 q 676 75 629 43 q 701 98 688 83 q 729 135 714 113 q 753 178 744 158 q 761 207 763 197 l 793 194 q 765 130 776 164 q 746 58 754 96 q 735 25 742 40 q 721 3 729 10 q 665 -15 703 -15 m 546 1024 q 438 1068 514 1028 q 325 1138 358 1107 q 311 1154 311 1147 q 339 1163 311 1156 q 392 1179 361 1167 q 407 1163 394 1176 q 446 1124 419 1149 q 492 1086 457 1115 q 568 1035 528 1057 q 571 1032 571 1032 q 546 1024 571 1028 m 407 1021 q 293 1050 375 1021 q 172 1103 210 1078 q 157 1118 157 1114 q 183 1131 157 1121 q 233 1154 204 1138 q 294 1107 238 1147 q 345 1076 306 1100 q 428 1036 385 1051 q 431 1033 431 1033 q 407 1021 431 1029 z "},"Ë":{"ha":821,"x_min":0,"x_max":793,"o":"m 665 -15 q 656 -15 661 -15 q 646 -14 651 -15 q 403 3 490 -3 q 296 8 315 8 q 256 8 275 8 q 219 6 236 7 q 147 1 201 4 q 0 -11 93 -3 l 21 32 q 80 36 46 31 q 142 56 114 42 q 179 93 171 69 q 195 193 188 121 q 211 383 203 265 l 229 642 q 232 699 232 672 q 232 749 232 726 q 217 875 232 860 q 138 900 196 900 q 118 899 128 900 q 97 897 108 899 l 118 936 q 201 926 154 931 q 308 924 249 922 l 703 928 q 721 906 721 926 q 716 878 721 899 q 697 818 711 858 q 683 763 689 789 q 674 722 676 738 l 635 732 q 664 815 664 799 q 642 849 664 839 q 586 863 619 860 q 519 865 553 865 q 433 865 468 865 q 376 860 399 864 q 353 732 364 821 q 333 511 343 643 l 622 514 q 638 508 632 514 q 640 492 643 503 q 635 471 639 486 q 628 444 631 456 q 622 410 625 428 q 619 371 619 392 l 586 363 l 581 369 q 586 406 586 388 q 569 442 586 431 q 514 454 553 453 q 381 458 435 458 q 353 458 367 458 q 329 457 340 458 q 324 358 326 413 q 319 249 321 303 q 317 156 317 196 q 317 117 317 133 q 319 93 318 101 q 340 63 321 69 q 372 56 349 60 q 425 47 394 51 q 492 43 454 43 q 676 75 629 43 q 701 98 688 83 q 729 135 714 113 q 753 178 744 158 q 761 207 763 197 l 793 194 q 765 130 776 164 q 746 58 754 96 q 735 25 742 40 q 721 3 729 10 q 665 -15 703 -15 m 349 1021 q 310 1042 333 1021 q 288 1072 288 1060 q 324 1110 288 1081 q 357 1131 351 1131 q 371 1124 364 1131 q 383 1116 378 1119 q 394 1110 389 1113 q 435 1100 413 1100 q 442 1094 442 1100 q 439 1085 443 1089 l 403 1054 q 349 1021 364 1021 m 569 1021 q 531 1042 554 1021 q 510 1072 510 1061 q 544 1110 510 1081 q 579 1131 572 1131 q 592 1124 585 1131 q 604 1116 599 1119 q 615 1110 610 1113 q 656 1100 633 1100 q 664 1094 663 1100 q 660 1085 664 1089 q 648 1074 657 1082 q 624 1054 639 1067 q 569 1021 582 1021 z "},"Ė":{"ha":821,"x_min":0,"x_max":793,"o":"m 665 -15 q 656 -15 661 -15 q 646 -14 651 -15 q 403 3 490 -3 q 296 8 315 8 q 256 8 275 8 q 219 6 236 7 q 147 1 201 4 q 0 -11 93 -3 l 21 32 q 80 36 46 31 q 142 56 114 42 q 179 93 171 69 q 195 193 188 121 q 211 383 203 265 l 229 642 q 232 699 232 672 q 232 749 232 726 q 217 875 232 860 q 138 900 196 900 q 118 899 128 900 q 97 897 108 899 l 118 936 q 201 926 154 931 q 308 924 249 922 l 703 928 q 721 906 721 926 q 716 878 721 899 q 697 818 711 858 q 683 763 689 789 q 674 722 676 738 l 635 732 q 664 815 664 799 q 642 849 664 839 q 586 863 619 860 q 519 865 553 865 q 433 865 468 865 q 376 860 399 864 q 353 732 364 821 q 333 511 343 643 l 622 514 q 638 508 632 514 q 640 492 643 503 q 635 471 639 486 q 628 444 631 456 q 622 410 625 428 q 619 371 619 392 l 586 363 l 581 369 q 586 406 586 388 q 569 442 586 431 q 514 454 553 453 q 381 458 435 458 q 353 458 367 458 q 329 457 340 458 q 324 358 326 413 q 319 249 321 303 q 317 156 317 196 q 317 117 317 133 q 319 93 318 101 q 340 63 321 69 q 372 56 349 60 q 425 47 394 51 q 492 43 454 43 q 676 75 629 43 q 701 98 688 83 q 729 135 714 113 q 753 178 744 158 q 761 207 763 197 l 793 194 q 765 130 776 164 q 746 58 754 96 q 735 25 742 40 q 721 3 729 10 q 665 -15 703 -15 m 460 1021 q 421 1042 444 1021 q 399 1072 399 1060 q 435 1110 399 1081 q 468 1131 463 1131 q 482 1124 475 1131 q 494 1116 489 1119 q 506 1110 500 1113 q 546 1100 524 1100 q 553 1094 553 1100 q 550 1085 554 1089 l 514 1054 q 460 1021 475 1021 z "},"Ẹ":{"ha":821,"x_min":0,"x_max":793,"o":"m 665 -15 q 656 -15 661 -15 q 646 -14 651 -15 q 403 3 490 -3 q 296 8 315 8 q 256 8 275 8 q 219 6 236 7 q 147 1 201 4 q 0 -11 93 -3 l 21 32 q 80 36 46 31 q 142 56 114 42 q 179 93 171 69 q 195 193 188 121 q 211 383 203 265 l 229 642 q 232 699 232 672 q 232 749 232 726 q 217 875 232 860 q 138 900 196 900 q 118 899 128 900 q 97 897 108 899 l 118 936 q 201 926 154 931 q 308 924 249 922 l 703 928 q 721 906 721 926 q 716 878 721 899 q 697 818 711 858 q 683 763 689 789 q 674 722 676 738 l 635 732 q 664 815 664 799 q 642 849 664 839 q 586 863 619 860 q 519 865 553 865 q 433 865 468 865 q 376 860 399 864 q 353 732 364 821 q 333 511 343 643 l 622 514 q 638 508 632 514 q 640 492 643 503 q 635 471 639 486 q 628 444 631 456 q 622 410 625 428 q 619 371 619 392 l 586 363 l 581 369 q 586 406 586 388 q 569 442 586 431 q 514 454 553 453 q 381 458 435 458 q 353 458 367 458 q 329 457 340 458 q 324 358 326 413 q 319 249 321 303 q 317 156 317 196 q 317 117 317 133 q 319 93 318 101 q 340 63 321 69 q 372 56 349 60 q 425 47 394 51 q 492 43 454 43 q 676 75 629 43 q 701 98 688 83 q 729 135 714 113 q 753 178 744 158 q 761 207 763 197 l 793 194 q 765 130 776 164 q 746 58 754 96 q 735 25 742 40 q 721 3 729 10 q 665 -15 703 -15 m 394 -208 q 356 -187 379 -208 q 333 -157 333 -169 q 369 -119 333 -149 q 403 -99 397 -99 q 417 -106 410 -99 q 429 -113 424 -110 q 440 -119 435 -117 q 481 -129 458 -129 q 488 -135 488 -129 q 485 -144 489 -140 l 449 -175 q 394 -208 410 -208 z "},"È":{"ha":821,"x_min":0,"x_max":793,"o":"m 665 -15 q 656 -15 661 -15 q 646 -14 651 -15 q 403 3 490 -3 q 296 8 315 8 q 256 8 275 8 q 219 6 236 7 q 147 1 201 4 q 0 -11 93 -3 l 21 32 q 80 36 46 31 q 142 56 114 42 q 179 93 171 69 q 195 193 188 121 q 211 383 203 265 l 229 642 q 232 699 232 672 q 232 749 232 726 q 217 875 232 860 q 138 900 196 900 q 118 899 128 900 q 97 897 108 899 l 118 936 q 201 926 154 931 q 308 924 249 922 l 703 928 q 721 906 721 926 q 716 878 721 899 q 697 818 711 858 q 683 763 689 789 q 674 722 676 738 l 635 732 q 664 815 664 799 q 642 849 664 839 q 586 863 619 860 q 519 865 553 865 q 433 865 468 865 q 376 860 399 864 q 353 732 364 821 q 333 511 343 643 l 622 514 q 638 508 632 514 q 640 492 643 503 q 635 471 639 486 q 628 444 631 456 q 622 410 625 428 q 619 371 619 392 l 586 363 l 581 369 q 586 406 586 388 q 569 442 586 431 q 514 454 553 453 q 381 458 435 458 q 353 458 367 458 q 329 457 340 458 q 324 358 326 413 q 319 249 321 303 q 317 156 317 196 q 317 117 317 133 q 319 93 318 101 q 340 63 321 69 q 372 56 349 60 q 425 47 394 51 q 492 43 454 43 q 676 75 629 43 q 701 98 688 83 q 729 135 714 113 q 753 178 744 158 q 761 207 763 197 l 793 194 q 765 130 776 164 q 746 58 754 96 q 735 25 742 40 q 721 3 729 10 q 665 -15 703 -15 m 549 1021 q 498 1028 533 1021 q 422 1053 463 1035 q 334 1097 358 1082 q 292 1122 310 1111 q 276 1138 276 1133 q 303 1150 276 1140 q 353 1174 324 1157 q 436 1107 356 1169 q 487 1074 447 1097 q 569 1036 526 1051 q 572 1033 572 1033 q 549 1021 572 1029 z "},"Ẻ":{"ha":821,"x_min":0,"x_max":793,"o":"m 665 -15 q 656 -15 661 -15 q 646 -14 651 -15 q 403 3 490 -3 q 296 8 315 8 q 256 8 275 8 q 219 6 236 7 q 147 1 201 4 q 0 -11 93 -3 l 21 32 q 80 36 46 31 q 142 56 114 42 q 179 93 171 69 q 195 193 188 121 q 211 383 203 265 l 229 642 q 232 699 232 672 q 232 749 232 726 q 217 875 232 860 q 138 900 196 900 q 118 899 128 900 q 97 897 108 899 l 118 936 q 201 926 154 931 q 308 924 249 922 l 703 928 q 721 906 721 926 q 716 878 721 899 q 697 818 711 858 q 683 763 689 789 q 674 722 676 738 l 635 732 q 664 815 664 799 q 642 849 664 839 q 586 863 619 860 q 519 865 553 865 q 433 865 468 865 q 376 860 399 864 q 353 732 364 821 q 333 511 343 643 l 622 514 q 638 508 632 514 q 640 492 643 503 q 635 471 639 486 q 628 444 631 456 q 622 410 625 428 q 619 371 619 392 l 586 363 l 581 369 q 586 406 586 388 q 569 442 586 431 q 514 454 553 453 q 381 458 435 458 q 353 458 367 458 q 329 457 340 458 q 324 358 326 413 q 319 249 321 303 q 317 156 317 196 q 317 117 317 133 q 319 93 318 101 q 340 63 321 69 q 372 56 349 60 q 425 47 394 51 q 492 43 454 43 q 676 75 629 43 q 701 98 688 83 q 729 135 714 113 q 753 178 744 158 q 761 207 763 197 l 793 194 q 765 130 776 164 q 746 58 754 96 q 735 25 742 40 q 721 3 729 10 q 665 -15 703 -15 m 450 1021 q 448 1032 449 1026 q 447 1043 447 1038 q 458 1078 447 1067 q 480 1103 469 1090 q 490 1142 490 1115 q 483 1164 490 1153 q 457 1175 476 1175 q 428 1166 439 1175 q 417 1144 418 1157 l 394 1140 q 386 1161 393 1144 q 379 1179 379 1178 q 386 1190 379 1188 q 474 1217 429 1217 q 539 1199 513 1217 q 565 1154 565 1181 q 553 1106 565 1122 q 526 1078 542 1089 q 498 1056 510 1068 q 486 1021 486 1044 l 450 1021 z "},"Ȇ":{"ha":821,"x_min":0,"x_max":793,"o":"m 482 1163 q 621 1133 576 1163 q 671 1039 665 1103 l 593 1019 q 566 1080 588 1057 q 478 1103 544 1103 q 384 1089 421 1103 q 343 1029 347 1075 l 275 1011 q 295 1067 275 1047 q 342 1110 315 1086 q 394 1147 365 1132 q 482 1163 422 1163 m 665 -15 q 656 -15 661 -15 q 646 -14 651 -15 q 403 3 490 -3 q 296 8 315 8 q 256 8 275 8 q 219 6 236 7 q 147 1 201 4 q 0 -11 93 -3 l 21 32 q 80 36 46 31 q 142 56 114 42 q 179 93 171 69 q 195 193 188 121 q 211 383 203 265 l 229 642 q 232 699 232 672 q 232 749 232 726 q 217 875 232 860 q 138 900 196 900 q 118 899 128 900 q 97 897 108 899 l 118 936 q 201 926 154 931 q 308 924 249 922 l 703 928 q 721 906 721 926 q 716 878 721 899 q 697 818 711 858 q 683 763 689 789 q 674 722 676 738 l 635 732 q 664 815 664 799 q 642 849 664 839 q 586 863 619 860 q 519 865 553 865 q 433 865 468 865 q 376 860 399 864 q 353 732 364 821 q 333 511 343 643 l 622 514 q 638 508 632 514 q 640 492 643 503 q 635 471 639 486 q 628 444 631 456 q 622 410 625 428 q 619 371 619 392 l 586 363 l 581 369 q 586 406 586 388 q 569 442 586 431 q 514 454 553 453 q 381 458 435 458 q 353 458 367 458 q 329 457 340 458 q 324 358 326 413 q 319 249 321 303 q 317 156 317 196 q 317 117 317 133 q 319 93 318 101 q 340 63 321 69 q 372 56 349 60 q 425 47 394 51 q 492 43 454 43 q 676 75 629 43 q 701 98 688 83 q 729 135 714 113 q 753 178 744 158 q 761 207 763 197 l 793 194 q 765 130 776 164 q 746 58 754 96 q 735 25 742 40 q 721 3 729 10 q 665 -15 703 -15 z "},"Ē":{"ha":821,"x_min":0,"x_max":793,"o":"m 665 -15 q 656 -15 661 -15 q 646 -14 651 -15 q 403 3 490 -3 q 296 8 315 8 q 256 8 275 8 q 219 6 236 7 q 147 1 201 4 q 0 -11 93 -3 l 21 32 q 80 36 46 31 q 142 56 114 42 q 179 93 171 69 q 195 193 188 121 q 211 383 203 265 l 229 642 q 232 699 232 672 q 232 749 232 726 q 217 875 232 860 q 138 900 196 900 q 118 899 128 900 q 97 897 108 899 l 118 936 q 201 926 154 931 q 308 924 249 922 l 703 928 q 721 906 721 926 q 716 878 721 899 q 697 818 711 858 q 683 763 689 789 q 674 722 676 738 l 635 732 q 664 815 664 799 q 642 849 664 839 q 586 863 619 860 q 519 865 553 865 q 433 865 468 865 q 376 860 399 864 q 353 732 364 821 q 333 511 343 643 l 622 514 q 638 508 632 514 q 640 492 643 503 q 635 471 639 486 q 628 444 631 456 q 622 410 625 428 q 619 371 619 392 l 586 363 l 581 369 q 586 406 586 388 q 569 442 586 431 q 514 454 553 453 q 381 458 435 458 q 353 458 367 458 q 329 457 340 458 q 324 358 326 413 q 319 249 321 303 q 317 156 317 196 q 317 117 317 133 q 319 93 318 101 q 340 63 321 69 q 372 56 349 60 q 425 47 394 51 q 492 43 454 43 q 676 75 629 43 q 701 98 688 83 q 729 135 714 113 q 753 178 744 158 q 761 207 763 197 l 793 194 q 765 130 776 164 q 746 58 754 96 q 735 25 742 40 q 721 3 729 10 q 665 -15 703 -15 m 632 1021 q 563 1032 611 1028 q 469 1036 514 1036 q 414 1035 449 1036 q 342 1031 379 1033 q 272 1024 304 1029 q 271 1026 271 1024 q 282 1071 271 1038 q 303 1100 294 1103 q 344 1092 317 1096 q 406 1088 372 1089 q 467 1085 439 1086 q 519 1086 486 1085 q 579 1090 551 1088 q 640 1096 622 1094 q 661 1097 658 1097 q 663 1094 663 1097 q 651 1051 663 1082 q 632 1021 639 1018 z "},"Ŋ":{"ha":1121,"x_min":-40,"x_max":1118,"o":"m 700 -558 q 583 -551 640 -558 q 461 -517 526 -544 l 460 -510 l 465 -503 q 492 -440 475 -503 q 524 -283 510 -376 l 565 -290 q 554 -351 560 -314 q 549 -417 549 -387 q 628 -511 549 -511 q 732 -460 692 -511 q 782 -314 772 -408 q 792 -208 788 -264 q 799 -100 796 -153 q 803 -8 801 -47 q 803 47 804 31 l 790 63 q 751 107 772 83 q 707 157 731 131 l 486 404 q 232 696 393 507 q 208 525 217 617 q 197 347 200 433 q 193 200 193 261 q 194 143 193 167 q 196 110 194 119 q 293 36 208 36 q 319 37 306 36 q 343 39 332 38 l 314 -3 q 217 6 267 3 q 117 10 167 10 q 28 6 67 10 q -40 -4 -11 1 l -18 36 q 54 49 26 35 q 83 86 82 64 q 104 244 94 175 q 119 365 114 314 q 136 493 135 469 q 147 642 143 576 q 150 756 150 708 q 149 811 150 788 q 144 851 147 835 q 124 888 142 878 q 71 899 107 899 q 44 897 58 899 q 15 890 31 896 l 36 933 q 72 928 51 929 q 114 928 92 928 q 160 928 136 928 q 210 932 183 929 l 215 929 q 363 719 296 808 q 491 560 431 631 q 612 427 551 490 q 739 297 672 364 l 836 200 q 850 316 843 247 q 863 463 857 385 q 872 615 868 540 q 879 747 876 689 q 882 832 882 804 q 803 904 882 904 q 788 903 796 904 q 768 901 779 903 l 743 897 l 765 933 q 817 928 775 932 q 938 919 860 924 q 1063 931 1017 924 q 1118 943 1108 938 l 1094 908 q 992 858 1007 908 q 955 668 969 779 q 931 429 940 557 q 914 173 921 301 q 903 -71 907 44 l 892 -269 q 833 -483 882 -408 q 700 -558 783 -558 z "},"Ę":{"ha":821,"x_min":0,"x_max":793,"o":"m 665 -15 q 656 -15 661 -15 q 646 -14 651 -15 q 403 3 490 -3 q 296 8 315 8 q 256 8 275 8 q 219 6 236 7 q 147 1 201 4 q 0 -11 93 -3 l 21 32 q 80 36 46 31 q 142 56 114 42 q 179 93 171 69 q 195 193 188 121 q 211 383 203 265 l 229 642 q 232 699 232 672 q 232 749 232 726 q 217 875 232 860 q 138 900 196 900 q 118 899 128 900 q 97 897 108 899 l 118 936 q 201 926 154 931 q 308 924 249 922 l 703 928 q 721 906 721 926 q 716 878 721 899 q 697 818 711 858 q 683 763 689 789 q 674 722 676 738 l 635 732 q 664 815 664 799 q 642 849 664 839 q 586 863 619 860 q 519 865 553 865 q 433 865 468 865 q 376 860 399 864 q 353 732 364 821 q 333 511 343 643 l 622 514 q 638 508 632 514 q 640 492 643 503 q 635 471 639 486 q 628 444 631 456 q 622 410 625 428 q 619 371 619 392 l 586 363 l 581 369 q 586 406 586 388 q 569 442 586 431 q 514 454 553 453 q 381 458 435 458 q 353 458 367 458 q 329 457 340 458 q 324 358 326 413 q 319 249 321 303 q 317 156 317 196 q 317 117 317 133 q 319 93 318 101 q 340 63 321 69 q 372 56 349 60 q 425 47 394 51 q 492 43 454 43 q 676 75 629 43 q 701 98 688 83 q 729 135 714 113 q 753 178 744 158 q 761 207 763 197 l 793 194 q 765 130 776 164 q 746 58 754 96 q 735 25 742 40 q 721 3 729 10 q 665 -15 703 -15 m 600 -258 q 523 -230 553 -258 q 493 -154 493 -201 q 520 -85 493 -118 q 585 -26 547 -51 q 653 14 622 0 l 697 14 q 660 -14 682 4 q 613 -56 638 -32 q 578 -103 589 -78 q 567 -151 567 -128 q 581 -195 567 -178 q 622 -212 596 -212 q 654 -207 639 -212 q 687 -191 675 -200 q 715 -172 699 -182 l 715 -210 q 667 -243 699 -228 q 600 -258 635 -258 z "},"Ð":{"ha":1076,"x_min":0,"x_max":1028,"o":"m 0 -11 l 24 31 q 33 28 26 29 q 46 28 39 28 q 122 42 90 28 q 176 90 165 58 q 192 191 183 118 q 208 383 200 264 q 222 603 218 510 q 226 760 226 697 q 215 872 226 858 q 154 893 194 893 q 97 885 129 893 l 118 928 q 214 919 169 922 q 294 917 258 917 q 331 917 314 917 q 361 919 347 918 q 449 927 407 925 q 529 929 492 929 q 978 718 864 929 q 1028 508 1028 626 q 1012 377 1028 442 q 965 251 996 313 q 912 167 940 204 q 850 107 883 131 q 467 -7 690 -7 q 417 -6 443 -7 q 367 -1 392 -4 q 267 3 324 3 q 146 -1 213 3 q 0 -11 79 -4 m 483 39 q 540 43 514 39 q 665 76 610 54 q 758 133 719 99 q 888 478 876 239 q 801 751 896 639 q 581 874 714 854 q 537 878 558 876 q 494 881 515 881 q 374 863 389 881 q 326 450 346 810 q 317 294 321 379 q 311 107 314 208 q 483 39 338 39 m 449 401 q 382 412 422 408 q 285 417 342 415 q 88 404 204 417 q 86 407 86 404 q 100 450 86 421 q 125 479 115 482 q 282 464 178 464 q 334 465 306 464 q 397 469 363 467 q 460 474 438 472 q 486 476 482 476 q 488 474 488 476 q 474 431 488 463 q 449 401 457 400 z "},"Ẽ":{"ha":821,"x_min":0,"x_max":793,"o":"m 665 -15 q 656 -15 661 -15 q 646 -14 651 -15 q 403 3 490 -3 q 296 8 315 8 q 256 8 275 8 q 219 6 236 7 q 147 1 201 4 q 0 -11 93 -3 l 21 32 q 80 36 46 31 q 142 56 114 42 q 179 93 171 69 q 195 193 188 121 q 211 383 203 265 l 229 642 q 232 699 232 672 q 232 749 232 726 q 217 875 232 860 q 138 900 196 900 q 118 899 128 900 q 97 897 108 899 l 118 936 q 201 926 154 931 q 308 924 249 922 l 703 928 q 721 906 721 926 q 716 878 721 899 q 697 818 711 858 q 683 763 689 789 q 674 722 676 738 l 635 732 q 664 815 664 799 q 642 849 664 839 q 586 863 619 860 q 519 865 553 865 q 433 865 468 865 q 376 860 399 864 q 353 732 364 821 q 333 511 343 643 l 622 514 q 638 508 632 514 q 640 492 643 503 q 635 471 639 486 q 628 444 631 456 q 622 410 625 428 q 619 371 619 392 l 586 363 l 581 369 q 586 406 586 388 q 569 442 586 431 q 514 454 553 453 q 381 458 435 458 q 353 458 367 458 q 329 457 340 458 q 324 358 326 413 q 319 249 321 303 q 317 156 317 196 q 317 117 317 133 q 319 93 318 101 q 340 63 321 69 q 372 56 349 60 q 425 47 394 51 q 492 43 454 43 q 676 75 629 43 q 701 98 688 83 q 729 135 714 113 q 753 178 744 158 q 761 207 763 197 l 793 194 q 765 130 776 164 q 746 58 754 96 q 735 25 742 40 q 721 3 729 10 q 665 -15 703 -15 m 558 1021 q 492 1040 526 1021 q 425 1076 457 1058 q 368 1094 393 1094 q 329 1074 344 1094 q 303 1026 314 1054 l 274 1026 q 292 1090 274 1061 q 338 1138 310 1119 q 396 1156 367 1156 q 460 1139 429 1156 q 520 1106 492 1122 q 574 1089 549 1089 q 614 1109 597 1089 q 638 1153 631 1129 l 664 1153 q 630 1055 664 1089 q 558 1021 596 1021 z "},"F":{"ha":794,"x_min":0,"x_max":794,"o":"m 0 -11 l 22 32 q 33 31 28 31 q 43 31 38 31 q 124 46 81 31 q 178 93 167 61 q 191 163 185 118 q 205 286 197 207 q 222 493 213 365 q 235 758 235 664 q 231 838 235 808 q 206 881 226 868 q 138 894 186 894 q 119 894 129 894 q 97 893 108 894 l 119 935 q 308 922 219 925 q 538 926 421 925 q 778 928 656 926 q 794 907 794 924 q 782 857 794 894 q 758 777 768 815 q 744 722 749 739 l 706 732 q 726 784 721 768 q 733 814 731 800 q 668 861 733 853 q 524 865 635 865 q 432 863 468 864 q 376 858 396 861 q 356 735 367 822 q 333 511 344 649 l 622 514 q 638 508 632 514 q 640 492 643 503 q 635 471 639 486 q 628 444 631 456 q 622 410 625 428 q 619 371 619 392 l 586 363 l 581 369 q 586 406 586 388 q 569 442 586 431 q 514 454 553 453 q 381 458 435 458 l 329 458 q 322 310 325 382 q 319 182 319 239 q 320 133 319 156 q 322 93 321 111 q 349 56 324 69 q 410 38 374 42 q 479 35 446 33 l 454 -11 q 378 2 432 -1 q 239 4 325 6 q 151 1 211 4 q 0 -11 90 -3 z "},"G":{"ha":1110,"x_min":60,"x_max":1050,"o":"m 560 -8 q 247 65 372 -8 q 103 224 146 125 q 60 439 60 322 q 233 813 60 676 q 401 901 307 869 q 624 933 496 933 q 1013 868 846 933 l 1006 849 q 967 786 983 825 q 944 710 951 747 q 936 654 936 674 l 936 649 l 929 640 l 899 646 q 903 682 903 665 q 903 694 903 689 q 904 706 904 700 q 901 742 904 725 q 888 771 897 758 q 813 826 863 804 q 703 858 763 847 q 588 868 643 868 q 314 782 417 868 q 219 640 247 726 q 192 463 192 553 q 246 240 192 333 q 399 97 300 147 q 632 47 497 47 q 716 51 672 47 q 806 65 760 56 q 819 137 814 94 q 829 233 825 179 q 831 265 831 249 q 832 297 832 281 q 828 355 832 329 q 810 385 824 381 q 760 397 785 393 q 710 400 735 400 q 693 400 701 400 q 676 399 685 400 l 686 440 q 760 430 719 433 q 847 426 800 426 q 965 434 914 426 q 1050 454 1015 442 l 1040 414 q 954 351 968 418 q 938 192 942 300 q 935 152 936 172 q 935 113 935 132 q 943 33 935 61 l 938 19 q 917 22 926 21 q 896 22 907 22 q 849 17 889 22 q 756 7 810 13 q 648 -3 701 1 q 560 -8 594 -8 z "},"Ğ":{"ha":1110,"x_min":60,"x_max":1050,"o":"m 560 -8 q 247 65 372 -8 q 103 224 146 125 q 60 439 60 322 q 233 813 60 676 q 401 901 307 869 q 624 933 496 933 q 1013 868 846 933 l 1006 849 q 967 786 983 825 q 944 710 951 747 q 936 654 936 674 l 936 649 l 929 640 l 899 646 q 903 682 903 665 q 903 694 903 689 q 904 706 904 700 q 901 742 904 725 q 888 771 897 758 q 813 826 863 804 q 703 858 763 847 q 588 868 643 868 q 314 782 417 868 q 219 640 247 726 q 192 463 192 553 q 246 240 192 333 q 399 97 300 147 q 632 47 497 47 q 716 51 672 47 q 806 65 760 56 q 819 137 814 94 q 829 233 825 179 q 831 265 831 249 q 832 297 832 281 q 828 355 832 329 q 810 385 824 381 q 760 397 785 393 q 710 400 735 400 q 693 400 701 400 q 676 399 685 400 l 686 440 q 760 430 719 433 q 847 426 800 426 q 965 434 914 426 q 1050 454 1015 442 l 1040 414 q 954 351 968 418 q 938 192 942 300 q 935 152 936 172 q 935 113 935 132 q 943 33 935 61 l 938 19 q 917 22 926 21 q 896 22 907 22 q 849 17 889 22 q 756 7 810 13 q 648 -3 701 1 q 560 -8 594 -8 m 618 1021 q 480 1051 525 1021 q 429 1144 435 1081 l 507 1164 q 534 1103 513 1126 q 622 1081 556 1081 q 716 1094 679 1081 q 757 1154 753 1108 l 825 1172 q 805 1117 825 1138 q 758 1074 785 1097 q 708 1036 736 1051 q 618 1021 679 1021 z "},"Ǧ":{"ha":1110,"x_min":60,"x_max":1050,"o":"m 496 1183 q 527 1172 506 1183 q 572 1144 549 1161 q 627 1103 613 1118 q 653 1076 642 1089 q 661 1076 657 1071 q 745 1147 719 1124 q 796 1179 771 1169 q 806 1181 799 1181 q 824 1181 814 1181 q 849 1181 836 1181 q 864 1179 863 1181 q 810 1141 846 1164 q 733 1088 774 1118 q 658 1024 693 1058 q 629 1019 644 1021 q 603 1018 614 1018 q 592 1019 593 1018 l 514 1083 q 477 1115 493 1101 q 456 1132 461 1128 q 429 1141 446 1139 q 403 1143 413 1143 l 407 1157 q 446 1167 421 1160 q 486 1182 471 1175 q 496 1183 489 1183 m 560 -8 q 247 65 372 -8 q 103 224 146 125 q 60 439 60 322 q 233 813 60 676 q 401 901 307 869 q 624 933 496 933 q 1013 868 846 933 l 1006 849 q 967 786 983 825 q 944 710 951 747 q 936 654 936 674 l 936 649 l 929 640 l 899 646 q 903 682 903 665 q 903 694 903 689 q 904 706 904 700 q 901 742 904 725 q 888 771 897 758 q 813 826 863 804 q 703 858 763 847 q 588 868 643 868 q 314 782 417 868 q 219 640 247 726 q 192 463 192 553 q 246 240 192 333 q 399 97 300 147 q 632 47 497 47 q 716 51 672 47 q 806 65 760 56 q 819 137 814 94 q 829 233 825 179 q 831 265 831 249 q 832 297 832 281 q 828 355 832 329 q 810 385 824 381 q 760 397 785 393 q 710 400 735 400 q 693 400 701 400 q 676 399 685 400 l 686 440 q 760 430 719 433 q 847 426 800 426 q 965 434 914 426 q 1050 454 1015 442 l 1040 414 q 954 351 968 418 q 938 192 942 300 q 935 152 936 172 q 935 113 935 132 q 943 33 935 61 l 938 19 q 917 22 926 21 q 896 22 907 22 q 849 17 889 22 q 756 7 810 13 q 648 -3 701 1 q 560 -8 594 -8 z "},"Ĝ":{"ha":1110,"x_min":60,"x_max":1050,"o":"m 560 -8 q 247 65 372 -8 q 103 224 146 125 q 60 439 60 322 q 233 813 60 676 q 401 901 307 869 q 624 933 496 933 q 1013 868 846 933 l 1006 849 q 967 786 983 825 q 944 710 951 747 q 936 654 936 674 l 936 649 l 929 640 l 899 646 q 903 682 903 665 q 903 694 903 689 q 904 706 904 700 q 901 742 904 725 q 888 771 897 758 q 813 826 863 804 q 703 858 763 847 q 588 868 643 868 q 314 782 417 868 q 219 640 247 726 q 192 463 192 553 q 246 240 192 333 q 399 97 300 147 q 632 47 497 47 q 716 51 672 47 q 806 65 760 56 q 819 137 814 94 q 829 233 825 179 q 831 265 831 249 q 832 297 832 281 q 828 355 832 329 q 810 385 824 381 q 760 397 785 393 q 710 400 735 400 q 693 400 701 400 q 676 399 685 400 l 686 440 q 760 430 719 433 q 847 426 800 426 q 965 434 914 426 q 1050 454 1015 442 l 1040 414 q 954 351 968 418 q 938 192 942 300 q 935 152 936 172 q 935 113 935 132 q 943 33 935 61 l 938 19 q 917 22 926 21 q 896 22 907 22 q 849 17 889 22 q 756 7 810 13 q 648 -3 701 1 q 560 -8 594 -8 m 792 1019 q 760 1031 782 1019 q 715 1058 739 1042 q 661 1100 676 1086 q 635 1126 646 1114 q 626 1126 631 1133 q 542 1057 568 1079 q 492 1024 517 1035 q 481 1022 489 1022 q 464 1022 474 1022 q 439 1022 451 1022 q 424 1024 426 1022 q 478 1062 443 1039 q 554 1115 514 1085 q 629 1179 594 1144 q 658 1183 643 1182 q 685 1185 674 1185 q 696 1183 694 1185 l 774 1119 q 810 1088 794 1101 q 832 1071 826 1075 q 858 1062 842 1064 q 885 1060 875 1060 l 881 1046 q 842 1035 867 1043 q 801 1021 817 1028 q 792 1019 799 1019 z "},"Ģ":{"ha":1110,"x_min":60,"x_max":1050,"o":"m 560 -8 q 247 65 372 -8 q 103 224 146 125 q 60 439 60 322 q 233 813 60 676 q 401 901 307 869 q 624 933 496 933 q 1013 868 846 933 l 1006 849 q 967 786 983 825 q 944 710 951 747 q 936 654 936 674 l 936 649 l 929 640 l 899 646 q 903 682 903 665 q 903 694 903 689 q 904 706 904 700 q 901 742 904 725 q 888 771 897 758 q 813 826 863 804 q 703 858 763 847 q 588 868 643 868 q 314 782 417 868 q 219 640 247 726 q 192 463 192 553 q 246 240 192 333 q 399 97 300 147 q 632 47 497 47 q 716 51 672 47 q 806 65 760 56 q 819 137 814 94 q 829 233 825 179 q 831 265 831 249 q 832 297 832 281 q 828 355 832 329 q 810 385 824 381 q 760 397 785 393 q 710 400 735 400 q 693 400 701 400 q 676 399 685 400 l 686 440 q 760 430 719 433 q 847 426 800 426 q 965 434 914 426 q 1050 454 1015 442 l 1040 414 q 954 351 968 418 q 938 192 942 300 q 935 152 936 172 q 935 113 935 132 q 943 33 935 61 l 938 19 q 917 22 926 21 q 896 22 907 22 q 849 17 889 22 q 756 7 810 13 q 648 -3 701 1 q 560 -8 594 -8 m 486 -426 l 486 -410 q 497 -387 486 -401 q 557 -246 557 -328 q 539 -201 557 -221 q 493 -176 521 -181 l 497 -154 q 544 -128 521 -150 l 558 -114 q 569 -106 565 -106 q 625 -189 625 -114 q 511 -410 622 -318 q 499 -419 506 -414 q 486 -426 493 -424 z "},"Ġ":{"ha":1110,"x_min":60,"x_max":1050,"o":"m 560 -8 q 247 65 372 -8 q 103 224 146 125 q 60 439 60 322 q 233 813 60 676 q 401 901 307 869 q 624 933 496 933 q 1013 868 846 933 l 1006 849 q 967 786 983 825 q 944 710 951 747 q 936 654 936 674 l 936 649 l 929 640 l 899 646 q 903 682 903 665 q 903 694 903 689 q 904 706 904 700 q 901 742 904 725 q 888 771 897 758 q 813 826 863 804 q 703 858 763 847 q 588 868 643 868 q 314 782 417 868 q 219 640 247 726 q 192 463 192 553 q 246 240 192 333 q 399 97 300 147 q 632 47 497 47 q 716 51 672 47 q 806 65 760 56 q 819 137 814 94 q 829 233 825 179 q 831 265 831 249 q 832 297 832 281 q 828 355 832 329 q 810 385 824 381 q 760 397 785 393 q 710 400 735 400 q 693 400 701 400 q 676 399 685 400 l 686 440 q 760 430 719 433 q 847 426 800 426 q 965 434 914 426 q 1050 454 1015 442 l 1040 414 q 954 351 968 418 q 938 192 942 300 q 935 152 936 172 q 935 113 935 132 q 943 33 935 61 l 938 19 q 917 22 926 21 q 896 22 907 22 q 849 17 889 22 q 756 7 810 13 q 648 -3 701 1 q 560 -8 594 -8 m 619 1021 q 581 1042 604 1021 q 558 1072 558 1060 q 594 1110 558 1081 q 628 1131 622 1131 q 642 1124 635 1131 q 654 1116 649 1119 q 665 1110 660 1113 q 706 1100 683 1100 q 713 1094 713 1100 q 710 1085 714 1089 l 674 1054 q 619 1021 635 1021 z "},"ẞ":{"ha":822,"x_min":-22,"x_max":771,"o":"m 433 -25 q 318 15 361 -19 q 293 88 293 36 q 297 123 293 110 q 311 136 301 136 q 321 131 315 136 q 488 39 400 39 q 561 61 525 39 q 646 222 646 117 q 617 333 646 288 q 562 378 599 358 q 479 419 525 397 q 436 440 458 429 q 390 461 414 450 q 357 513 357 483 q 388 568 357 542 q 408 585 397 576 q 432 604 419 594 q 501 663 465 632 q 563 723 538 693 q 590 778 589 753 q 549 874 594 836 q 440 906 501 906 q 357 876 393 906 q 310 785 315 844 q 286 580 297 697 q 264 328 275 463 l 243 97 q 243 87 243 92 q 242 76 243 82 q 239 37 242 57 q 222 6 236 17 q 193 -3 213 -1 q 153 -6 174 -4 l 128 -6 q 106 -6 118 -6 q 81 -7 93 -6 q 23 -8 51 -7 q -22 -11 -6 -8 q -16 2 -18 -4 q -12 13 -14 8 q 4 31 -7 31 q 71 49 44 31 q 115 116 97 68 q 145 249 133 164 q 167 467 157 333 q 175 612 172 553 q 179 710 178 671 q 184 787 182 761 q 192 829 186 813 q 213 867 199 846 q 394 940 256 932 q 426 942 411 942 q 460 943 442 943 q 662 916 592 943 q 728 833 732 889 q 693 767 726 804 q 615 691 660 729 q 528 621 569 653 q 463 569 481 585 q 446 550 446 554 l 446 549 q 475 525 446 538 q 771 263 771 435 q 714 133 771 179 l 613 50 q 574 17 589 29 q 554 3 560 6 q 454 -25 511 -25 l 433 -25 z "},"H":{"ha":1238,"x_min":7,"x_max":1231,"o":"m 460 -11 q 366 1 422 -4 q 244 6 310 6 q 123 2 185 6 q 7 -10 61 -1 l 28 32 q 42 30 35 31 q 56 29 49 29 q 135 46 94 29 q 186 93 176 63 q 222 388 206 157 q 239 764 239 640 q 230 869 239 840 q 171 899 221 899 q 141 897 157 899 q 106 893 125 896 l 128 935 q 176 930 142 933 q 249 924 211 926 q 307 922 286 922 q 419 928 361 922 q 528 938 478 933 l 496 900 q 482 902 489 901 q 468 903 475 903 q 397 873 421 903 q 364 790 374 843 q 351 667 354 738 q 342 515 347 597 q 629 507 496 507 q 782 509 707 507 q 933 514 857 511 q 942 668 940 600 q 943 783 943 736 q 933 875 943 849 q 865 901 922 901 q 807 893 840 901 l 831 935 q 881 930 844 933 q 956 924 917 926 q 1018 922 996 922 q 1082 925 1044 922 q 1159 931 1119 928 q 1231 938 1199 935 l 1199 900 q 1187 901 1193 901 q 1174 901 1181 901 q 1103 881 1124 901 q 1076 816 1082 860 q 1063 706 1071 772 q 1047 553 1054 633 q 1035 386 1040 472 q 1031 258 1033 314 q 1029 163 1029 201 q 1042 77 1029 106 q 1089 40 1054 49 q 1188 35 1124 32 l 1160 -11 q 1075 1 1132 -4 q 949 6 1018 6 q 826 1 889 6 q 710 -10 764 -3 l 731 32 q 771 28 750 28 q 842 43 808 28 q 886 90 876 58 q 903 173 896 122 q 915 278 910 224 q 923 378 919 333 q 928 446 926 424 q 610 450 751 450 q 338 446 453 450 q 334 369 336 422 q 330 255 332 315 q 328 147 328 194 q 328 115 328 129 q 329 90 328 100 q 370 46 332 60 q 449 32 408 32 q 467 33 458 32 q 485 35 476 33 l 460 -11 z "},"Ħ":{"ha":1238,"x_min":7,"x_max":1231,"o":"m 460 -11 q 366 1 422 -4 q 244 6 310 6 q 123 2 185 6 q 7 -10 61 -1 l 28 32 q 42 30 35 31 q 56 29 49 29 q 135 46 94 29 q 186 93 176 63 q 222 388 206 157 q 239 764 239 640 q 230 869 239 840 q 171 899 221 899 q 141 897 157 899 q 106 893 125 896 l 128 935 q 176 930 142 933 q 249 924 211 926 q 307 922 286 922 q 419 928 361 922 q 528 938 478 933 l 496 900 q 482 902 489 901 q 468 903 475 903 q 397 873 421 903 q 364 790 374 843 q 351 667 354 738 q 342 515 347 597 q 629 507 496 507 q 782 509 707 507 q 933 514 857 511 q 942 668 940 600 q 943 783 943 736 q 933 875 943 849 q 865 901 922 901 q 807 893 840 901 l 831 935 q 881 930 844 933 q 956 924 917 926 q 1018 922 996 922 q 1082 925 1044 922 q 1159 931 1119 928 q 1231 938 1199 935 l 1199 900 q 1187 901 1193 901 q 1174 901 1181 901 q 1103 881 1124 901 q 1076 816 1082 860 q 1063 706 1071 772 q 1047 553 1054 633 q 1035 386 1040 472 q 1031 258 1033 314 q 1029 163 1029 201 q 1042 77 1029 106 q 1089 40 1054 49 q 1188 35 1124 32 l 1160 -11 q 1075 1 1132 -4 q 949 6 1018 6 q 826 1 889 6 q 710 -10 764 -3 l 731 32 q 771 28 750 28 q 842 43 808 28 q 886 90 876 58 q 903 173 896 122 q 915 278 910 224 q 923 378 919 333 q 928 446 926 424 q 610 450 751 450 q 338 446 453 450 q 334 369 336 422 q 330 255 332 315 q 328 147 328 194 q 328 115 328 129 q 329 90 328 100 q 370 46 332 60 q 449 32 408 32 q 467 33 458 32 q 485 35 476 33 l 460 -11 m 1051 669 q 876 680 983 676 q 625 685 769 683 q 111 672 411 685 l 110 672 q 104 682 104 672 q 121 724 104 701 q 161 747 140 750 q 333 736 231 740 q 572 732 435 732 q 711 733 636 732 q 871 738 786 735 l 1101 744 q 1110 735 1110 744 q 1092 693 1110 715 q 1051 669 1074 667 z "},"Ĥ":{"ha":1238,"x_min":7,"x_max":1231,"o":"m 460 -11 q 366 1 422 -4 q 244 6 310 6 q 123 2 185 6 q 7 -10 61 -1 l 28 32 q 42 30 35 31 q 56 29 49 29 q 135 46 94 29 q 186 93 176 63 q 222 388 206 157 q 239 764 239 640 q 230 869 239 840 q 171 899 221 899 q 141 897 157 899 q 106 893 125 896 l 128 935 q 176 930 142 933 q 249 924 211 926 q 307 922 286 922 q 419 928 361 922 q 528 938 478 933 l 496 900 q 482 902 489 901 q 468 903 475 903 q 397 873 421 903 q 364 790 374 843 q 351 667 354 738 q 342 515 347 597 q 629 507 496 507 q 782 509 707 507 q 933 514 857 511 q 942 668 940 600 q 943 783 943 736 q 933 875 943 849 q 865 901 922 901 q 807 893 840 901 l 831 935 q 881 930 844 933 q 956 924 917 926 q 1018 922 996 922 q 1082 925 1044 922 q 1159 931 1119 928 q 1231 938 1199 935 l 1199 900 q 1187 901 1193 901 q 1174 901 1181 901 q 1103 881 1124 901 q 1076 816 1082 860 q 1063 706 1071 772 q 1047 553 1054 633 q 1035 386 1040 472 q 1031 258 1033 314 q 1029 163 1029 201 q 1042 77 1029 106 q 1089 40 1054 49 q 1188 35 1124 32 l 1160 -11 q 1075 1 1132 -4 q 949 6 1018 6 q 826 1 889 6 q 710 -10 764 -3 l 731 32 q 771 28 750 28 q 842 43 808 28 q 886 90 876 58 q 903 173 896 122 q 915 278 910 224 q 923 378 919 333 q 928 446 926 424 q 610 450 751 450 q 338 446 453 450 q 334 369 336 422 q 330 255 332 315 q 328 147 328 194 q 328 115 328 129 q 329 90 328 100 q 370 46 332 60 q 449 32 408 32 q 467 33 458 32 q 485 35 476 33 l 460 -11 m 821 1019 q 790 1031 811 1019 q 749 1064 769 1043 q 713 1101 725 1088 q 689 1126 700 1114 q 681 1126 685 1133 q 616 1057 639 1079 q 568 1024 593 1035 q 558 1022 565 1022 q 540 1022 550 1022 q 515 1022 528 1022 q 500 1024 503 1022 q 553 1067 519 1039 q 624 1125 588 1094 q 683 1179 660 1156 q 713 1183 697 1182 q 739 1185 728 1185 q 750 1183 750 1185 l 806 1122 q 840 1089 825 1103 q 861 1071 856 1075 q 888 1062 871 1064 q 914 1060 904 1060 l 910 1046 q 871 1035 896 1043 q 831 1021 846 1028 q 821 1019 828 1019 z "},"I":{"ha":535,"x_min":7,"x_max":528,"o":"m 458 -11 q 384 1 446 -6 q 244 7 322 7 q 126 1 185 7 q 7 -10 67 -4 l 28 32 q 63 28 43 28 q 136 43 99 28 q 183 90 174 58 q 221 394 204 160 q 229 520 225 451 q 235 656 233 589 q 238 769 238 722 q 237 795 238 783 q 236 815 236 807 q 221 878 235 860 q 169 897 207 897 q 140 895 157 897 q 104 890 124 893 l 128 935 q 172 930 142 933 q 241 924 203 926 q 315 922 279 922 q 422 928 364 922 q 528 938 481 933 l 494 897 q 477 899 485 899 q 463 900 469 900 q 398 874 417 900 q 369 799 379 847 q 351 641 360 742 q 333 393 342 540 q 329 274 332 338 q 326 160 326 211 q 327 120 326 138 q 329 90 328 103 q 369 45 332 60 q 446 31 407 31 q 483 35 467 31 l 458 -11 z "},"Í":{"ha":535,"x_min":7,"x_max":528,"o":"m 458 -11 q 384 1 446 -6 q 244 7 322 7 q 126 1 185 7 q 7 -10 67 -4 l 28 32 q 63 28 43 28 q 136 43 99 28 q 183 90 174 58 q 221 394 204 160 q 229 520 225 451 q 235 656 233 589 q 238 769 238 722 q 237 795 238 783 q 236 815 236 807 q 221 878 235 860 q 169 897 207 897 q 140 895 157 897 q 104 890 124 893 l 128 935 q 172 930 142 933 q 241 924 203 926 q 315 922 279 922 q 422 928 364 922 q 528 938 481 933 l 494 897 q 477 899 485 899 q 463 900 469 900 q 398 874 417 900 q 369 799 379 847 q 351 641 360 742 q 333 393 342 540 q 329 274 332 338 q 326 160 326 211 q 327 120 326 138 q 329 90 328 103 q 369 45 332 60 q 446 31 407 31 q 483 35 467 31 l 458 -11 m 225 1021 q 201 1033 201 1029 q 204 1036 201 1033 q 288 1074 249 1051 q 338 1107 326 1097 q 421 1174 418 1169 q 471 1150 450 1157 q 497 1138 497 1140 q 482 1122 497 1133 q 440 1097 464 1111 q 351 1053 417 1082 q 276 1028 313 1035 q 225 1021 240 1021 z "},"Ĭ":{"ha":535,"x_min":7,"x_max":528,"o":"m 458 -11 q 384 1 446 -6 q 244 7 322 7 q 126 1 185 7 q 7 -10 67 -4 l 28 32 q 63 28 43 28 q 136 43 99 28 q 183 90 174 58 q 221 394 204 160 q 229 520 225 451 q 235 656 233 589 q 238 769 238 722 q 237 795 238 783 q 236 815 236 807 q 221 878 235 860 q 169 897 207 897 q 140 895 157 897 q 104 890 124 893 l 128 935 q 172 930 142 933 q 241 924 203 926 q 315 922 279 922 q 422 928 364 922 q 528 938 481 933 l 494 897 q 477 899 485 899 q 463 900 469 900 q 398 874 417 900 q 369 799 379 847 q 351 641 360 742 q 333 393 342 540 q 329 274 332 338 q 326 160 326 211 q 327 120 326 138 q 329 90 328 103 q 369 45 332 60 q 446 31 407 31 q 483 35 467 31 l 458 -11 m 314 1021 q 176 1051 221 1021 q 125 1144 131 1081 l 203 1164 q 230 1103 208 1126 q 318 1081 251 1081 q 412 1094 375 1081 q 453 1154 449 1108 l 521 1172 q 501 1117 521 1138 q 454 1074 481 1097 q 403 1036 432 1051 q 314 1021 375 1021 z "},"Ǐ":{"ha":535,"x_min":7,"x_max":560,"o":"m 192 1183 q 223 1172 201 1183 q 268 1144 244 1161 q 323 1103 308 1118 q 349 1076 338 1089 q 357 1076 353 1071 q 441 1147 415 1124 q 492 1179 467 1169 q 502 1181 494 1181 q 519 1181 510 1181 q 545 1181 532 1181 q 560 1179 558 1181 q 506 1141 542 1164 q 429 1088 469 1118 q 354 1024 389 1058 q 325 1019 340 1021 q 299 1018 310 1018 q 288 1019 289 1018 l 210 1083 q 173 1115 189 1101 q 151 1132 157 1128 q 125 1141 142 1139 q 99 1143 108 1143 l 103 1157 q 142 1167 117 1160 q 182 1182 167 1175 q 192 1183 185 1183 m 458 -11 q 384 1 446 -6 q 244 7 322 7 q 126 1 185 7 q 7 -10 67 -4 l 28 32 q 63 28 43 28 q 136 43 99 28 q 183 90 174 58 q 221 394 204 160 q 229 520 225 451 q 235 656 233 589 q 238 769 238 722 q 237 795 238 783 q 236 815 236 807 q 221 878 235 860 q 169 897 207 897 q 140 895 157 897 q 104 890 124 893 l 128 935 q 172 930 142 933 q 241 924 203 926 q 315 922 279 922 q 422 928 364 922 q 528 938 481 933 l 494 897 q 477 899 485 899 q 463 900 469 900 q 398 874 417 900 q 369 799 379 847 q 351 641 360 742 q 333 393 342 540 q 329 274 332 338 q 326 160 326 211 q 327 120 326 138 q 329 90 328 103 q 369 45 332 60 q 446 31 407 31 q 483 35 467 31 l 458 -11 z "},"Î":{"ha":535,"x_min":7,"x_max":581,"o":"m 458 -11 q 384 1 446 -6 q 244 7 322 7 q 126 1 185 7 q 7 -10 67 -4 l 28 32 q 63 28 43 28 q 136 43 99 28 q 183 90 174 58 q 221 394 204 160 q 229 520 225 451 q 235 656 233 589 q 238 769 238 722 q 237 795 238 783 q 236 815 236 807 q 221 878 235 860 q 169 897 207 897 q 140 895 157 897 q 104 890 124 893 l 128 935 q 172 930 142 933 q 241 924 203 926 q 315 922 279 922 q 422 928 364 922 q 528 938 481 933 l 494 897 q 477 899 485 899 q 463 900 469 900 q 398 874 417 900 q 369 799 379 847 q 351 641 360 742 q 333 393 342 540 q 329 274 332 338 q 326 160 326 211 q 327 120 326 138 q 329 90 328 103 q 369 45 332 60 q 446 31 407 31 q 483 35 467 31 l 458 -11 m 488 1019 q 456 1031 478 1019 q 411 1058 435 1042 q 357 1100 372 1086 q 331 1126 342 1114 q 322 1126 326 1133 q 238 1057 264 1079 q 188 1024 213 1035 q 177 1022 185 1022 q 160 1022 169 1022 q 135 1022 147 1022 q 119 1024 122 1022 q 174 1062 139 1039 q 250 1115 210 1085 q 325 1179 290 1144 q 354 1183 339 1182 q 381 1185 369 1185 q 392 1183 390 1185 l 469 1119 q 506 1088 490 1101 q 528 1071 522 1075 q 554 1062 538 1064 q 581 1060 571 1060 l 576 1046 q 538 1035 563 1043 q 497 1021 513 1028 q 488 1019 494 1019 z "},"Ȉ":{"ha":535,"x_min":7,"x_max":528,"o":"m 458 -11 q 384 1 446 -6 q 244 7 322 7 q 126 1 185 7 q 7 -10 67 -4 l 28 32 q 63 28 43 28 q 136 43 99 28 q 183 90 174 58 q 221 394 204 160 q 229 520 225 451 q 235 656 233 589 q 238 769 238 722 q 237 795 238 783 q 236 815 236 807 q 221 878 235 860 q 169 897 207 897 q 140 895 157 897 q 104 890 124 893 l 128 935 q 172 930 142 933 q 241 924 203 926 q 315 922 279 922 q 422 928 364 922 q 528 938 481 933 l 494 897 q 477 899 485 899 q 463 900 469 900 q 398 874 417 900 q 369 799 379 847 q 351 641 360 742 q 333 393 342 540 q 329 274 332 338 q 326 160 326 211 q 327 120 326 138 q 329 90 328 103 q 369 45 332 60 q 446 31 407 31 q 483 35 467 31 l 458 -11 m 401 1024 q 293 1068 369 1028 q 181 1138 214 1107 q 167 1154 167 1147 q 194 1163 167 1156 q 247 1179 217 1167 q 263 1163 250 1176 q 301 1124 275 1149 q 348 1086 313 1115 q 424 1035 383 1057 q 426 1032 426 1032 q 401 1024 426 1028 m 263 1021 q 149 1050 231 1021 q 28 1103 65 1078 q 13 1118 13 1114 q 39 1131 13 1121 q 89 1154 60 1138 q 150 1107 93 1147 q 201 1076 161 1100 q 283 1036 240 1051 q 286 1033 286 1033 q 263 1021 286 1029 z "},"Ï":{"ha":535,"x_min":7,"x_max":528,"o":"m 458 -11 q 384 1 446 -6 q 244 7 322 7 q 126 1 185 7 q 7 -10 67 -4 l 28 32 q 63 28 43 28 q 136 43 99 28 q 183 90 174 58 q 221 394 204 160 q 229 520 225 451 q 235 656 233 589 q 238 769 238 722 q 237 795 238 783 q 236 815 236 807 q 221 878 235 860 q 169 897 207 897 q 140 895 157 897 q 104 890 124 893 l 128 935 q 172 930 142 933 q 241 924 203 926 q 315 922 279 922 q 422 928 364 922 q 528 938 481 933 l 494 897 q 477 899 485 899 q 463 900 469 900 q 398 874 417 900 q 369 799 379 847 q 351 641 360 742 q 333 393 342 540 q 329 274 332 338 q 326 160 326 211 q 327 120 326 138 q 329 90 328 103 q 369 45 332 60 q 446 31 407 31 q 483 35 467 31 l 458 -11 m 204 1021 q 165 1042 189 1021 q 143 1072 143 1060 q 179 1110 143 1081 q 213 1131 207 1131 q 226 1124 219 1131 q 239 1116 233 1119 q 250 1110 244 1113 q 290 1100 268 1100 q 297 1094 297 1100 q 294 1085 299 1089 l 258 1054 q 204 1021 219 1021 m 425 1021 q 386 1042 410 1021 q 365 1072 365 1061 q 400 1110 365 1081 q 435 1131 428 1131 q 447 1124 440 1131 q 460 1116 454 1119 q 471 1110 465 1113 q 511 1100 489 1100 q 519 1094 518 1100 q 515 1085 519 1089 q 503 1074 513 1082 q 479 1054 494 1067 q 425 1021 438 1021 z "},"İ":{"ha":535,"x_min":7,"x_max":528,"o":"m 458 -11 q 384 1 446 -6 q 244 7 322 7 q 126 1 185 7 q 7 -10 67 -4 l 28 32 q 63 28 43 28 q 136 43 99 28 q 183 90 174 58 q 221 394 204 160 q 229 520 225 451 q 235 656 233 589 q 238 769 238 722 q 237 795 238 783 q 236 815 236 807 q 221 878 235 860 q 169 897 207 897 q 140 895 157 897 q 104 890 124 893 l 128 935 q 172 930 142 933 q 241 924 203 926 q 315 922 279 922 q 422 928 364 922 q 528 938 481 933 l 494 897 q 477 899 485 899 q 463 900 469 900 q 398 874 417 900 q 369 799 379 847 q 351 641 360 742 q 333 393 342 540 q 329 274 332 338 q 326 160 326 211 q 327 120 326 138 q 329 90 328 103 q 369 45 332 60 q 446 31 407 31 q 483 35 467 31 l 458 -11 m 315 1021 q 276 1042 300 1021 q 254 1072 254 1060 q 290 1110 254 1081 q 324 1131 318 1131 q 338 1124 331 1131 q 350 1116 344 1119 q 361 1110 356 1113 q 401 1100 379 1100 q 408 1094 408 1100 q 406 1085 410 1089 l 369 1054 q 315 1021 331 1021 z "},"Ị":{"ha":535,"x_min":7,"x_max":528,"o":"m 458 -11 q 384 1 446 -6 q 244 7 322 7 q 126 1 185 7 q 7 -10 67 -4 l 28 32 q 63 28 43 28 q 136 43 99 28 q 183 90 174 58 q 221 394 204 160 q 229 520 225 451 q 235 656 233 589 q 238 769 238 722 q 237 795 238 783 q 236 815 236 807 q 221 878 235 860 q 169 897 207 897 q 140 895 157 897 q 104 890 124 893 l 128 935 q 172 930 142 933 q 241 924 203 926 q 315 922 279 922 q 422 928 364 922 q 528 938 481 933 l 494 897 q 477 899 485 899 q 463 900 469 900 q 398 874 417 900 q 369 799 379 847 q 351 641 360 742 q 333 393 342 540 q 329 274 332 338 q 326 160 326 211 q 327 120 326 138 q 329 90 328 103 q 369 45 332 60 q 446 31 407 31 q 483 35 467 31 l 458 -11 m 228 -208 q 189 -187 213 -208 q 167 -157 167 -169 q 203 -119 167 -149 q 236 -99 231 -99 q 250 -106 243 -99 q 263 -113 257 -110 q 274 -119 268 -117 q 314 -129 292 -129 q 321 -135 321 -129 q 318 -144 322 -140 l 282 -175 q 228 -208 243 -208 z "},"Ì":{"ha":535,"x_min":7,"x_max":528,"o":"m 458 -11 q 384 1 446 -6 q 244 7 322 7 q 126 1 185 7 q 7 -10 67 -4 l 28 32 q 63 28 43 28 q 136 43 99 28 q 183 90 174 58 q 221 394 204 160 q 229 520 225 451 q 235 656 233 589 q 238 769 238 722 q 237 795 238 783 q 236 815 236 807 q 221 878 235 860 q 169 897 207 897 q 140 895 157 897 q 104 890 124 893 l 128 935 q 172 930 142 933 q 241 924 203 926 q 315 922 279 922 q 422 928 364 922 q 528 938 481 933 l 494 897 q 477 899 485 899 q 463 900 469 900 q 398 874 417 900 q 369 799 379 847 q 351 641 360 742 q 333 393 342 540 q 329 274 332 338 q 326 160 326 211 q 327 120 326 138 q 329 90 328 103 q 369 45 332 60 q 446 31 407 31 q 483 35 467 31 l 458 -11 m 404 1021 q 353 1028 389 1021 q 278 1053 318 1035 q 190 1097 214 1082 q 147 1122 165 1111 q 132 1138 132 1133 q 158 1150 132 1140 q 208 1174 179 1157 q 292 1107 211 1169 q 342 1074 303 1097 q 425 1036 382 1051 q 428 1033 428 1033 q 404 1021 428 1029 z "},"Ỉ":{"ha":535,"x_min":7,"x_max":528,"o":"m 458 -11 q 384 1 446 -6 q 244 7 322 7 q 126 1 185 7 q 7 -10 67 -4 l 28 32 q 63 28 43 28 q 136 43 99 28 q 183 90 174 58 q 221 394 204 160 q 229 520 225 451 q 235 656 233 589 q 238 769 238 722 q 237 795 238 783 q 236 815 236 807 q 221 878 235 860 q 169 897 207 897 q 140 895 157 897 q 104 890 124 893 l 128 935 q 172 930 142 933 q 241 924 203 926 q 315 922 279 922 q 422 928 364 922 q 528 938 481 933 l 494 897 q 477 899 485 899 q 463 900 469 900 q 398 874 417 900 q 369 799 379 847 q 351 641 360 742 q 333 393 342 540 q 329 274 332 338 q 326 160 326 211 q 327 120 326 138 q 329 90 328 103 q 369 45 332 60 q 446 31 407 31 q 483 35 467 31 l 458 -11 m 306 1021 q 303 1032 304 1026 q 303 1043 303 1038 q 314 1078 303 1067 q 335 1103 325 1090 q 346 1142 346 1115 q 339 1164 346 1153 q 313 1175 332 1175 q 284 1166 294 1175 q 272 1144 274 1157 l 250 1140 q 242 1161 249 1144 q 235 1179 235 1178 q 242 1190 235 1188 q 329 1217 285 1217 q 394 1199 368 1217 q 421 1154 421 1181 q 409 1106 421 1122 q 381 1078 397 1089 q 353 1056 365 1068 q 342 1021 342 1044 l 306 1021 z "},"Ȋ":{"ha":535,"x_min":7,"x_max":528,"o":"m 338 1163 q 476 1133 432 1163 q 526 1039 521 1103 l 449 1019 q 422 1080 443 1057 q 333 1103 400 1103 q 240 1089 276 1103 q 199 1029 203 1075 l 131 1011 q 151 1067 131 1047 q 197 1110 171 1086 q 249 1147 221 1132 q 338 1163 278 1163 m 458 -11 q 384 1 446 -6 q 244 7 322 7 q 126 1 185 7 q 7 -10 67 -4 l 28 32 q 63 28 43 28 q 136 43 99 28 q 183 90 174 58 q 221 394 204 160 q 229 520 225 451 q 235 656 233 589 q 238 769 238 722 q 237 795 238 783 q 236 815 236 807 q 221 878 235 860 q 169 897 207 897 q 140 895 157 897 q 104 890 124 893 l 128 935 q 172 930 142 933 q 241 924 203 926 q 315 922 279 922 q 422 928 364 922 q 528 938 481 933 l 494 897 q 477 899 485 899 q 463 900 469 900 q 398 874 417 900 q 369 799 379 847 q 351 641 360 742 q 333 393 342 540 q 329 274 332 338 q 326 160 326 211 q 327 120 326 138 q 329 90 328 103 q 369 45 332 60 q 446 31 407 31 q 483 35 467 31 l 458 -11 z "},"Ī":{"ha":535,"x_min":7,"x_max":528,"o":"m 458 -11 q 384 1 446 -6 q 244 7 322 7 q 126 1 185 7 q 7 -10 67 -4 l 28 32 q 63 28 43 28 q 136 43 99 28 q 183 90 174 58 q 221 394 204 160 q 229 520 225 451 q 235 656 233 589 q 238 769 238 722 q 237 795 238 783 q 236 815 236 807 q 221 878 235 860 q 169 897 207 897 q 140 895 157 897 q 104 890 124 893 l 128 935 q 172 930 142 933 q 241 924 203 926 q 315 922 279 922 q 422 928 364 922 q 528 938 481 933 l 494 897 q 477 899 485 899 q 463 900 469 900 q 398 874 417 900 q 369 799 379 847 q 351 641 360 742 q 333 393 342 540 q 329 274 332 338 q 326 160 326 211 q 327 120 326 138 q 329 90 328 103 q 369 45 332 60 q 446 31 407 31 q 483 35 467 31 l 458 -11 m 488 1021 q 418 1032 467 1028 q 325 1036 369 1036 q 269 1035 304 1036 q 197 1031 235 1033 q 128 1024 160 1029 q 126 1026 126 1024 q 138 1071 126 1038 q 158 1100 150 1103 q 200 1092 172 1096 q 261 1088 228 1089 q 322 1085 294 1086 q 374 1086 342 1085 q 435 1090 407 1088 q 496 1096 478 1094 q 517 1097 514 1097 q 518 1094 518 1097 q 507 1051 518 1082 q 488 1021 494 1018 z "},"Į":{"ha":535,"x_min":7,"x_max":528,"o":"m 458 -11 q 384 1 446 -6 q 244 7 322 7 q 126 1 185 7 q 7 -10 67 -4 l 28 32 q 63 28 43 28 q 136 43 99 28 q 183 90 174 58 q 221 394 204 160 q 229 520 225 451 q 235 656 233 589 q 238 769 238 722 q 237 795 238 783 q 236 815 236 807 q 221 878 235 860 q 169 897 207 897 q 140 895 157 897 q 104 890 124 893 l 128 935 q 172 930 142 933 q 241 924 203 926 q 315 922 279 922 q 422 928 364 922 q 528 938 481 933 l 494 897 q 477 899 485 899 q 463 900 469 900 q 398 874 417 900 q 369 799 379 847 q 351 641 360 742 q 333 393 342 540 q 329 274 332 338 q 326 160 326 211 q 327 120 326 138 q 329 90 328 103 q 369 45 332 60 q 446 31 407 31 q 483 35 467 31 l 458 -11 m 204 -250 q 127 -222 157 -250 q 97 -146 97 -193 q 124 -76 97 -110 q 189 -17 151 -43 q 257 22 226 8 l 301 22 q 264 -6 286 13 q 217 -47 242 -24 q 182 -94 193 -69 q 171 -143 171 -119 q 185 -187 171 -169 q 226 -204 200 -204 q 258 -199 243 -204 q 291 -183 279 -192 q 319 -164 303 -174 l 319 -201 q 271 -235 303 -219 q 204 -250 239 -250 z "},"Ĩ":{"ha":535,"x_min":7,"x_max":528,"o":"m 458 -11 q 384 1 446 -6 q 244 7 322 7 q 126 1 185 7 q 7 -10 67 -4 l 28 32 q 63 28 43 28 q 136 43 99 28 q 183 90 174 58 q 221 394 204 160 q 229 520 225 451 q 235 656 233 589 q 238 769 238 722 q 237 795 238 783 q 236 815 236 807 q 221 878 235 860 q 169 897 207 897 q 140 895 157 897 q 104 890 124 893 l 128 935 q 172 930 142 933 q 241 924 203 926 q 315 922 279 922 q 422 928 364 922 q 528 938 481 933 l 494 897 q 477 899 485 899 q 463 900 469 900 q 398 874 417 900 q 369 799 379 847 q 351 641 360 742 q 333 393 342 540 q 329 274 332 338 q 326 160 326 211 q 327 120 326 138 q 329 90 328 103 q 369 45 332 60 q 446 31 407 31 q 483 35 467 31 l 458 -11 m 414 1021 q 347 1040 382 1021 q 281 1076 313 1058 q 224 1094 249 1094 q 185 1074 200 1094 q 158 1026 169 1054 l 129 1026 q 147 1090 129 1061 q 194 1138 165 1119 q 251 1156 222 1156 q 316 1139 285 1156 q 376 1106 347 1122 q 429 1089 404 1089 q 469 1109 453 1089 q 493 1153 486 1129 l 519 1153 q 485 1055 519 1089 q 414 1021 451 1021 z "},"J":{"ha":565,"x_min":-26,"x_max":604,"o":"m 183 -28 q 77 -18 126 -28 q -26 13 28 -8 l -19 35 q 8 83 -4 36 q 35 219 21 131 l 64 211 q 57 169 60 189 q 54 129 54 149 q 74 50 54 81 q 139 19 93 19 q 222 47 192 19 q 265 126 251 75 q 285 245 279 176 q 297 394 292 314 q 314 769 314 647 q 303 871 314 843 q 244 899 293 899 q 216 897 232 899 q 181 893 200 896 l 204 935 q 272 927 224 932 q 392 922 319 922 q 502 928 447 922 q 604 938 557 933 l 571 900 q 560 901 565 901 q 549 901 554 901 q 469 871 492 901 q 440 783 446 840 q 428 647 433 726 q 423 554 425 608 q 418 429 421 500 q 407 241 414 325 q 379 97 400 157 q 313 5 358 38 q 183 -28 267 -28 z "},"Ĵ":{"ha":565,"x_min":-26,"x_max":650,"o":"m 183 -28 q 77 -18 126 -28 q -26 13 28 -8 l -19 35 q 8 83 -4 36 q 35 219 21 131 l 64 211 q 57 169 60 189 q 54 129 54 149 q 74 50 54 81 q 139 19 93 19 q 222 47 192 19 q 265 126 251 75 q 285 245 279 176 q 297 394 292 314 q 314 769 314 647 q 303 871 314 843 q 244 899 293 899 q 216 897 232 899 q 181 893 200 896 l 204 935 q 272 927 224 932 q 392 922 319 922 q 502 928 447 922 q 604 938 557 933 l 571 900 q 560 901 565 901 q 549 901 554 901 q 469 871 492 901 q 440 783 446 840 q 428 647 433 726 q 423 554 425 608 q 418 429 421 500 q 407 241 414 325 q 379 97 400 157 q 313 5 358 38 q 183 -28 267 -28 m 557 1018 q 526 1029 547 1018 q 481 1057 504 1040 q 426 1099 442 1085 q 400 1125 411 1113 q 392 1125 396 1132 q 308 1056 333 1078 q 257 1022 282 1033 q 247 1021 254 1021 q 229 1021 239 1021 q 204 1021 217 1021 q 189 1022 192 1021 q 244 1060 208 1038 q 319 1113 279 1083 q 394 1178 360 1143 q 424 1182 408 1181 q 450 1183 439 1183 q 461 1182 460 1183 l 539 1118 q 576 1087 560 1100 q 597 1069 592 1074 q 624 1060 607 1063 q 650 1058 640 1058 l 646 1044 q 607 1034 632 1042 q 567 1019 582 1026 q 557 1018 564 1018 z "},"K":{"ha":1053,"x_min":7,"x_max":1081,"o":"m 457 -11 q 388 1 444 -6 q 243 7 332 7 q 124 1 181 7 q 7 -10 67 -6 l 25 32 q 58 28 40 28 q 134 45 94 28 q 183 93 174 63 q 219 394 203 165 q 232 571 228 503 q 238 688 236 639 q 239 781 239 736 q 228 874 239 847 q 161 901 218 901 q 103 893 136 901 l 126 935 q 197 927 146 932 q 314 922 249 922 q 426 928 372 922 q 526 938 479 933 l 493 900 q 482 901 488 901 q 471 901 476 901 q 425 894 447 901 q 388 871 403 886 q 367 799 376 851 q 350 644 358 747 q 329 365 342 540 q 326 285 328 332 q 324 193 324 238 q 325 134 324 161 q 328 90 326 107 q 348 56 329 69 q 394 37 367 43 q 446 31 421 31 q 482 35 468 31 l 457 -11 m 904 -26 q 682 83 765 -26 q 559 246 607 182 q 482 349 511 310 q 435 410 453 388 q 407 447 418 432 q 382 479 396 463 l 383 488 q 736 850 736 806 q 657 896 736 896 q 631 894 643 896 q 607 892 618 893 l 640 928 q 676 924 644 928 q 747 917 707 921 q 813 914 786 914 q 854 916 825 914 q 917 920 883 918 q 980 925 951 922 q 1019 929 1008 928 l 997 897 q 896 864 954 897 q 771 776 838 831 q 632 653 704 721 q 488 517 560 586 q 603 376 557 435 q 686 273 649 318 q 767 187 724 228 q 876 100 811 146 q 969 48 921 68 q 1057 28 1018 28 q 1069 28 1064 28 q 1081 31 1075 29 l 1061 -6 q 904 -26 968 -26 z "},"Ķ":{"ha":1053,"x_min":7,"x_max":1081,"o":"m 457 -11 q 388 1 444 -6 q 243 7 332 7 q 124 1 181 7 q 7 -10 67 -6 l 25 32 q 58 28 40 28 q 134 45 94 28 q 183 93 174 63 q 219 394 203 165 q 232 571 228 503 q 238 688 236 639 q 239 781 239 736 q 228 874 239 847 q 161 901 218 901 q 103 893 136 901 l 126 935 q 197 927 146 932 q 314 922 249 922 q 426 928 372 922 q 526 938 479 933 l 493 900 q 482 901 488 901 q 471 901 476 901 q 425 894 447 901 q 388 871 403 886 q 367 799 376 851 q 350 644 358 747 q 329 365 342 540 q 326 285 328 332 q 324 193 324 238 q 325 134 324 161 q 328 90 326 107 q 348 56 329 69 q 394 37 367 43 q 446 31 421 31 q 482 35 468 31 l 457 -11 m 904 -26 q 682 83 765 -26 q 559 246 607 182 q 482 349 511 310 q 435 410 453 388 q 407 447 418 432 q 382 479 396 463 l 383 488 q 736 850 736 806 q 657 896 736 896 q 631 894 643 896 q 607 892 618 893 l 640 928 q 676 924 644 928 q 747 917 707 921 q 813 914 786 914 q 854 916 825 914 q 917 920 883 918 q 980 925 951 922 q 1019 929 1008 928 l 997 897 q 896 864 954 897 q 771 776 838 831 q 632 653 704 721 q 488 517 560 586 q 603 376 557 435 q 686 273 649 318 q 767 187 724 228 q 876 100 811 146 q 969 48 921 68 q 1057 28 1018 28 q 1069 28 1064 28 q 1081 31 1075 29 l 1061 -6 q 904 -26 968 -26 m 457 -426 l 457 -410 q 468 -387 457 -401 q 528 -246 528 -328 q 510 -201 528 -221 q 464 -176 492 -181 l 468 -154 q 515 -128 492 -150 l 529 -114 q 540 -106 536 -106 q 596 -189 596 -114 q 482 -410 593 -318 q 470 -419 476 -414 q 457 -426 464 -424 z "},"L":{"ha":801,"x_min":7,"x_max":799,"o":"m 676 -15 q 635 -13 671 -15 q 549 -8 600 -11 q 443 -1 497 -4 q 345 5 389 3 q 283 7 301 7 q 210 4 256 7 q 111 -2 164 1 q 7 -11 58 -6 l 28 31 q 42 29 35 29 q 57 29 50 29 q 138 47 101 29 q 185 93 175 64 q 218 394 201 147 q 235 769 235 647 q 226 871 235 843 q 169 899 218 899 q 139 897 156 899 q 101 893 122 896 l 124 935 q 173 930 138 933 q 248 924 208 926 q 313 922 288 922 q 417 928 357 922 q 524 938 478 933 l 492 900 q 480 901 486 901 q 468 901 474 901 q 396 871 421 901 q 361 785 371 840 q 351 698 356 750 q 342 589 346 646 q 336 481 339 532 q 331 393 333 429 q 326 285 328 338 q 324 189 324 233 q 324 145 324 167 q 326 104 325 124 q 381 54 333 65 q 500 43 429 43 q 637 56 586 43 q 725 122 688 68 q 756 174 747 154 q 768 204 765 193 l 799 193 q 772 130 785 165 q 750 50 760 94 q 727 0 740 15 q 676 -15 714 -15 z "},"Ǉ":{"ha":1367,"x_min":7,"x_max":1406,"o":"m 676 -15 q 635 -13 671 -15 q 549 -8 600 -11 q 443 -1 497 -4 q 345 5 389 3 q 283 7 301 7 q 210 4 256 7 q 111 -2 164 1 q 7 -11 58 -6 l 28 31 q 42 29 35 29 q 57 29 50 29 q 138 47 101 29 q 185 93 175 64 q 218 394 201 147 q 235 769 235 647 q 226 871 235 843 q 169 899 218 899 q 139 897 156 899 q 101 893 122 896 l 124 935 q 173 930 138 933 q 248 924 208 926 q 313 922 288 922 q 417 928 357 922 q 524 938 478 933 l 492 900 q 480 901 486 901 q 468 901 474 901 q 396 871 421 901 q 361 785 371 840 q 351 698 356 750 q 342 589 346 646 q 336 481 339 532 q 331 393 333 429 q 326 285 328 338 q 324 189 324 233 q 324 145 324 167 q 326 104 325 124 q 381 54 333 65 q 500 43 429 43 q 637 56 586 43 q 725 122 688 68 q 756 174 747 154 q 768 204 765 193 l 799 193 q 772 130 785 165 q 750 50 760 94 q 727 0 740 15 q 676 -15 714 -15 m 985 -28 q 878 -18 928 -28 q 775 13 829 -8 l 782 35 q 810 83 797 36 q 836 219 822 131 l 865 211 q 858 169 861 189 q 856 129 856 149 q 875 50 856 81 q 940 19 894 19 q 1023 47 993 19 q 1067 126 1053 75 q 1087 245 1081 176 q 1099 394 1093 314 q 1115 769 1115 647 q 1105 871 1115 843 q 1046 899 1094 899 q 1017 897 1033 899 q 982 893 1001 896 l 1006 935 q 1073 927 1025 932 q 1193 922 1121 922 q 1303 928 1249 922 q 1406 938 1358 933 l 1372 900 q 1361 901 1367 901 q 1350 901 1356 901 q 1270 871 1293 901 q 1241 783 1247 840 q 1229 647 1235 726 q 1224 554 1226 608 q 1219 429 1222 500 q 1208 241 1215 325 q 1181 97 1201 157 q 1114 5 1160 38 q 985 -28 1068 -28 z "},"Ĺ":{"ha":801,"x_min":7,"x_max":799,"o":"m 676 -15 q 635 -13 671 -15 q 549 -8 600 -11 q 443 -1 497 -4 q 345 5 389 3 q 283 7 301 7 q 210 4 256 7 q 111 -2 164 1 q 7 -11 58 -6 l 28 31 q 42 29 35 29 q 57 29 50 29 q 138 47 101 29 q 185 93 175 64 q 218 394 201 147 q 235 769 235 647 q 226 871 235 843 q 169 899 218 899 q 139 897 156 899 q 101 893 122 896 l 124 935 q 173 930 138 933 q 248 924 208 926 q 313 922 288 922 q 417 928 357 922 q 524 938 478 933 l 492 900 q 480 901 486 901 q 468 901 474 901 q 396 871 421 901 q 361 785 371 840 q 351 698 356 750 q 342 589 346 646 q 336 481 339 532 q 331 393 333 429 q 326 285 328 338 q 324 189 324 233 q 324 145 324 167 q 326 104 325 124 q 381 54 333 65 q 500 43 429 43 q 637 56 586 43 q 725 122 688 68 q 756 174 747 154 q 768 204 765 193 l 799 193 q 772 130 785 165 q 750 50 760 94 q 727 0 740 15 q 676 -15 714 -15 m 226 1021 q 203 1033 203 1029 q 206 1036 203 1033 q 289 1074 250 1051 q 339 1107 328 1097 q 422 1174 419 1169 q 472 1150 451 1157 q 499 1138 499 1140 q 483 1122 499 1133 q 442 1097 465 1111 q 353 1053 418 1082 q 278 1028 314 1035 q 226 1021 242 1021 z "},"Ľ":{"ha":801,"x_min":7,"x_max":799,"o":"m 676 -15 q 635 -13 671 -15 q 549 -8 600 -11 q 443 -1 497 -4 q 345 5 389 3 q 283 7 301 7 q 210 4 256 7 q 111 -2 164 1 q 7 -11 58 -6 l 28 31 q 42 29 35 29 q 57 29 50 29 q 138 47 101 29 q 185 93 175 64 q 218 394 201 147 q 235 769 235 647 q 226 871 235 843 q 169 899 218 899 q 139 897 156 899 q 101 893 122 896 l 124 935 q 173 930 138 933 q 248 924 208 926 q 313 922 288 922 q 417 928 357 922 q 524 938 478 933 l 492 900 q 480 901 486 901 q 468 901 474 901 q 396 871 421 901 q 361 785 371 840 q 351 698 356 750 q 342 589 346 646 q 336 481 339 532 q 331 393 333 429 q 326 285 328 338 q 324 189 324 233 q 324 145 324 167 q 326 104 325 124 q 381 54 333 65 q 500 43 429 43 q 637 56 586 43 q 725 122 688 68 q 756 174 747 154 q 768 204 765 193 l 799 193 q 772 130 785 165 q 750 50 760 94 q 727 0 740 15 q 676 -15 714 -15 m 661 742 l 661 758 q 669 768 664 761 q 681 785 675 775 q 697 826 690 801 q 704 875 704 851 q 701 905 704 890 q 686 929 697 919 q 643 950 667 949 l 647 969 q 693 993 668 974 l 704 1006 q 717 1013 711 1013 q 759 988 743 1008 q 775 936 775 968 q 759 850 775 896 q 717 773 743 804 q 661 742 692 742 z "},"Ļ":{"ha":801,"x_min":7,"x_max":799,"o":"m 676 -15 q 635 -13 671 -15 q 549 -8 600 -11 q 443 -1 497 -4 q 345 5 389 3 q 283 7 301 7 q 210 4 256 7 q 111 -2 164 1 q 7 -11 58 -6 l 28 31 q 42 29 35 29 q 57 29 50 29 q 138 47 101 29 q 185 93 175 64 q 218 394 201 147 q 235 769 235 647 q 226 871 235 843 q 169 899 218 899 q 139 897 156 899 q 101 893 122 896 l 124 935 q 173 930 138 933 q 248 924 208 926 q 313 922 288 922 q 417 928 357 922 q 524 938 478 933 l 492 900 q 480 901 486 901 q 468 901 474 901 q 396 871 421 901 q 361 785 371 840 q 351 698 356 750 q 342 589 346 646 q 336 481 339 532 q 331 393 333 429 q 326 285 328 338 q 324 189 324 233 q 324 145 324 167 q 326 104 325 124 q 381 54 333 65 q 500 43 429 43 q 637 56 586 43 q 725 122 688 68 q 756 174 747 154 q 768 204 765 193 l 799 193 q 772 130 785 165 q 750 50 760 94 q 727 0 740 15 q 676 -15 714 -15 m 346 -426 l 346 -410 q 357 -387 346 -401 q 417 -246 417 -328 q 399 -201 417 -221 q 353 -176 381 -181 l 357 -154 q 404 -128 381 -150 l 418 -114 q 429 -106 425 -106 q 485 -189 485 -114 q 371 -410 482 -318 q 359 -419 365 -414 q 346 -426 353 -424 z "},"Ŀ":{"ha":801,"x_min":7,"x_max":810,"o":"m 676 -15 q 635 -13 671 -15 q 549 -8 600 -11 q 443 -1 497 -4 q 345 5 389 3 q 283 7 301 7 q 210 4 256 7 q 111 -2 164 1 q 7 -11 58 -6 l 28 31 q 42 29 35 29 q 57 29 50 29 q 138 47 101 29 q 185 93 175 64 q 218 394 201 147 q 235 769 235 647 q 226 871 235 843 q 169 899 218 899 q 139 897 156 899 q 101 893 122 896 l 124 935 q 173 930 138 933 q 248 924 208 926 q 313 922 288 922 q 417 928 357 922 q 524 938 478 933 l 492 900 q 480 901 486 901 q 468 901 474 901 q 396 871 421 901 q 361 785 371 840 q 351 698 356 750 q 342 589 346 646 q 336 481 339 532 q 331 393 333 429 q 326 285 328 338 q 324 189 324 233 q 324 145 324 167 q 326 104 325 124 q 381 54 333 65 q 500 43 429 43 q 637 56 586 43 q 725 122 688 68 q 756 174 747 154 q 768 204 765 193 l 799 193 q 772 130 785 165 q 750 50 760 94 q 727 0 740 15 q 676 -15 714 -15 m 694 446 q 647 471 675 446 q 621 507 621 494 q 665 553 621 517 q 706 578 697 578 q 721 569 711 578 q 735 559 728 564 q 750 551 743 554 q 799 542 769 542 q 807 535 804 542 q 803 522 810 526 q 788 510 799 518 q 760 486 778 501 q 694 446 711 446 z "},"ǈ":{"ha":1154,"x_min":7,"x_max":1110,"o":"m 676 -15 q 635 -13 671 -15 q 549 -8 600 -11 q 443 -1 497 -4 q 345 5 389 3 q 283 7 301 7 q 210 4 256 7 q 111 -2 164 1 q 7 -11 58 -6 l 28 31 q 42 29 35 29 q 57 29 50 29 q 138 47 101 29 q 185 93 175 64 q 218 394 201 147 q 235 769 235 647 q 226 871 235 843 q 169 899 218 899 q 139 897 156 899 q 101 893 122 896 l 124 935 q 173 930 138 933 q 248 924 208 926 q 313 922 288 922 q 417 928 357 922 q 524 938 478 933 l 492 900 q 480 901 486 901 q 468 901 474 901 q 396 871 421 901 q 361 785 371 840 q 351 698 356 750 q 342 589 346 646 q 336 481 339 532 q 331 393 333 429 q 326 285 328 338 q 324 189 324 233 q 324 145 324 167 q 326 104 325 124 q 381 54 333 65 q 500 43 429 43 q 637 56 586 43 q 725 122 688 68 q 756 174 747 154 q 768 204 765 193 l 799 193 q 772 130 785 165 q 750 50 760 94 q 727 0 740 15 q 676 -15 714 -15 m 983 776 q 935 803 964 776 q 910 843 910 828 q 958 893 911 857 q 1004 919 993 919 q 1024 910 1011 919 q 1058 890 1038 900 q 1104 881 1078 881 l 1110 860 q 1062 822 1088 842 q 1015 790 1036 803 q 983 776 994 776 m 726 -244 l 710 -201 q 719 -203 714 -203 q 729 -203 724 -203 q 806 -178 768 -203 q 861 -119 843 -154 q 918 165 903 -37 q 931 351 926 283 q 938 457 936 419 q 939 519 939 494 q 925 621 939 607 q 864 638 903 638 q 806 629 839 638 l 826 669 q 877 666 842 668 q 968 664 913 664 q 990 665 982 664 q 1013 667 999 665 q 1035 671 1026 669 q 1050 672 1044 672 q 1069 657 1069 672 q 1067 642 1069 651 q 1061 628 1064 633 q 1042 517 1050 581 q 1029 372 1035 454 l 1018 186 l 1008 -15 q 786 -233 1000 -193 q 756 -238 775 -235 q 726 -244 738 -242 z "},"Ł":{"ha":799,"x_min":7,"x_max":799,"o":"m 435 414 q 331 389 397 411 q 326 284 328 335 q 324 189 324 233 q 324 145 324 167 q 326 104 325 124 q 381 54 333 65 q 500 43 429 43 q 637 56 586 43 q 725 122 688 68 q 756 174 747 154 q 768 204 765 193 l 799 193 q 772 130 785 165 q 750 50 760 94 q 727 0 740 15 q 676 -15 714 -15 q 635 -13 671 -15 q 549 -8 600 -11 q 443 -1 497 -4 q 345 5 389 3 q 283 7 301 7 q 210 4 256 7 q 111 -2 164 1 q 7 -11 58 -6 l 28 31 q 42 29 35 29 q 57 29 50 29 q 138 47 101 29 q 185 93 175 64 q 214 344 200 142 q 97 288 161 321 q 94 290 96 288 q 92 335 90 303 q 106 371 93 369 q 218 399 146 374 q 235 769 235 647 q 226 871 235 843 q 169 899 218 899 q 139 897 156 899 q 101 893 122 896 l 124 935 q 173 930 138 933 q 248 924 208 926 q 313 922 288 922 q 417 928 357 922 q 524 938 478 933 l 492 900 q 480 901 486 901 q 468 901 474 901 q 396 871 421 901 q 361 785 371 840 q 349 685 354 744 q 340 561 344 625 q 333 446 336 497 q 363 460 347 453 q 443 497 436 496 q 446 496 444 499 q 447 450 450 485 q 435 414 443 415 z "},"M":{"ha":1278,"x_min":0,"x_max":1264,"o":"m 590 -58 q 581 -42 590 -54 q 563 -15 572 -29 q 547 4 553 -1 q 510 67 515 42 q 499 116 508 78 q 476 205 489 154 q 452 303 464 256 q 432 378 440 350 q 384 551 413 449 q 317 783 356 653 q 293 639 304 711 q 271 494 282 567 q 248 319 257 393 q 236 200 239 246 q 234 167 235 182 q 233 139 233 153 q 245 69 233 93 q 287 38 257 46 q 371 31 317 31 l 349 -11 q 314 -6 344 -10 q 244 1 283 -3 q 175 4 204 4 q 103 1 140 4 q 38 -8 67 -3 q 0 -18 10 -14 l 25 25 q 125 76 111 25 q 175 285 154 183 q 211 492 196 388 l 267 860 q 246 897 265 888 q 201 906 226 906 q 179 905 190 906 q 157 903 168 904 l 178 944 q 288 933 222 936 q 419 931 354 929 q 422 883 418 914 q 435 799 425 851 q 478 608 451 713 q 542 379 504 503 q 569 284 553 342 q 611 136 585 226 q 693 310 649 213 q 796 543 738 407 q 901 799 865 703 q 939 928 938 894 q 1080 931 1008 929 q 1246 949 1151 933 l 1217 908 q 1205 910 1211 910 q 1192 911 1199 911 q 1150 904 1169 911 q 1122 886 1131 897 q 1108 844 1111 871 q 1101 775 1104 818 q 1097 653 1099 726 q 1094 497 1094 579 q 1097 338 1094 418 q 1103 192 1099 258 q 1113 86 1107 126 q 1153 43 1118 56 q 1229 31 1189 31 q 1247 31 1239 31 q 1264 32 1256 31 l 1242 -10 q 1169 -2 1228 -7 q 1031 3 1111 3 q 949 0 996 3 q 860 -6 901 -3 q 801 -12 819 -10 l 822 28 q 837 26 829 26 q 853 25 844 25 q 933 42 894 25 q 976 90 971 60 q 984 197 982 126 q 986 357 986 268 q 985 508 986 431 q 982 660 983 586 q 978 794 981 735 q 915 669 947 733 q 856 546 883 604 q 810 446 829 488 q 703 206 744 303 q 642 48 663 108 q 613 -46 621 -12 l 590 -58 z "},"N":{"ha":1172,"x_min":7,"x_max":1172,"o":"m 957 -92 q 899 -6 947 -68 q 761 153 850 56 q 622 308 681 243 q 518 424 563 374 q 436 516 474 474 q 362 601 399 558 q 281 696 325 644 q 268 599 275 660 q 256 469 261 539 q 247 328 250 399 q 243 200 243 257 q 245 130 243 161 q 251 83 247 99 q 293 40 263 51 q 354 29 324 29 q 374 30 365 29 q 390 32 383 31 l 365 -10 q 281 0 318 -3 q 188 3 243 3 q 77 -1 119 3 q 7 -12 35 -6 l 31 29 q 99 42 69 29 q 135 90 129 56 q 157 239 146 151 q 177 422 168 326 q 192 607 186 518 q 197 760 197 696 q 186 868 197 838 q 124 899 175 899 q 94 897 110 899 q 60 893 79 896 l 82 935 q 117 932 97 933 q 160 931 138 931 q 212 932 186 931 q 258 935 238 933 q 391 752 331 832 q 508 605 451 672 q 622 475 564 538 q 745 344 679 413 q 892 194 811 276 q 903 276 897 222 q 916 399 910 331 q 927 538 922 467 q 935 672 932 608 q 938 779 938 736 q 924 878 938 849 q 863 907 911 907 q 833 905 849 907 q 799 900 818 903 l 818 936 q 869 931 826 935 q 992 922 913 926 q 1172 944 1149 933 l 1151 911 q 1049 860 1063 911 q 1031 770 1040 832 q 1013 627 1022 708 q 997 457 1004 546 q 985 283 990 368 q 976 128 979 197 q 974 19 974 60 q 975 -35 974 -11 q 979 -78 976 -60 l 957 -92 z "},"Ǌ":{"ha":1738,"x_min":7,"x_max":1776,"o":"m 957 -92 q 899 -6 947 -68 q 761 153 850 56 q 622 308 681 243 q 518 424 563 374 q 436 516 474 474 q 362 601 399 558 q 281 696 325 644 q 268 599 275 660 q 256 469 261 539 q 247 328 250 399 q 243 200 243 257 q 245 130 243 161 q 251 83 247 99 q 293 40 263 51 q 354 29 324 29 q 374 30 365 29 q 390 32 383 31 l 365 -10 q 281 0 318 -3 q 188 3 243 3 q 77 -1 119 3 q 7 -12 35 -6 l 31 29 q 99 42 69 29 q 135 90 129 56 q 157 239 146 151 q 177 422 168 326 q 192 607 186 518 q 197 760 197 696 q 186 868 197 838 q 124 899 175 899 q 94 897 110 899 q 60 893 79 896 l 82 935 q 117 932 97 933 q 160 931 138 931 q 212 932 186 931 q 258 935 238 933 q 391 752 331 832 q 508 605 451 672 q 622 475 564 538 q 745 344 679 413 q 892 194 811 276 q 903 276 897 222 q 916 399 910 331 q 927 538 922 467 q 935 672 932 608 q 938 779 938 736 q 924 878 938 849 q 863 907 911 907 q 833 905 849 907 q 799 900 818 903 l 818 936 q 869 931 826 935 q 992 922 913 926 q 1172 944 1149 933 l 1151 911 q 1049 860 1063 911 q 1031 770 1040 832 q 1013 627 1022 708 q 997 457 1004 546 q 985 283 990 368 q 976 128 979 197 q 974 19 974 60 q 975 -35 974 -11 q 979 -78 976 -60 l 957 -92 m 1356 -28 q 1249 -18 1299 -28 q 1146 13 1200 -8 l 1153 35 q 1181 83 1168 36 q 1207 219 1193 131 l 1236 211 q 1229 169 1232 189 q 1226 129 1226 149 q 1246 50 1226 81 q 1311 19 1265 19 q 1394 47 1364 19 q 1438 126 1424 75 q 1458 245 1451 176 q 1469 394 1464 314 q 1486 769 1486 647 q 1476 871 1486 843 q 1417 899 1465 899 q 1388 897 1404 899 q 1353 893 1372 896 l 1376 935 q 1444 927 1396 932 q 1564 922 1492 922 q 1674 928 1619 922 q 1776 938 1729 933 l 1743 900 q 1732 901 1738 901 q 1721 901 1726 901 q 1641 871 1664 901 q 1612 783 1618 840 q 1600 647 1606 726 q 1595 554 1597 608 q 1590 429 1593 500 q 1579 241 1586 325 q 1551 97 1572 157 q 1485 5 1531 38 q 1356 -28 1439 -28 z "},"Ń":{"ha":1172,"x_min":7,"x_max":1172,"o":"m 957 -92 q 899 -6 947 -68 q 761 153 850 56 q 622 308 681 243 q 518 424 563 374 q 436 516 474 474 q 362 601 399 558 q 281 696 325 644 q 268 599 275 660 q 256 469 261 539 q 247 328 250 399 q 243 200 243 257 q 245 130 243 161 q 251 83 247 99 q 293 40 263 51 q 354 29 324 29 q 374 30 365 29 q 390 32 383 31 l 365 -10 q 281 0 318 -3 q 188 3 243 3 q 77 -1 119 3 q 7 -12 35 -6 l 31 29 q 99 42 69 29 q 135 90 129 56 q 157 239 146 151 q 177 422 168 326 q 192 607 186 518 q 197 760 197 696 q 186 868 197 838 q 124 899 175 899 q 94 897 110 899 q 60 893 79 896 l 82 935 q 117 932 97 933 q 160 931 138 931 q 212 932 186 931 q 258 935 238 933 q 391 752 331 832 q 508 605 451 672 q 622 475 564 538 q 745 344 679 413 q 892 194 811 276 q 903 276 897 222 q 916 399 910 331 q 927 538 922 467 q 935 672 932 608 q 938 779 938 736 q 924 878 938 849 q 863 907 911 907 q 833 905 849 907 q 799 900 818 903 l 818 936 q 869 931 826 935 q 992 922 913 926 q 1172 944 1149 933 l 1151 911 q 1049 860 1063 911 q 1031 770 1040 832 q 1013 627 1022 708 q 997 457 1004 546 q 985 283 990 368 q 976 128 979 197 q 974 19 974 60 q 975 -35 974 -11 q 979 -78 976 -60 l 957 -92 m 528 1021 q 504 1033 504 1029 q 507 1036 504 1033 q 590 1074 551 1051 q 640 1107 629 1097 q 724 1174 721 1169 q 774 1150 753 1157 q 800 1138 800 1140 q 785 1122 800 1133 q 743 1097 767 1111 q 654 1053 719 1082 q 579 1028 615 1035 q 528 1021 543 1021 z "},"Ň":{"ha":1172,"x_min":7,"x_max":1172,"o":"m 494 1183 q 526 1172 504 1183 q 571 1144 547 1161 q 626 1103 611 1118 q 651 1076 640 1089 q 660 1076 656 1071 q 744 1147 718 1124 q 794 1179 769 1169 q 805 1181 797 1181 q 822 1181 813 1181 q 848 1181 835 1181 q 863 1179 861 1181 q 808 1141 844 1164 q 732 1088 772 1118 q 657 1024 692 1058 q 628 1019 643 1021 q 601 1018 613 1018 q 590 1019 592 1018 l 513 1083 q 476 1115 492 1101 q 454 1132 460 1128 q 428 1141 444 1139 q 401 1143 411 1143 l 406 1157 q 444 1167 419 1160 q 485 1182 469 1175 q 494 1183 488 1183 m 957 -92 q 899 -6 947 -68 q 761 153 850 56 q 622 308 681 243 q 518 424 563 374 q 436 516 474 474 q 362 601 399 558 q 281 696 325 644 q 268 599 275 660 q 256 469 261 539 q 247 328 250 399 q 243 200 243 257 q 245 130 243 161 q 251 83 247 99 q 293 40 263 51 q 354 29 324 29 q 374 30 365 29 q 390 32 383 31 l 365 -10 q 281 0 318 -3 q 188 3 243 3 q 77 -1 119 3 q 7 -12 35 -6 l 31 29 q 99 42 69 29 q 135 90 129 56 q 157 239 146 151 q 177 422 168 326 q 192 607 186 518 q 197 760 197 696 q 186 868 197 838 q 124 899 175 899 q 94 897 110 899 q 60 893 79 896 l 82 935 q 117 932 97 933 q 160 931 138 931 q 212 932 186 931 q 258 935 238 933 q 391 752 331 832 q 508 605 451 672 q 622 475 564 538 q 745 344 679 413 q 892 194 811 276 q 903 276 897 222 q 916 399 910 331 q 927 538 922 467 q 935 672 932 608 q 938 779 938 736 q 924 878 938 849 q 863 907 911 907 q 833 905 849 907 q 799 900 818 903 l 818 936 q 869 931 826 935 q 992 922 913 926 q 1172 944 1149 933 l 1151 911 q 1049 860 1063 911 q 1031 770 1040 832 q 1013 627 1022 708 q 997 457 1004 546 q 985 283 990 368 q 976 128 979 197 q 974 19 974 60 q 975 -35 974 -11 q 979 -78 976 -60 l 957 -92 z "},"Ņ":{"ha":1172,"x_min":7,"x_max":1172,"o":"m 957 -92 q 899 -6 947 -68 q 761 153 850 56 q 622 308 681 243 q 518 424 563 374 q 436 516 474 474 q 362 601 399 558 q 281 696 325 644 q 268 599 275 660 q 256 469 261 539 q 247 328 250 399 q 243 200 243 257 q 245 130 243 161 q 251 83 247 99 q 293 40 263 51 q 354 29 324 29 q 374 30 365 29 q 390 32 383 31 l 365 -10 q 281 0 318 -3 q 188 3 243 3 q 77 -1 119 3 q 7 -12 35 -6 l 31 29 q 99 42 69 29 q 135 90 129 56 q 157 239 146 151 q 177 422 168 326 q 192 607 186 518 q 197 760 197 696 q 186 868 197 838 q 124 899 175 899 q 94 897 110 899 q 60 893 79 896 l 82 935 q 117 932 97 933 q 160 931 138 931 q 212 932 186 931 q 258 935 238 933 q 391 752 331 832 q 508 605 451 672 q 622 475 564 538 q 745 344 679 413 q 892 194 811 276 q 903 276 897 222 q 916 399 910 331 q 927 538 922 467 q 935 672 932 608 q 938 779 938 736 q 924 878 938 849 q 863 907 911 907 q 833 905 849 907 q 799 900 818 903 l 818 936 q 869 931 826 935 q 992 922 913 926 q 1172 944 1149 933 l 1151 911 q 1049 860 1063 911 q 1031 770 1040 832 q 1013 627 1022 708 q 997 457 1004 546 q 985 283 990 368 q 976 128 979 197 q 974 19 974 60 q 975 -35 974 -11 q 979 -78 976 -60 l 957 -92 m 517 -426 l 517 -410 q 528 -387 517 -401 q 588 -246 588 -328 q 569 -201 588 -221 q 524 -176 551 -181 l 528 -154 q 575 -128 551 -150 l 589 -114 q 600 -106 596 -106 q 656 -189 656 -114 q 542 -410 653 -318 q 530 -419 536 -414 q 517 -426 524 -424 z "},"ǋ":{"ha":1567,"x_min":7,"x_max":1522,"o":"m 957 -92 q 899 -6 947 -68 q 761 153 850 56 q 622 308 681 243 q 518 424 563 374 q 436 516 474 474 q 362 601 399 558 q 281 696 325 644 q 268 599 275 660 q 256 469 261 539 q 247 328 250 399 q 243 200 243 257 q 245 130 243 161 q 251 83 247 99 q 293 40 263 51 q 354 29 324 29 q 374 30 365 29 q 390 32 383 31 l 365 -10 q 281 0 318 -3 q 188 3 243 3 q 77 -1 119 3 q 7 -12 35 -6 l 31 29 q 99 42 69 29 q 135 90 129 56 q 157 239 146 151 q 177 422 168 326 q 192 607 186 518 q 197 760 197 696 q 186 868 197 838 q 124 899 175 899 q 94 897 110 899 q 60 893 79 896 l 82 935 q 117 932 97 933 q 160 931 138 931 q 212 932 186 931 q 258 935 238 933 q 391 752 331 832 q 508 605 451 672 q 622 475 564 538 q 745 344 679 413 q 892 194 811 276 q 903 276 897 222 q 916 399 910 331 q 927 538 922 467 q 935 672 932 608 q 938 779 938 736 q 924 878 938 849 q 863 907 911 907 q 833 905 849 907 q 799 900 818 903 l 818 936 q 869 931 826 935 q 992 922 913 926 q 1172 944 1149 933 l 1151 911 q 1049 860 1063 911 q 1031 770 1040 832 q 1013 627 1022 708 q 997 457 1004 546 q 985 283 990 368 q 976 128 979 197 q 974 19 974 60 q 975 -35 974 -11 q 979 -78 976 -60 l 957 -92 m 1396 776 q 1347 803 1376 776 q 1322 843 1322 828 q 1371 893 1324 857 q 1417 919 1406 919 q 1437 910 1424 919 q 1470 890 1450 900 q 1517 881 1490 881 l 1522 860 q 1474 822 1500 842 q 1428 790 1449 803 q 1396 776 1407 776 m 1139 -244 l 1122 -201 q 1131 -203 1126 -203 q 1142 -203 1136 -203 q 1218 -178 1181 -203 q 1274 -119 1256 -154 q 1331 165 1315 -37 q 1344 351 1339 283 q 1350 457 1349 419 q 1351 519 1351 494 q 1338 621 1351 607 q 1276 638 1315 638 q 1218 629 1251 638 l 1239 669 q 1290 666 1254 668 q 1381 664 1325 664 q 1403 665 1394 664 q 1425 667 1411 665 q 1448 671 1439 669 q 1463 672 1457 672 q 1482 657 1482 672 q 1479 642 1482 651 q 1474 628 1476 633 q 1455 517 1463 581 q 1442 372 1447 454 l 1431 186 l 1421 -15 q 1199 -233 1413 -193 q 1169 -238 1188 -235 q 1139 -244 1150 -242 z "},"Ñ":{"ha":1172,"x_min":7,"x_max":1172,"o":"m 957 -92 q 899 -6 947 -68 q 761 153 850 56 q 622 308 681 243 q 518 424 563 374 q 436 516 474 474 q 362 601 399 558 q 281 696 325 644 q 268 599 275 660 q 256 469 261 539 q 247 328 250 399 q 243 200 243 257 q 245 130 243 161 q 251 83 247 99 q 293 40 263 51 q 354 29 324 29 q 374 30 365 29 q 390 32 383 31 l 365 -10 q 281 0 318 -3 q 188 3 243 3 q 77 -1 119 3 q 7 -12 35 -6 l 31 29 q 99 42 69 29 q 135 90 129 56 q 157 239 146 151 q 177 422 168 326 q 192 607 186 518 q 197 760 197 696 q 186 868 197 838 q 124 899 175 899 q 94 897 110 899 q 60 893 79 896 l 82 935 q 117 932 97 933 q 160 931 138 931 q 212 932 186 931 q 258 935 238 933 q 391 752 331 832 q 508 605 451 672 q 622 475 564 538 q 745 344 679 413 q 892 194 811 276 q 903 276 897 222 q 916 399 910 331 q 927 538 922 467 q 935 672 932 608 q 938 779 938 736 q 924 878 938 849 q 863 907 911 907 q 833 905 849 907 q 799 900 818 903 l 818 936 q 869 931 826 935 q 992 922 913 926 q 1172 944 1149 933 l 1151 911 q 1049 860 1063 911 q 1031 770 1040 832 q 1013 627 1022 708 q 997 457 1004 546 q 985 283 990 368 q 976 128 979 197 q 974 19 974 60 q 975 -35 974 -11 q 979 -78 976 -60 l 957 -92 m 717 1021 q 650 1040 685 1021 q 583 1076 615 1058 q 526 1094 551 1094 q 488 1074 503 1094 q 461 1026 472 1054 l 432 1026 q 450 1090 432 1061 q 497 1138 468 1119 q 554 1156 525 1156 q 619 1139 588 1156 q 678 1106 650 1122 q 732 1089 707 1089 q 772 1109 756 1089 q 796 1153 789 1129 l 822 1153 q 788 1055 822 1089 q 717 1021 754 1021 z "},"O":{"ha":1108,"x_min":60,"x_max":1051,"o":"m 521 -24 q 274 28 378 -24 q 115 178 171 81 q 60 414 60 276 q 195 803 60 671 q 588 935 331 935 q 927 835 803 935 q 1051 528 1051 735 q 919 120 1051 264 q 521 -24 786 -24 m 533 29 q 741 91 654 29 q 874 257 828 153 q 921 486 921 361 q 881 685 921 596 q 765 828 840 775 q 582 882 689 882 q 373 825 461 882 q 238 669 285 768 q 190 446 190 571 q 232 232 190 326 q 351 83 274 138 q 533 29 428 29 z "},"Œ":{"ha":1424,"x_min":56,"x_max":1396,"o":"m 526 -33 q 275 19 381 -33 q 113 172 169 72 q 56 413 56 272 q 193 809 56 674 q 593 944 331 944 q 659 942 628 944 q 721 935 690 940 l 721 936 q 804 926 757 931 q 911 924 851 922 l 1306 928 q 1324 906 1324 926 q 1319 878 1324 899 q 1300 818 1314 858 q 1285 763 1292 789 q 1276 722 1279 738 l 1238 732 q 1267 815 1267 799 q 1244 849 1267 839 q 1189 863 1222 860 q 1122 865 1156 865 q 1036 865 1071 865 q 979 860 1001 864 q 956 732 967 821 q 936 511 946 643 l 1225 514 q 1240 508 1235 514 q 1243 492 1246 503 q 1238 471 1242 486 q 1231 444 1233 456 q 1225 410 1228 428 q 1222 371 1222 392 l 1189 363 l 1183 369 q 1189 406 1189 388 q 1172 442 1189 431 q 1117 454 1156 453 q 983 458 1038 458 q 956 458 969 458 q 932 457 943 458 q 926 358 929 413 q 922 249 924 303 q 919 156 919 196 q 920 117 919 133 q 922 93 921 101 q 943 63 924 69 q 974 56 951 60 q 1028 47 997 51 q 1094 43 1057 43 q 1279 75 1232 43 q 1303 98 1290 83 q 1332 135 1317 113 q 1356 178 1347 158 q 1364 207 1365 197 l 1396 194 q 1368 130 1379 164 q 1349 58 1357 96 q 1338 25 1344 40 q 1324 3 1332 10 q 1268 -15 1306 -15 q 1259 -15 1264 -15 q 1249 -14 1254 -15 q 1006 3 1093 -3 q 899 8 918 8 q 858 8 878 8 q 822 6 839 7 q 756 1 806 6 q 526 -33 660 -33 m 539 21 q 676 46 614 21 q 788 115 739 71 q 801 217 794 150 q 814 383 807 285 l 832 642 q 835 699 835 672 q 835 749 835 726 l 835 782 q 728 862 790 833 q 588 890 665 890 q 374 832 464 890 q 237 673 285 774 q 189 446 189 572 q 231 228 189 324 q 352 76 274 132 q 539 21 431 21 z "},"Ó":{"ha":1108,"x_min":60,"x_max":1051,"o":"m 521 -24 q 274 28 378 -24 q 115 178 171 81 q 60 414 60 276 q 195 803 60 671 q 588 935 331 935 q 927 835 803 935 q 1051 528 1051 735 q 919 120 1051 264 q 521 -24 786 -24 m 533 29 q 741 91 654 29 q 874 257 828 153 q 921 486 921 361 q 881 685 921 596 q 765 828 840 775 q 582 882 689 882 q 373 825 461 882 q 238 669 285 768 q 190 446 190 571 q 232 232 190 326 q 351 83 274 138 q 533 29 428 29 m 465 1021 q 442 1033 442 1029 q 444 1036 442 1033 q 528 1074 489 1051 q 578 1107 567 1097 q 661 1174 658 1169 q 711 1150 690 1157 q 738 1138 738 1140 q 722 1122 738 1133 q 681 1097 704 1111 q 592 1053 657 1082 q 517 1028 553 1035 q 465 1021 481 1021 z "},"Ŏ":{"ha":1108,"x_min":60,"x_max":1051,"o":"m 521 -24 q 274 28 378 -24 q 115 178 171 81 q 60 414 60 276 q 195 803 60 671 q 588 935 331 935 q 927 835 803 935 q 1051 528 1051 735 q 919 120 1051 264 q 521 -24 786 -24 m 533 29 q 741 91 654 29 q 874 257 828 153 q 921 486 921 361 q 881 685 921 596 q 765 828 840 775 q 582 882 689 882 q 373 825 461 882 q 238 669 285 768 q 190 446 190 571 q 232 232 190 326 q 351 83 274 138 q 533 29 428 29 m 554 1021 q 416 1051 461 1021 q 365 1144 371 1081 l 443 1164 q 470 1103 449 1126 q 558 1081 492 1081 q 652 1094 615 1081 q 693 1154 689 1108 l 761 1172 q 741 1117 761 1138 q 694 1074 721 1097 q 644 1036 672 1051 q 554 1021 615 1021 z "},"Ǒ":{"ha":1108,"x_min":60,"x_max":1051,"o":"m 432 1183 q 463 1172 442 1183 q 508 1144 485 1161 q 563 1103 549 1118 q 589 1076 578 1089 q 597 1076 593 1071 q 681 1147 656 1124 q 732 1179 707 1169 q 742 1181 735 1181 q 760 1181 750 1181 q 785 1181 772 1181 q 800 1179 799 1181 q 746 1141 782 1164 q 669 1088 710 1118 q 594 1024 629 1058 q 565 1019 581 1021 q 539 1018 550 1018 q 528 1019 529 1018 l 450 1083 q 413 1115 429 1101 q 392 1132 397 1128 q 365 1141 382 1139 q 339 1143 349 1143 l 343 1157 q 382 1167 357 1160 q 422 1182 407 1175 q 432 1183 425 1183 m 521 -24 q 274 28 378 -24 q 115 178 171 81 q 60 414 60 276 q 195 803 60 671 q 588 935 331 935 q 927 835 803 935 q 1051 528 1051 735 q 919 120 1051 264 q 521 -24 786 -24 m 533 29 q 741 91 654 29 q 874 257 828 153 q 921 486 921 361 q 881 685 921 596 q 765 828 840 775 q 582 882 689 882 q 373 825 461 882 q 238 669 285 768 q 190 446 190 571 q 232 232 190 326 q 351 83 274 138 q 533 29 428 29 z "},"Ô":{"ha":1108,"x_min":60,"x_max":1051,"o":"m 521 -24 q 274 28 378 -24 q 115 178 171 81 q 60 414 60 276 q 195 803 60 671 q 588 935 331 935 q 927 835 803 935 q 1051 528 1051 735 q 919 120 1051 264 q 521 -24 786 -24 m 533 29 q 741 91 654 29 q 874 257 828 153 q 921 486 921 361 q 881 685 921 596 q 765 828 840 775 q 582 882 689 882 q 373 825 461 882 q 238 669 285 768 q 190 446 190 571 q 232 232 190 326 q 351 83 274 138 q 533 29 428 29 m 728 1019 q 697 1031 718 1019 q 651 1058 675 1042 q 597 1100 613 1086 q 571 1126 582 1114 q 563 1126 567 1133 q 478 1057 504 1079 q 428 1024 453 1035 q 417 1022 425 1022 q 400 1022 410 1022 q 375 1022 388 1022 q 360 1024 363 1022 q 415 1062 379 1039 q 490 1115 450 1085 q 565 1179 531 1144 q 594 1183 579 1182 q 621 1185 610 1185 q 632 1183 631 1185 l 710 1119 q 747 1088 731 1101 q 768 1071 763 1075 q 794 1062 778 1064 q 821 1060 811 1060 l 817 1046 q 778 1035 803 1043 q 738 1021 753 1028 q 728 1019 735 1019 z "},"Ố":{"ha":1108,"x_min":60,"x_max":1068,"o":"m 521 -24 q 274 28 378 -24 q 115 178 171 81 q 60 414 60 276 q 195 803 60 671 q 588 935 331 935 q 927 835 803 935 q 1051 528 1051 735 q 919 120 1051 264 q 521 -24 786 -24 m 533 29 q 741 91 654 29 q 874 257 828 153 q 921 486 921 361 q 881 685 921 596 q 765 828 840 775 q 582 882 689 882 q 373 825 461 882 q 238 669 285 768 q 190 446 190 571 q 232 232 190 326 q 351 83 274 138 q 533 29 428 29 m 728 1019 q 697 1031 718 1019 q 651 1058 675 1042 q 597 1100 613 1086 q 571 1126 582 1114 q 563 1126 567 1133 q 478 1057 504 1079 q 428 1024 453 1035 q 417 1022 425 1022 q 400 1022 410 1022 q 375 1022 388 1022 q 360 1024 363 1022 q 415 1062 379 1039 q 490 1115 450 1085 q 565 1179 531 1144 q 594 1183 579 1182 q 621 1185 610 1185 q 632 1183 631 1185 l 710 1119 q 747 1088 731 1101 q 768 1071 763 1075 q 794 1062 778 1064 q 821 1060 811 1060 l 817 1046 q 778 1035 803 1043 q 738 1021 753 1028 q 728 1019 735 1019 m 796 1165 q 772 1178 772 1174 q 775 1181 772 1178 q 858 1219 819 1196 q 908 1251 897 1242 q 992 1318 989 1314 q 1042 1294 1021 1301 q 1068 1282 1068 1285 q 1053 1267 1068 1278 q 1011 1241 1035 1256 q 922 1197 988 1226 q 847 1172 883 1179 q 796 1165 811 1165 z "},"Ộ":{"ha":1108,"x_min":60,"x_max":1051,"o":"m 521 -24 q 274 28 378 -24 q 115 178 171 81 q 60 414 60 276 q 195 803 60 671 q 588 935 331 935 q 927 835 803 935 q 1051 528 1051 735 q 919 120 1051 264 q 521 -24 786 -24 m 533 29 q 741 91 654 29 q 874 257 828 153 q 921 486 921 361 q 881 685 921 596 q 765 828 840 775 q 582 882 689 882 q 373 825 461 882 q 238 669 285 768 q 190 446 190 571 q 232 232 190 326 q 351 83 274 138 q 533 29 428 29 m 538 -208 q 499 -187 522 -208 q 476 -157 476 -169 q 513 -119 476 -149 q 546 -99 540 -99 q 560 -106 553 -99 q 572 -113 567 -110 q 583 -119 578 -117 q 624 -129 601 -129 q 631 -135 631 -129 q 628 -144 632 -140 l 592 -175 q 538 -208 553 -208 m 728 1019 q 697 1031 718 1019 q 651 1058 675 1042 q 597 1100 613 1086 q 571 1126 582 1114 q 563 1126 567 1133 q 478 1057 504 1079 q 428 1024 453 1035 q 417 1022 425 1022 q 400 1022 410 1022 q 375 1022 388 1022 q 360 1024 363 1022 q 415 1062 379 1039 q 490 1115 450 1085 q 565 1179 531 1144 q 594 1183 579 1182 q 621 1185 610 1185 q 632 1183 631 1185 l 710 1119 q 747 1088 731 1101 q 768 1071 763 1075 q 794 1062 778 1064 q 821 1060 811 1060 l 817 1046 q 778 1035 803 1043 q 738 1021 753 1028 q 728 1019 735 1019 z "},"Ồ":{"ha":1108,"x_min":60,"x_max":1051,"o":"m 521 -24 q 274 28 378 -24 q 115 178 171 81 q 60 414 60 276 q 195 803 60 671 q 588 935 331 935 q 927 835 803 935 q 1051 528 1051 735 q 919 120 1051 264 q 521 -24 786 -24 m 533 29 q 741 91 654 29 q 874 257 828 153 q 921 486 921 361 q 881 685 921 596 q 765 828 840 775 q 582 882 689 882 q 373 825 461 882 q 238 669 285 768 q 190 446 190 571 q 232 232 190 326 q 351 83 274 138 q 533 29 428 29 m 728 1019 q 697 1031 718 1019 q 651 1058 675 1042 q 597 1100 613 1086 q 571 1126 582 1114 q 563 1126 567 1133 q 478 1057 504 1079 q 428 1024 453 1035 q 417 1022 425 1022 q 400 1022 410 1022 q 375 1022 388 1022 q 360 1024 363 1022 q 415 1062 379 1039 q 490 1115 450 1085 q 565 1179 531 1144 q 594 1183 579 1182 q 621 1185 610 1185 q 632 1183 631 1185 l 710 1119 q 747 1088 731 1101 q 768 1071 763 1075 q 794 1062 778 1064 q 821 1060 811 1060 l 817 1046 q 778 1035 803 1043 q 738 1021 753 1028 q 728 1019 735 1019 m 763 1228 q 712 1235 747 1228 q 636 1260 676 1242 q 548 1303 572 1289 q 506 1329 524 1318 q 490 1344 490 1340 q 517 1357 490 1347 q 567 1381 538 1364 q 650 1314 569 1376 q 701 1281 661 1304 q 783 1243 740 1258 q 786 1240 786 1240 q 763 1228 786 1236 z "},"Ổ":{"ha":1108,"x_min":60,"x_max":1051,"o":"m 521 -24 q 274 28 378 -24 q 115 178 171 81 q 60 414 60 276 q 195 803 60 671 q 588 935 331 935 q 927 835 803 935 q 1051 528 1051 735 q 919 120 1051 264 q 521 -24 786 -24 m 533 29 q 741 91 654 29 q 874 257 828 153 q 921 486 921 361 q 881 685 921 596 q 765 828 840 775 q 582 882 689 882 q 373 825 461 882 q 238 669 285 768 q 190 446 190 571 q 232 232 190 326 q 351 83 274 138 q 533 29 428 29 m 728 1019 q 697 1031 718 1019 q 651 1058 675 1042 q 597 1100 613 1086 q 571 1126 582 1114 q 563 1126 567 1133 q 478 1057 504 1079 q 428 1024 453 1035 q 417 1022 425 1022 q 400 1022 410 1022 q 375 1022 388 1022 q 360 1024 363 1022 q 415 1062 379 1039 q 490 1115 450 1085 q 565 1179 531 1144 q 594 1183 579 1182 q 621 1185 610 1185 q 632 1183 631 1185 l 710 1119 q 747 1088 731 1101 q 768 1071 763 1075 q 794 1062 778 1064 q 821 1060 811 1060 l 817 1046 q 778 1035 803 1043 q 738 1021 753 1028 q 728 1019 735 1019 m 774 1169 q 772 1181 772 1175 q 771 1192 771 1186 q 782 1227 771 1215 q 803 1251 793 1239 q 814 1290 814 1264 q 807 1313 814 1301 q 781 1324 800 1324 q 752 1315 763 1324 q 740 1293 742 1306 l 718 1289 q 710 1310 717 1293 q 703 1328 703 1326 q 710 1339 703 1336 q 797 1365 753 1365 q 863 1347 836 1365 q 889 1303 889 1329 q 877 1254 889 1271 q 849 1227 865 1238 q 822 1205 833 1217 q 810 1169 810 1193 l 774 1169 z "},"Ỗ":{"ha":1108,"x_min":60,"x_max":1051,"o":"m 521 -24 q 274 28 378 -24 q 115 178 171 81 q 60 414 60 276 q 195 803 60 671 q 588 935 331 935 q 927 835 803 935 q 1051 528 1051 735 q 919 120 1051 264 q 521 -24 786 -24 m 533 29 q 741 91 654 29 q 874 257 828 153 q 921 486 921 361 q 881 685 921 596 q 765 828 840 775 q 582 882 689 882 q 373 825 461 882 q 238 669 285 768 q 190 446 190 571 q 232 232 190 326 q 351 83 274 138 q 533 29 428 29 m 728 1019 q 697 1031 718 1019 q 651 1058 675 1042 q 597 1100 613 1086 q 571 1126 582 1114 q 563 1126 567 1133 q 478 1057 504 1079 q 428 1024 453 1035 q 417 1022 425 1022 q 400 1022 410 1022 q 375 1022 388 1022 q 360 1024 363 1022 q 415 1062 379 1039 q 490 1115 450 1085 q 565 1179 531 1144 q 594 1183 579 1182 q 621 1185 610 1185 q 632 1183 631 1185 l 710 1119 q 747 1088 731 1101 q 768 1071 763 1075 q 794 1062 778 1064 q 821 1060 811 1060 l 817 1046 q 778 1035 803 1043 q 738 1021 753 1028 q 728 1019 735 1019 m 718 1229 q 651 1248 686 1229 q 585 1285 617 1267 q 528 1303 553 1303 q 489 1283 504 1303 q 463 1235 474 1263 l 433 1235 q 451 1299 433 1269 q 498 1346 469 1328 q 556 1364 526 1364 q 620 1347 589 1364 q 680 1314 651 1331 q 733 1297 708 1297 q 774 1317 757 1297 q 797 1361 790 1338 l 824 1361 q 790 1263 824 1297 q 718 1229 756 1229 z "},"Ȍ":{"ha":1108,"x_min":60,"x_max":1051,"o":"m 521 -24 q 274 28 378 -24 q 115 178 171 81 q 60 414 60 276 q 195 803 60 671 q 588 935 331 935 q 927 835 803 935 q 1051 528 1051 735 q 919 120 1051 264 q 521 -24 786 -24 m 533 29 q 741 91 654 29 q 874 257 828 153 q 921 486 921 361 q 881 685 921 596 q 765 828 840 775 q 582 882 689 882 q 373 825 461 882 q 238 669 285 768 q 190 446 190 571 q 232 232 190 326 q 351 83 274 138 q 533 29 428 29 m 642 1024 q 533 1068 610 1028 q 421 1138 454 1107 q 407 1154 407 1147 q 435 1163 407 1156 q 488 1179 457 1167 q 503 1163 490 1176 q 542 1124 515 1149 q 588 1086 553 1115 q 664 1035 624 1057 q 667 1032 667 1032 q 642 1024 667 1028 m 503 1021 q 389 1050 471 1021 q 268 1103 306 1078 q 253 1118 253 1114 q 279 1131 253 1121 q 329 1154 300 1138 q 390 1107 333 1147 q 441 1076 401 1100 q 524 1036 481 1051 q 526 1033 526 1033 q 503 1021 526 1029 z "},"Ö":{"ha":1108,"x_min":60,"x_max":1051,"o":"m 521 -24 q 274 28 378 -24 q 115 178 171 81 q 60 414 60 276 q 195 803 60 671 q 588 935 331 935 q 927 835 803 935 q 1051 528 1051 735 q 919 120 1051 264 q 521 -24 786 -24 m 533 29 q 741 91 654 29 q 874 257 828 153 q 921 486 921 361 q 881 685 921 596 q 765 828 840 775 q 582 882 689 882 q 373 825 461 882 q 238 669 285 768 q 190 446 190 571 q 232 232 190 326 q 351 83 274 138 q 533 29 428 29 m 444 1021 q 406 1042 429 1021 q 383 1072 383 1060 q 419 1110 383 1081 q 453 1131 447 1131 q 467 1124 460 1131 q 479 1116 474 1119 q 490 1110 485 1113 q 531 1100 508 1100 q 538 1094 538 1100 q 535 1085 539 1089 l 499 1054 q 444 1021 460 1021 m 665 1021 q 626 1042 650 1021 q 606 1072 606 1061 q 640 1110 606 1081 q 675 1131 668 1131 q 688 1124 681 1131 q 700 1116 694 1119 q 711 1110 706 1113 q 751 1100 729 1100 q 760 1094 758 1100 q 756 1085 760 1089 q 744 1074 753 1082 q 719 1054 735 1067 q 665 1021 678 1021 z "},"Ȫ":{"ha":1108,"x_min":60,"x_max":1051,"o":"m 521 -24 q 274 28 378 -24 q 115 178 171 81 q 60 414 60 276 q 195 803 60 671 q 588 935 331 935 q 927 835 803 935 q 1051 528 1051 735 q 919 120 1051 264 q 521 -24 786 -24 m 533 29 q 741 91 654 29 q 874 257 828 153 q 921 486 921 361 q 881 685 921 596 q 765 828 840 775 q 582 882 689 882 q 373 825 461 882 q 238 669 285 768 q 190 446 190 571 q 232 232 190 326 q 351 83 274 138 q 533 29 428 29 m 444 1021 q 406 1042 429 1021 q 383 1072 383 1060 q 419 1110 383 1081 q 453 1131 447 1131 q 467 1124 460 1131 q 479 1116 474 1119 q 490 1110 485 1113 q 531 1100 508 1100 q 538 1094 538 1100 q 535 1085 539 1089 l 499 1054 q 444 1021 460 1021 m 665 1021 q 626 1042 650 1021 q 606 1072 606 1061 q 640 1110 606 1081 q 675 1131 668 1131 q 688 1124 681 1131 q 700 1116 694 1119 q 711 1110 706 1113 q 751 1100 729 1100 q 760 1094 758 1100 q 756 1085 760 1089 q 744 1074 753 1082 q 719 1054 735 1067 q 665 1021 678 1021 m 738 1176 q 668 1188 717 1183 q 575 1192 619 1192 q 519 1190 554 1192 q 447 1187 485 1189 q 378 1179 410 1185 q 376 1182 376 1179 q 388 1226 376 1193 q 408 1256 400 1258 q 450 1248 422 1251 q 511 1243 478 1244 q 572 1240 544 1242 q 624 1242 592 1240 q 685 1246 657 1243 q 746 1251 728 1250 q 767 1253 764 1253 q 768 1250 768 1253 q 757 1207 768 1238 q 738 1176 744 1174 z "},"Ȱ":{"ha":1108,"x_min":60,"x_max":1051,"o":"m 521 -24 q 274 28 378 -24 q 115 178 171 81 q 60 414 60 276 q 195 803 60 671 q 588 935 331 935 q 927 835 803 935 q 1051 528 1051 735 q 919 120 1051 264 q 521 -24 786 -24 m 533 29 q 741 91 654 29 q 874 257 828 153 q 921 486 921 361 q 881 685 921 596 q 765 828 840 775 q 582 882 689 882 q 373 825 461 882 q 238 669 285 768 q 190 446 190 571 q 232 232 190 326 q 351 83 274 138 q 533 29 428 29 m 556 1021 q 517 1042 540 1021 q 494 1072 494 1060 q 531 1110 494 1081 q 564 1131 558 1131 q 578 1124 571 1131 q 590 1116 585 1119 q 601 1110 596 1113 q 642 1100 619 1100 q 649 1094 649 1100 q 646 1085 650 1089 l 610 1054 q 556 1021 571 1021 m 738 1172 q 668 1183 717 1179 q 575 1188 619 1188 q 519 1186 554 1188 q 447 1183 485 1185 q 378 1175 410 1181 q 376 1178 376 1175 q 388 1222 376 1189 q 408 1251 400 1254 q 450 1244 422 1247 q 511 1239 478 1240 q 572 1236 544 1238 q 624 1238 592 1236 q 685 1242 657 1239 q 746 1247 728 1246 q 767 1249 764 1249 q 768 1246 768 1249 q 757 1203 768 1233 q 738 1172 744 1169 z "},"Ọ":{"ha":1108,"x_min":60,"x_max":1051,"o":"m 521 -24 q 274 28 378 -24 q 115 178 171 81 q 60 414 60 276 q 195 803 60 671 q 588 935 331 935 q 927 835 803 935 q 1051 528 1051 735 q 919 120 1051 264 q 521 -24 786 -24 m 533 29 q 741 91 654 29 q 874 257 828 153 q 921 486 921 361 q 881 685 921 596 q 765 828 840 775 q 582 882 689 882 q 373 825 461 882 q 238 669 285 768 q 190 446 190 571 q 232 232 190 326 q 351 83 274 138 q 533 29 428 29 m 538 -208 q 499 -187 522 -208 q 476 -157 476 -169 q 513 -119 476 -149 q 546 -99 540 -99 q 560 -106 553 -99 q 572 -113 567 -110 q 583 -119 578 -117 q 624 -129 601 -129 q 631 -135 631 -129 q 628 -144 632 -140 l 592 -175 q 538 -208 553 -208 z "},"Ò":{"ha":1108,"x_min":60,"x_max":1051,"o":"m 521 -24 q 274 28 378 -24 q 115 178 171 81 q 60 414 60 276 q 195 803 60 671 q 588 935 331 935 q 927 835 803 935 q 1051 528 1051 735 q 919 120 1051 264 q 521 -24 786 -24 m 533 29 q 741 91 654 29 q 874 257 828 153 q 921 486 921 361 q 881 685 921 596 q 765 828 840 775 q 582 882 689 882 q 373 825 461 882 q 238 669 285 768 q 190 446 190 571 q 232 232 190 326 q 351 83 274 138 q 533 29 428 29 m 644 1021 q 594 1028 629 1021 q 518 1053 558 1035 q 430 1097 454 1082 q 388 1122 406 1111 q 372 1138 372 1133 q 399 1150 372 1140 q 449 1174 419 1157 q 532 1107 451 1169 q 583 1074 543 1097 q 665 1036 622 1051 q 668 1033 668 1033 q 644 1021 668 1029 z "},"Ω":{"ha":871,"x_min":17,"x_max":828,"o":"m 24 1 q 17 13 17 1 q 29 56 17 31 q 50 83 44 83 l 281 83 q 139 233 210 117 q 65 489 65 357 q 179 774 65 660 q 469 890 294 890 q 733 789 633 890 q 828 544 828 694 q 717 232 828 388 q 554 82 632 118 l 818 82 q 821 76 821 82 q 806 32 821 65 q 783 1 792 1 l 464 1 q 456 25 456 1 q 471 71 456 68 q 646 231 553 79 q 732 504 732 369 q 649 732 732 640 q 432 825 564 825 q 206 729 292 825 q 124 490 124 636 q 182 251 124 372 q 211 203 193 228 q 251 150 229 178 q 364 72 314 76 q 374 42 374 69 q 361 1 374 1 l 24 1 z "},"Ỏ":{"ha":1108,"x_min":60,"x_max":1051,"o":"m 521 -24 q 274 28 378 -24 q 115 178 171 81 q 60 414 60 276 q 195 803 60 671 q 588 935 331 935 q 927 835 803 935 q 1051 528 1051 735 q 919 120 1051 264 q 521 -24 786 -24 m 533 29 q 741 91 654 29 q 874 257 828 153 q 921 486 921 361 q 881 685 921 596 q 765 828 840 775 q 582 882 689 882 q 373 825 461 882 q 238 669 285 768 q 190 446 190 571 q 232 232 190 326 q 351 83 274 138 q 533 29 428 29 m 546 1021 q 544 1032 544 1026 q 543 1043 543 1038 q 554 1078 543 1067 q 576 1103 565 1090 q 586 1142 586 1115 q 579 1164 586 1153 q 553 1175 572 1175 q 524 1166 535 1175 q 513 1144 514 1157 l 490 1140 q 482 1161 489 1144 q 475 1179 475 1178 q 482 1190 475 1188 q 569 1217 525 1217 q 635 1199 608 1217 q 661 1154 661 1181 q 649 1106 661 1122 q 622 1078 638 1089 q 594 1056 606 1068 q 582 1021 582 1044 l 546 1021 z "},"Ơ":{"ha":1108,"x_min":60,"x_max":1051,"o":"m 521 -24 q 274 28 378 -24 q 115 178 171 81 q 60 414 60 276 q 195 803 60 671 q 588 935 331 935 q 927 835 803 935 q 1051 528 1051 735 q 919 120 1051 264 q 521 -24 786 -24 m 533 29 q 741 91 654 29 q 874 257 828 153 q 921 486 921 361 q 881 685 921 596 q 765 828 840 775 q 582 882 689 882 q 373 825 461 882 q 238 669 285 768 q 190 446 190 571 q 232 232 190 326 q 351 83 274 138 q 533 29 428 29 m 833 854 q 811 855 824 854 q 786 857 799 856 l 797 903 q 896 922 864 903 q 928 986 928 940 q 926 1007 928 997 q 922 1024 925 1017 l 1021 1064 q 1022 1054 1021 1061 q 1022 1038 1022 1047 q 1018 981 1022 1013 q 993 931 1015 961 q 931 877 971 900 q 833 854 892 854 z "},"Ớ":{"ha":1108,"x_min":60,"x_max":1051,"o":"m 521 -24 q 274 28 378 -24 q 115 178 171 81 q 60 414 60 276 q 195 803 60 671 q 588 935 331 935 q 927 835 803 935 q 1051 528 1051 735 q 919 120 1051 264 q 521 -24 786 -24 m 533 29 q 741 91 654 29 q 874 257 828 153 q 921 486 921 361 q 881 685 921 596 q 765 828 840 775 q 582 882 689 882 q 373 825 461 882 q 238 669 285 768 q 190 446 190 571 q 232 232 190 326 q 351 83 274 138 q 533 29 428 29 m 833 854 q 811 855 824 854 q 786 857 799 856 l 797 903 q 896 922 864 903 q 928 986 928 940 q 926 1007 928 997 q 922 1024 925 1017 l 1021 1064 q 1022 1054 1021 1061 q 1022 1038 1022 1047 q 1018 981 1022 1013 q 993 931 1015 961 q 931 877 971 900 q 833 854 892 854 m 465 1021 q 442 1033 442 1029 q 444 1036 442 1033 q 528 1074 489 1051 q 578 1107 567 1097 q 661 1174 658 1169 q 711 1150 690 1157 q 738 1138 738 1140 q 722 1122 738 1133 q 681 1097 704 1111 q 592 1053 657 1082 q 517 1028 553 1035 q 465 1021 481 1021 z "},"Ợ":{"ha":1108,"x_min":60,"x_max":1051,"o":"m 521 -24 q 274 28 378 -24 q 115 178 171 81 q 60 414 60 276 q 195 803 60 671 q 588 935 331 935 q 927 835 803 935 q 1051 528 1051 735 q 919 120 1051 264 q 521 -24 786 -24 m 533 29 q 741 91 654 29 q 874 257 828 153 q 921 486 921 361 q 881 685 921 596 q 765 828 840 775 q 582 882 689 882 q 373 825 461 882 q 238 669 285 768 q 190 446 190 571 q 232 232 190 326 q 351 83 274 138 q 533 29 428 29 m 833 854 q 811 855 824 854 q 786 857 799 856 l 797 903 q 896 922 864 903 q 928 986 928 940 q 926 1007 928 997 q 922 1024 925 1017 l 1021 1064 q 1022 1054 1021 1061 q 1022 1038 1022 1047 q 1018 981 1022 1013 q 993 931 1015 961 q 931 877 971 900 q 833 854 892 854 m 538 -208 q 499 -187 522 -208 q 476 -157 476 -169 q 513 -119 476 -149 q 546 -99 540 -99 q 560 -106 553 -99 q 572 -113 567 -110 q 583 -119 578 -117 q 624 -129 601 -129 q 631 -135 631 -129 q 628 -144 632 -140 l 592 -175 q 538 -208 553 -208 z "},"Ờ":{"ha":1108,"x_min":60,"x_max":1051,"o":"m 521 -24 q 274 28 378 -24 q 115 178 171 81 q 60 414 60 276 q 195 803 60 671 q 588 935 331 935 q 927 835 803 935 q 1051 528 1051 735 q 919 120 1051 264 q 521 -24 786 -24 m 533 29 q 741 91 654 29 q 874 257 828 153 q 921 486 921 361 q 881 685 921 596 q 765 828 840 775 q 582 882 689 882 q 373 825 461 882 q 238 669 285 768 q 190 446 190 571 q 232 232 190 326 q 351 83 274 138 q 533 29 428 29 m 833 854 q 811 855 824 854 q 786 857 799 856 l 797 903 q 896 922 864 903 q 928 986 928 940 q 926 1007 928 997 q 922 1024 925 1017 l 1021 1064 q 1022 1054 1021 1061 q 1022 1038 1022 1047 q 1018 981 1022 1013 q 993 931 1015 961 q 931 877 971 900 q 833 854 892 854 m 644 1021 q 594 1028 629 1021 q 518 1053 558 1035 q 430 1097 454 1082 q 388 1122 406 1111 q 372 1138 372 1133 q 399 1150 372 1140 q 449 1174 419 1157 q 532 1107 451 1169 q 583 1074 543 1097 q 665 1036 622 1051 q 668 1033 668 1033 q 644 1021 668 1029 z "},"Ở":{"ha":1108,"x_min":60,"x_max":1051,"o":"m 521 -24 q 274 28 378 -24 q 115 178 171 81 q 60 414 60 276 q 195 803 60 671 q 588 935 331 935 q 927 835 803 935 q 1051 528 1051 735 q 919 120 1051 264 q 521 -24 786 -24 m 533 29 q 741 91 654 29 q 874 257 828 153 q 921 486 921 361 q 881 685 921 596 q 765 828 840 775 q 582 882 689 882 q 373 825 461 882 q 238 669 285 768 q 190 446 190 571 q 232 232 190 326 q 351 83 274 138 q 533 29 428 29 m 833 854 q 811 855 824 854 q 786 857 799 856 l 797 903 q 896 922 864 903 q 928 986 928 940 q 926 1007 928 997 q 922 1024 925 1017 l 1021 1064 q 1022 1054 1021 1061 q 1022 1038 1022 1047 q 1018 981 1022 1013 q 993 931 1015 961 q 931 877 971 900 q 833 854 892 854 m 546 1021 q 544 1032 544 1026 q 543 1043 543 1038 q 554 1078 543 1067 q 576 1103 565 1090 q 586 1142 586 1115 q 579 1164 586 1153 q 553 1175 572 1175 q 524 1166 535 1175 q 513 1144 514 1157 l 490 1140 q 482 1161 489 1144 q 475 1179 475 1178 q 482 1190 475 1188 q 569 1217 525 1217 q 635 1199 608 1217 q 661 1154 661 1181 q 649 1106 661 1122 q 622 1078 638 1089 q 594 1056 606 1068 q 582 1021 582 1044 l 546 1021 z "},"Ỡ":{"ha":1108,"x_min":60,"x_max":1051,"o":"m 521 -24 q 274 28 378 -24 q 115 178 171 81 q 60 414 60 276 q 195 803 60 671 q 588 935 331 935 q 927 835 803 935 q 1051 528 1051 735 q 919 120 1051 264 q 521 -24 786 -24 m 533 29 q 741 91 654 29 q 874 257 828 153 q 921 486 921 361 q 881 685 921 596 q 765 828 840 775 q 582 882 689 882 q 373 825 461 882 q 238 669 285 768 q 190 446 190 571 q 232 232 190 326 q 351 83 274 138 q 533 29 428 29 m 833 854 q 811 855 824 854 q 786 857 799 856 l 797 903 q 896 922 864 903 q 928 986 928 940 q 926 1007 928 997 q 922 1024 925 1017 l 1021 1064 q 1022 1054 1021 1061 q 1022 1038 1022 1047 q 1018 981 1022 1013 q 993 931 1015 961 q 931 877 971 900 q 833 854 892 854 m 654 1021 q 588 1040 622 1021 q 521 1076 553 1058 q 464 1094 489 1094 q 425 1074 440 1094 q 399 1026 410 1054 l 369 1026 q 388 1090 369 1061 q 434 1138 406 1119 q 492 1156 463 1156 q 556 1139 525 1156 q 616 1106 588 1122 q 669 1089 644 1089 q 710 1109 693 1089 q 733 1153 726 1129 l 760 1153 q 726 1055 760 1089 q 654 1021 692 1021 z "},"Ő":{"ha":1108,"x_min":60,"x_max":1051,"o":"m 521 -24 q 274 28 378 -24 q 115 178 171 81 q 60 414 60 276 q 195 803 60 671 q 588 935 331 935 q 927 835 803 935 q 1051 528 1051 735 q 919 120 1051 264 q 521 -24 786 -24 m 533 29 q 741 91 654 29 q 874 257 828 153 q 921 486 921 361 q 881 685 921 596 q 765 828 840 775 q 582 882 689 882 q 373 825 461 882 q 238 669 285 768 q 190 446 190 571 q 232 232 190 326 q 351 83 274 138 q 533 29 428 29 m 640 1021 q 614 1019 614 1017 q 614 1024 614 1019 q 664 1101 643 1060 q 690 1154 685 1142 q 717 1226 717 1219 q 748 1230 733 1228 q 772 1233 763 1232 q 801 1236 800 1238 q 796 1215 803 1233 q 768 1169 786 1197 q 721 1107 750 1142 q 640 1021 669 1039 m 517 1021 q 490 1019 490 1017 q 490 1024 490 1019 q 540 1101 519 1060 q 567 1154 561 1142 q 593 1226 593 1219 q 624 1230 610 1228 q 649 1233 639 1232 q 678 1236 676 1238 q 672 1215 679 1233 q 644 1169 663 1197 q 597 1107 626 1142 q 517 1021 546 1039 z "},"Ȏ":{"ha":1108,"x_min":60,"x_max":1051,"o":"m 578 1163 q 717 1133 672 1163 q 767 1039 761 1103 l 689 1019 q 662 1080 683 1057 q 574 1103 640 1103 q 480 1089 517 1103 q 439 1029 443 1075 l 371 1011 q 391 1067 371 1047 q 438 1110 411 1086 q 490 1147 461 1132 q 578 1163 518 1163 m 521 -24 q 274 28 378 -24 q 115 178 171 81 q 60 414 60 276 q 195 803 60 671 q 588 935 331 935 q 927 835 803 935 q 1051 528 1051 735 q 919 120 1051 264 q 521 -24 786 -24 m 533 29 q 741 91 654 29 q 874 257 828 153 q 921 486 921 361 q 881 685 921 596 q 765 828 840 775 q 582 882 689 882 q 373 825 461 882 q 238 669 285 768 q 190 446 190 571 q 232 232 190 326 q 351 83 274 138 q 533 29 428 29 z "},"Ō":{"ha":1108,"x_min":60,"x_max":1051,"o":"m 521 -24 q 274 28 378 -24 q 115 178 171 81 q 60 414 60 276 q 195 803 60 671 q 588 935 331 935 q 927 835 803 935 q 1051 528 1051 735 q 919 120 1051 264 q 521 -24 786 -24 m 533 29 q 741 91 654 29 q 874 257 828 153 q 921 486 921 361 q 881 685 921 596 q 765 828 840 775 q 582 882 689 882 q 373 825 461 882 q 238 669 285 768 q 190 446 190 571 q 232 232 190 326 q 351 83 274 138 q 533 29 428 29 m 728 1021 q 658 1032 707 1028 q 565 1036 610 1036 q 510 1035 544 1036 q 438 1031 475 1033 q 368 1024 400 1029 q 367 1026 367 1024 q 378 1071 367 1038 q 399 1100 390 1103 q 440 1092 413 1096 q 501 1088 468 1089 q 563 1085 535 1086 q 615 1086 582 1085 q 675 1090 647 1088 q 736 1096 718 1094 q 757 1097 754 1097 q 758 1094 758 1097 q 747 1051 758 1082 q 728 1021 735 1018 z "},"Ǫ":{"ha":1108,"x_min":60,"x_max":1051,"o":"m 521 -24 q 274 28 378 -24 q 115 178 171 81 q 60 414 60 276 q 195 803 60 671 q 588 935 331 935 q 927 835 803 935 q 1051 528 1051 735 q 919 120 1051 264 q 521 -24 786 -24 m 533 29 q 741 91 654 29 q 874 257 828 153 q 921 486 921 361 q 881 685 921 596 q 765 828 840 775 q 582 882 689 882 q 373 825 461 882 q 238 669 285 768 q 190 446 190 571 q 232 232 190 326 q 351 83 274 138 q 533 29 428 29 m 514 -272 q 437 -244 467 -272 q 407 -168 407 -215 q 434 -99 407 -132 q 499 -40 461 -65 q 567 0 536 -14 l 611 0 q 574 -28 596 -10 q 526 -69 551 -46 q 492 -117 503 -92 q 481 -165 481 -142 q 495 -209 481 -192 q 536 -226 510 -226 q 568 -221 553 -226 q 601 -205 589 -214 q 629 -186 613 -196 l 629 -224 q 581 -257 613 -242 q 514 -272 549 -272 z "},"Ø":{"ha":1097,"x_min":60,"x_max":1040,"o":"m 515 -32 q 222 42 336 -32 l 185 -6 l 103 -7 l 174 79 q 60 406 60 192 q 60 434 60 419 q 61 463 60 449 q 215 806 78 689 q 579 917 350 917 q 708 907 649 917 q 818 876 768 897 l 858 926 l 956 926 l 885 842 q 1040 513 1040 740 q 1040 488 1040 501 q 1039 463 1040 475 q 515 -32 1006 -32 m 254 182 l 761 807 q 575 864 683 864 q 550 864 563 864 q 524 861 538 864 q 281 728 372 843 q 189 475 199 624 q 188 453 188 464 q 188 431 188 442 q 254 182 188 293 m 528 19 q 550 20 539 19 q 572 22 561 21 q 815 163 725 42 q 910 428 897 268 q 911 450 911 439 q 911 471 911 461 q 814 757 911 643 l 294 126 q 528 19 386 19 z "},"Ǿ":{"ha":1097,"x_min":60,"x_max":1040,"o":"m 515 -32 q 222 42 336 -32 l 185 -6 l 103 -7 l 174 79 q 60 406 60 192 q 60 434 60 419 q 61 463 60 449 q 215 806 78 689 q 579 917 350 917 q 708 907 649 917 q 818 876 768 897 l 858 926 l 956 926 l 885 842 q 1040 513 1040 740 q 1040 488 1040 501 q 1039 463 1040 475 q 515 -32 1006 -32 m 254 182 l 761 807 q 575 864 683 864 q 550 864 563 864 q 524 861 538 864 q 281 728 372 843 q 189 475 199 624 q 188 453 188 464 q 188 431 188 442 q 254 182 188 293 m 528 19 q 550 20 539 19 q 572 22 561 21 q 815 163 725 42 q 910 428 897 268 q 911 450 911 439 q 911 471 911 461 q 814 757 911 643 l 294 126 q 528 19 386 19 m 463 1021 q 439 1033 439 1029 q 442 1036 439 1033 q 525 1074 486 1051 q 575 1107 564 1097 q 658 1174 656 1169 q 708 1150 688 1157 q 735 1138 735 1140 q 719 1122 735 1133 q 678 1097 701 1111 q 589 1053 654 1082 q 514 1028 550 1035 q 463 1021 478 1021 z "},"Õ":{"ha":1108,"x_min":60,"x_max":1051,"o":"m 521 -24 q 274 28 378 -24 q 115 178 171 81 q 60 414 60 276 q 195 803 60 671 q 588 935 331 935 q 927 835 803 935 q 1051 528 1051 735 q 919 120 1051 264 q 521 -24 786 -24 m 533 29 q 741 91 654 29 q 874 257 828 153 q 921 486 921 361 q 881 685 921 596 q 765 828 840 775 q 582 882 689 882 q 373 825 461 882 q 238 669 285 768 q 190 446 190 571 q 232 232 190 326 q 351 83 274 138 q 533 29 428 29 m 654 1021 q 588 1040 622 1021 q 521 1076 553 1058 q 464 1094 489 1094 q 425 1074 440 1094 q 399 1026 410 1054 l 369 1026 q 388 1090 369 1061 q 434 1138 406 1119 q 492 1156 463 1156 q 556 1139 525 1156 q 616 1106 588 1122 q 669 1089 644 1089 q 710 1109 693 1089 q 733 1153 726 1129 l 760 1153 q 726 1055 760 1089 q 654 1021 692 1021 z "},"Ȭ":{"ha":1108,"x_min":60,"x_max":1051,"o":"m 521 -24 q 274 28 378 -24 q 115 178 171 81 q 60 414 60 276 q 195 803 60 671 q 588 935 331 935 q 927 835 803 935 q 1051 528 1051 735 q 919 120 1051 264 q 521 -24 786 -24 m 533 29 q 741 91 654 29 q 874 257 828 153 q 921 486 921 361 q 881 685 921 596 q 765 828 840 775 q 582 882 689 882 q 373 825 461 882 q 238 669 285 768 q 190 446 190 571 q 232 232 190 326 q 351 83 274 138 q 533 29 428 29 m 654 1021 q 588 1040 622 1021 q 521 1076 553 1058 q 464 1094 489 1094 q 425 1074 440 1094 q 399 1026 410 1054 l 369 1026 q 388 1090 369 1061 q 434 1138 406 1119 q 492 1156 463 1156 q 556 1139 525 1156 q 616 1106 588 1122 q 669 1089 644 1089 q 710 1109 693 1089 q 733 1153 726 1129 l 760 1153 q 726 1055 760 1089 q 654 1021 692 1021 m 735 1186 q 665 1197 714 1193 q 572 1201 617 1201 q 517 1200 551 1201 q 444 1197 482 1199 q 375 1189 407 1194 q 374 1192 374 1189 q 385 1236 374 1203 q 406 1265 397 1268 q 447 1258 419 1261 q 508 1253 475 1254 q 569 1250 542 1251 q 622 1251 589 1250 q 682 1256 654 1253 q 743 1261 725 1260 q 764 1263 761 1263 q 765 1260 765 1263 q 754 1217 765 1247 q 735 1186 742 1183 z "},"P":{"ha":786,"x_min":7,"x_max":779,"o":"m 7 -8 l 25 32 q 168 89 146 31 q 188 193 178 117 q 206 393 197 269 q 219 635 215 533 q 222 796 222 736 q 211 875 222 851 q 146 899 200 899 q 89 890 121 899 l 111 932 q 299 919 151 926 q 357 922 318 919 q 440 928 396 925 q 515 931 483 931 q 708 885 636 931 q 779 725 779 840 q 728 556 779 628 q 597 444 678 483 q 422 404 515 404 q 361 408 393 404 l 383 443 q 526 470 461 440 q 630 557 590 500 q 669 690 669 614 q 641 793 669 751 q 565 856 613 835 q 464 878 518 878 q 397 869 431 878 q 369 857 379 867 q 356 825 360 847 q 346 756 351 801 q 336 658 340 710 q 328 560 332 606 q 317 405 322 483 q 308 258 311 326 q 304 142 304 190 q 306 96 304 115 q 310 67 307 76 q 336 51 314 58 q 387 39 358 43 q 441 33 415 35 q 479 33 467 32 l 458 -7 q 400 -2 424 -4 q 356 2 376 0 q 310 5 336 4 q 242 6 283 6 q 166 3 213 6 q 75 -3 119 0 q 7 -8 31 -7 z "},"Q":{"ha":1114,"x_min":60,"x_max":1282,"o":"m 1054 -283 q 889 -219 957 -283 l 729 -72 q 699 -46 718 -61 q 654 -11 681 -31 q 590 -19 624 -17 q 521 -22 557 -22 q 274 30 378 -22 q 115 180 171 82 q 60 415 60 278 q 194 804 60 672 q 586 936 329 936 q 926 836 801 936 q 1051 529 1051 736 q 974 197 1051 329 q 743 13 897 65 q 814 -31 781 -10 q 875 -74 847 -51 q 1197 -215 1058 -215 q 1239 -212 1218 -215 q 1282 -204 1260 -210 l 1263 -242 q 1054 -283 1132 -283 m 533 31 q 740 92 654 31 q 873 258 826 154 q 919 488 919 363 q 879 687 919 597 q 763 830 839 776 q 581 883 688 883 q 372 826 460 883 q 238 671 285 769 q 190 447 190 572 q 232 233 190 328 q 351 85 274 139 q 533 31 428 31 z "},"R":{"ha":1000,"x_min":7,"x_max":1056,"o":"m 928 -15 q 780 16 843 -15 q 678 111 717 47 q 583 267 618 210 q 528 356 547 325 q 496 402 508 386 q 469 431 483 418 q 427 426 447 428 q 388 425 407 425 l 410 463 q 597 521 524 463 q 679 689 671 579 q 631 825 683 776 q 500 874 579 874 q 412 869 444 874 q 372 838 379 865 q 358 726 365 796 q 344 574 351 657 q 332 408 338 490 q 323 257 326 325 q 319 150 319 189 q 333 68 319 93 q 381 38 346 43 q 482 32 417 32 l 457 -10 q 371 1 417 -3 q 275 4 325 4 q 172 1 239 4 q 7 -10 104 -3 l 26 31 q 49 28 38 28 q 102 35 72 28 q 156 58 132 43 q 185 92 179 72 q 201 186 193 122 q 216 331 210 250 q 227 496 222 413 q 235 650 232 579 q 238 763 238 721 q 227 868 238 836 q 171 900 217 900 q 140 897 157 900 q 103 890 124 894 l 128 932 q 172 927 142 931 q 240 922 201 924 q 315 919 279 919 q 369 921 336 919 q 438 925 403 922 q 502 929 474 928 q 540 931 531 931 q 728 889 658 931 q 797 738 797 847 q 770 623 797 679 q 699 526 743 567 q 603 471 654 486 q 690 317 639 396 q 802 171 742 238 q 927 65 863 104 q 1056 28 992 25 l 1039 -3 q 982 -10 1008 -6 q 928 -15 956 -15 z "},"Ŕ":{"ha":1000,"x_min":7,"x_max":1056,"o":"m 928 -15 q 780 16 843 -15 q 678 111 717 47 q 583 267 618 210 q 528 356 547 325 q 496 402 508 386 q 469 431 483 418 q 427 426 447 428 q 388 425 407 425 l 410 463 q 597 521 524 463 q 679 689 671 579 q 631 825 683 776 q 500 874 579 874 q 412 869 444 874 q 372 838 379 865 q 358 726 365 796 q 344 574 351 657 q 332 408 338 490 q 323 257 326 325 q 319 150 319 189 q 333 68 319 93 q 381 38 346 43 q 482 32 417 32 l 457 -10 q 371 1 417 -3 q 275 4 325 4 q 172 1 239 4 q 7 -10 104 -3 l 26 31 q 49 28 38 28 q 102 35 72 28 q 156 58 132 43 q 185 92 179 72 q 201 186 193 122 q 216 331 210 250 q 227 496 222 413 q 235 650 232 579 q 238 763 238 721 q 227 868 238 836 q 171 900 217 900 q 140 897 157 900 q 103 890 124 894 l 128 932 q 172 927 142 931 q 240 922 201 924 q 315 919 279 919 q 369 921 336 919 q 438 925 403 922 q 502 929 474 928 q 540 931 531 931 q 728 889 658 931 q 797 738 797 847 q 770 623 797 679 q 699 526 743 567 q 603 471 654 486 q 690 317 639 396 q 802 171 742 238 q 927 65 863 104 q 1056 28 992 25 l 1039 -3 q 982 -10 1008 -6 q 928 -15 956 -15 m 388 1021 q 364 1033 364 1029 q 367 1036 364 1033 q 450 1074 411 1051 q 500 1107 489 1097 q 583 1174 581 1169 q 633 1150 613 1157 q 660 1138 660 1140 q 644 1122 660 1133 q 603 1097 626 1111 q 514 1053 579 1082 q 439 1028 475 1035 q 388 1021 403 1021 z "},"Ř":{"ha":1000,"x_min":7,"x_max":1056,"o":"m 354 1183 q 385 1172 364 1183 q 431 1144 407 1161 q 485 1103 471 1118 q 511 1076 500 1089 q 519 1076 515 1071 q 603 1147 578 1124 q 654 1179 629 1169 q 665 1181 657 1181 q 682 1181 672 1181 q 708 1181 694 1181 q 722 1179 721 1181 q 668 1141 704 1164 q 592 1088 632 1118 q 517 1024 551 1058 q 488 1019 503 1021 q 461 1018 472 1018 q 450 1019 451 1018 l 372 1083 q 335 1115 351 1101 q 314 1132 319 1128 q 288 1141 304 1139 q 261 1143 271 1143 l 265 1157 q 304 1167 279 1160 q 344 1182 329 1175 q 354 1183 347 1183 m 928 -15 q 780 16 843 -15 q 678 111 717 47 q 583 267 618 210 q 528 356 547 325 q 496 402 508 386 q 469 431 483 418 q 427 426 447 428 q 388 425 407 425 l 410 463 q 597 521 524 463 q 679 689 671 579 q 631 825 683 776 q 500 874 579 874 q 412 869 444 874 q 372 838 379 865 q 358 726 365 796 q 344 574 351 657 q 332 408 338 490 q 323 257 326 325 q 319 150 319 189 q 333 68 319 93 q 381 38 346 43 q 482 32 417 32 l 457 -10 q 371 1 417 -3 q 275 4 325 4 q 172 1 239 4 q 7 -10 104 -3 l 26 31 q 49 28 38 28 q 102 35 72 28 q 156 58 132 43 q 185 92 179 72 q 201 186 193 122 q 216 331 210 250 q 227 496 222 413 q 235 650 232 579 q 238 763 238 721 q 227 868 238 836 q 171 900 217 900 q 140 897 157 900 q 103 890 124 894 l 128 932 q 172 927 142 931 q 240 922 201 924 q 315 919 279 919 q 369 921 336 919 q 438 925 403 922 q 502 929 474 928 q 540 931 531 931 q 728 889 658 931 q 797 738 797 847 q 770 623 797 679 q 699 526 743 567 q 603 471 654 486 q 690 317 639 396 q 802 171 742 238 q 927 65 863 104 q 1056 28 992 25 l 1039 -3 q 982 -10 1008 -6 q 928 -15 956 -15 z "},"Ŗ":{"ha":1000,"x_min":7,"x_max":1056,"o":"m 928 -15 q 780 16 843 -15 q 678 111 717 47 q 583 267 618 210 q 528 356 547 325 q 496 402 508 386 q 469 431 483 418 q 427 426 447 428 q 388 425 407 425 l 410 463 q 597 521 524 463 q 679 689 671 579 q 631 825 683 776 q 500 874 579 874 q 412 869 444 874 q 372 838 379 865 q 358 726 365 796 q 344 574 351 657 q 332 408 338 490 q 323 257 326 325 q 319 150 319 189 q 333 68 319 93 q 381 38 346 43 q 482 32 417 32 l 457 -10 q 371 1 417 -3 q 275 4 325 4 q 172 1 239 4 q 7 -10 104 -3 l 26 31 q 49 28 38 28 q 102 35 72 28 q 156 58 132 43 q 185 92 179 72 q 201 186 193 122 q 216 331 210 250 q 227 496 222 413 q 235 650 232 579 q 238 763 238 721 q 227 868 238 836 q 171 900 217 900 q 140 897 157 900 q 103 890 124 894 l 128 932 q 172 927 142 931 q 240 922 201 924 q 315 919 279 919 q 369 921 336 919 q 438 925 403 922 q 502 929 474 928 q 540 931 531 931 q 728 889 658 931 q 797 738 797 847 q 770 623 797 679 q 699 526 743 567 q 603 471 654 486 q 690 317 639 396 q 802 171 742 238 q 927 65 863 104 q 1056 28 992 25 l 1039 -3 q 982 -10 1008 -6 q 928 -15 956 -15 m 468 -426 l 468 -410 q 479 -387 468 -401 q 539 -246 539 -328 q 521 -201 539 -221 q 475 -176 503 -181 l 479 -154 q 526 -128 503 -150 l 540 -114 q 551 -106 547 -106 q 607 -189 607 -114 q 493 -410 604 -318 q 481 -419 488 -414 q 468 -426 475 -424 z "},"Ȑ":{"ha":1000,"x_min":7,"x_max":1056,"o":"m 928 -15 q 780 16 843 -15 q 678 111 717 47 q 583 267 618 210 q 528 356 547 325 q 496 402 508 386 q 469 431 483 418 q 427 426 447 428 q 388 425 407 425 l 410 463 q 597 521 524 463 q 679 689 671 579 q 631 825 683 776 q 500 874 579 874 q 412 869 444 874 q 372 838 379 865 q 358 726 365 796 q 344 574 351 657 q 332 408 338 490 q 323 257 326 325 q 319 150 319 189 q 333 68 319 93 q 381 38 346 43 q 482 32 417 32 l 457 -10 q 371 1 417 -3 q 275 4 325 4 q 172 1 239 4 q 7 -10 104 -3 l 26 31 q 49 28 38 28 q 102 35 72 28 q 156 58 132 43 q 185 92 179 72 q 201 186 193 122 q 216 331 210 250 q 227 496 222 413 q 235 650 232 579 q 238 763 238 721 q 227 868 238 836 q 171 900 217 900 q 140 897 157 900 q 103 890 124 894 l 128 932 q 172 927 142 931 q 240 922 201 924 q 315 919 279 919 q 369 921 336 919 q 438 925 403 922 q 502 929 474 928 q 540 931 531 931 q 728 889 658 931 q 797 738 797 847 q 770 623 797 679 q 699 526 743 567 q 603 471 654 486 q 690 317 639 396 q 802 171 742 238 q 927 65 863 104 q 1056 28 992 25 l 1039 -3 q 982 -10 1008 -6 q 928 -15 956 -15 m 564 1024 q 456 1068 532 1028 q 343 1138 376 1107 q 329 1154 329 1147 q 357 1163 329 1156 q 410 1179 379 1167 q 425 1163 413 1176 q 464 1124 438 1149 q 510 1086 475 1115 q 586 1035 546 1057 q 589 1032 589 1032 q 564 1024 589 1028 m 425 1021 q 311 1050 393 1021 q 190 1103 228 1078 q 175 1118 175 1114 q 201 1131 175 1121 q 251 1154 222 1138 q 313 1107 256 1147 q 363 1076 324 1100 q 446 1036 403 1051 q 449 1033 449 1033 q 425 1021 449 1029 z "},"Ȓ":{"ha":1000,"x_min":7,"x_max":1056,"o":"m 500 1163 q 639 1133 594 1163 q 689 1039 683 1103 l 611 1019 q 584 1080 606 1057 q 496 1103 563 1103 q 402 1089 439 1103 q 361 1029 365 1075 l 293 1011 q 313 1067 293 1047 q 360 1110 333 1086 q 412 1147 383 1132 q 500 1163 440 1163 m 928 -15 q 780 16 843 -15 q 678 111 717 47 q 583 267 618 210 q 528 356 547 325 q 496 402 508 386 q 469 431 483 418 q 427 426 447 428 q 388 425 407 425 l 410 463 q 597 521 524 463 q 679 689 671 579 q 631 825 683 776 q 500 874 579 874 q 412 869 444 874 q 372 838 379 865 q 358 726 365 796 q 344 574 351 657 q 332 408 338 490 q 323 257 326 325 q 319 150 319 189 q 333 68 319 93 q 381 38 346 43 q 482 32 417 32 l 457 -10 q 371 1 417 -3 q 275 4 325 4 q 172 1 239 4 q 7 -10 104 -3 l 26 31 q 49 28 38 28 q 102 35 72 28 q 156 58 132 43 q 185 92 179 72 q 201 186 193 122 q 216 331 210 250 q 227 496 222 413 q 235 650 232 579 q 238 763 238 721 q 227 868 238 836 q 171 900 217 900 q 140 897 157 900 q 103 890 124 894 l 128 932 q 172 927 142 931 q 240 922 201 924 q 315 919 279 919 q 369 921 336 919 q 438 925 403 922 q 502 929 474 928 q 540 931 531 931 q 728 889 658 931 q 797 738 797 847 q 770 623 797 679 q 699 526 743 567 q 603 471 654 486 q 690 317 639 396 q 802 171 742 238 q 927 65 863 104 q 1056 28 992 25 l 1039 -3 q 982 -10 1008 -6 q 928 -15 956 -15 z "},"S":{"ha":653,"x_min":53,"x_max":592,"o":"m 219 -18 q 64 10 117 -18 q 53 32 53 15 q 65 137 60 90 q 71 219 69 183 l 111 235 q 107 121 104 138 q 139 74 113 94 q 203 43 165 54 q 274 32 240 32 q 406 81 356 32 q 456 218 456 131 q 416 338 456 289 q 319 422 376 386 q 209 493 256 463 q 138 563 163 524 q 113 667 113 601 q 156 799 113 739 q 270 897 199 860 q 426 933 342 933 l 428 933 q 500 926 463 933 q 565 907 538 919 q 592 875 592 894 q 562 788 572 832 q 549 699 551 743 l 508 715 q 522 788 522 739 q 481 863 522 840 q 389 885 439 885 q 266 837 313 885 q 219 710 219 789 q 243 627 219 661 q 302 569 267 593 q 371 524 338 544 q 490 440 444 478 q 555 362 535 401 q 575 269 575 322 q 528 113 575 176 q 402 15 482 49 q 219 -18 322 -18 z "},"Ś":{"ha":653,"x_min":53,"x_max":592,"o":"m 219 -18 q 64 10 117 -18 q 53 32 53 15 q 65 137 60 90 q 71 219 69 183 l 111 235 q 107 121 104 138 q 139 74 113 94 q 203 43 165 54 q 274 32 240 32 q 406 81 356 32 q 456 218 456 131 q 416 338 456 289 q 319 422 376 386 q 209 493 256 463 q 138 563 163 524 q 113 667 113 601 q 156 799 113 739 q 270 897 199 860 q 426 933 342 933 l 428 933 q 500 926 463 933 q 565 907 538 919 q 592 875 592 894 q 562 788 572 832 q 549 699 551 743 l 508 715 q 522 788 522 739 q 481 863 522 840 q 389 885 439 885 q 266 837 313 885 q 219 710 219 789 q 243 627 219 661 q 302 569 267 593 q 371 524 338 544 q 490 440 444 478 q 555 362 535 401 q 575 269 575 322 q 528 113 575 176 q 402 15 482 49 q 219 -18 322 -18 m 299 1021 q 275 1033 275 1029 q 278 1036 275 1033 q 361 1074 322 1051 q 411 1107 400 1097 q 494 1174 492 1169 q 544 1150 524 1157 q 571 1138 571 1140 q 556 1122 571 1133 q 514 1097 538 1111 q 425 1053 490 1082 q 350 1028 386 1035 q 299 1021 314 1021 z "},"Š":{"ha":653,"x_min":53,"x_max":633,"o":"m 265 1183 q 297 1172 275 1183 q 342 1144 318 1161 q 397 1103 382 1118 q 422 1076 411 1089 q 431 1076 426 1071 q 515 1147 489 1124 q 565 1179 540 1169 q 576 1181 568 1181 q 593 1181 583 1181 q 619 1181 606 1181 q 633 1179 632 1181 q 579 1141 615 1164 q 503 1088 543 1118 q 428 1024 463 1058 q 399 1019 414 1021 q 372 1018 383 1018 q 361 1019 363 1018 l 283 1083 q 247 1115 263 1101 q 225 1132 231 1128 q 199 1141 215 1139 q 172 1143 182 1143 l 176 1157 q 215 1167 190 1160 q 256 1182 240 1175 q 265 1183 258 1183 m 219 -18 q 64 10 117 -18 q 53 32 53 15 q 65 137 60 90 q 71 219 69 183 l 111 235 q 107 121 104 138 q 139 74 113 94 q 203 43 165 54 q 274 32 240 32 q 406 81 356 32 q 456 218 456 131 q 416 338 456 289 q 319 422 376 386 q 209 493 256 463 q 138 563 163 524 q 113 667 113 601 q 156 799 113 739 q 270 897 199 860 q 426 933 342 933 l 428 933 q 500 926 463 933 q 565 907 538 919 q 592 875 592 894 q 562 788 572 832 q 549 699 551 743 l 508 715 q 522 788 522 739 q 481 863 522 840 q 389 885 439 885 q 266 837 313 885 q 219 710 219 789 q 243 627 219 661 q 302 569 267 593 q 371 524 338 544 q 490 440 444 478 q 555 362 535 401 q 575 269 575 322 q 528 113 575 176 q 402 15 482 49 q 219 -18 322 -18 z "}}}
